{"glyphs":{"0":{"ha":729,"x_min":60,"x_max":669,"o":"m 375 706 q 592 615 515 706 q 669 356 669 524 q 588 85 669 181 q 357 -11 507 -11 q 138 80 215 -11 q 60 336 60 171 q 142 609 60 513 q 375 706 225 706 m 364 575 q 171 346 171 575 q 365 114 171 114 q 560 339 560 114 q 364 575 560 575 z "},"1":{"ha":488,"x_min":14,"x_max":333,"o":"m 325 288 l 332 0 l 189 0 l 197 272 l 196 542 l 26 494 l 14 503 l 14 615 l 313 703 l 333 688 l 325 288 z "},"2":{"ha":642,"x_min":61,"x_max":604,"o":"m 326 703 q 472 659 415 703 q 529 542 529 615 q 491 418 529 486 q 368 256 453 350 l 244 115 l 247 108 l 474 108 l 594 119 l 604 110 l 586 -7 l 433 0 l 119 0 l 68 -3 l 61 3 l 61 90 l 251 290 q 357 418 324 368 q 390 507 390 468 q 365 561 390 540 q 296 582 340 582 q 108 493 197 582 l 93 493 l 69 603 q 326 703 197 703 z "},"3":{"ha":583,"x_min":39,"x_max":522,"o":"m 272 704 q 435 654 374 704 q 497 522 497 604 q 464 409 497 464 q 361 318 431 354 l 361 313 q 522 129 522 269 q 481 -8 522 51 q 365 -101 440 -68 q 193 -133 290 -133 q 50 -121 128 -133 l 43 -4 l 53 6 q 200 -25 124 -25 q 337 13 286 -25 q 388 118 388 51 q 347 208 388 175 q 231 243 307 240 l 143 243 l 135 253 l 139 350 l 200 351 q 272 369 236 351 q 331 419 308 388 q 354 492 354 451 q 324 563 354 538 q 244 589 294 589 q 75 513 169 589 l 60 513 l 39 619 q 272 704 149 704 z "},"4":{"ha":681,"x_min":33,"x_max":639,"o":"m 507 94 l 513 -115 l 504 -126 l 396 -135 l 388 -125 l 392 94 l 147 94 l 43 92 l 33 104 l 33 196 l 379 696 l 510 696 l 506 204 l 631 204 l 639 192 l 632 92 l 507 94 m 393 204 l 393 531 l 382 531 l 157 204 l 393 204 z "},"5":{"ha":588,"x_min":36,"x_max":536,"o":"m 521 582 l 511 572 l 397 582 l 211 582 l 207 392 l 293 374 q 473 294 419 347 q 526 154 526 240 q 483 3 526 69 q 363 -99 440 -62 q 186 -136 285 -136 q 46 -121 128 -136 l 36 -1 l 47 10 q 206 -25 126 -25 q 342 18 292 -25 q 393 132 393 61 q 355 221 393 188 q 231 269 317 254 l 107 293 l 96 306 l 103 681 l 122 700 l 199 696 l 392 696 l 528 703 l 536 693 l 521 582 z "},"6":{"ha":660,"x_min":57,"x_max":606,"o":"m 381 492 q 546 426 486 492 q 606 254 606 360 q 572 119 606 179 q 476 23 539 58 q 325 -12 413 -12 q 125 68 193 -12 q 57 294 57 149 q 163 608 57 469 q 464 826 269 746 l 472 826 l 578 763 l 578 749 q 329 621 418 692 q 207 451 240 550 l 217 440 q 381 492 293 492 m 335 83 q 441 122 403 83 q 479 235 479 161 q 443 350 479 310 q 340 390 407 390 q 186 331 264 390 l 185 297 q 220 136 185 189 q 335 83 256 83 z "},"7":{"ha":589,"x_min":26,"x_max":550,"o":"m 486 696 l 549 699 l 550 594 l 297 42 l 229 -140 l 115 -110 l 107 -86 l 417 579 l 150 579 l 35 567 l 26 581 l 36 701 l 174 696 l 486 696 z "},"8":{"ha":669,"x_min":63,"x_max":599,"o":"m 347 824 q 513 771 453 824 q 574 626 574 718 q 540 514 574 560 q 446 431 506 468 l 446 424 q 558 345 517 389 q 599 224 599 301 q 522 52 599 115 q 317 -11 444 -11 q 130 47 197 -11 q 63 199 63 104 q 219 406 63 329 l 219 413 q 93 604 93 478 q 163 765 93 706 q 347 824 233 824 m 340 724 q 244 692 279 724 q 210 608 210 661 q 244 524 210 554 q 344 468 279 493 q 431 527 400 494 q 463 613 463 560 q 430 694 463 664 q 340 724 397 724 m 319 364 q 218 307 254 340 q 182 215 182 274 q 222 122 182 157 q 329 88 261 88 q 440 123 400 88 q 481 214 481 158 q 459 281 481 254 q 406 325 438 308 q 319 364 375 342 z "},"9":{"ha":660,"x_min":54,"x_max":603,"o":"m 279 206 q 114 272 174 206 q 54 443 54 338 q 88 578 54 518 q 184 674 121 639 q 335 710 247 710 q 535 629 467 710 q 603 403 603 549 q 497 90 603 228 q 196 -129 390 -49 l 188 -129 l 82 -65 l 82 -51 q 331 76 242 6 q 453 246 419 147 l 443 257 q 279 206 367 206 m 325 614 q 219 575 257 614 q 181 463 181 536 q 217 347 181 388 q 319 307 253 307 q 474 367 396 307 l 475 400 q 440 561 475 508 q 325 614 404 614 z "}," ":{"ha":222,"x_min":0,"x_max":0,"o":""},"!":{"ha":361,"x_min":88,"x_max":264,"o":"m 225 314 l 143 303 l 128 319 l 124 897 l 136 914 l 247 921 l 264 903 l 225 314 m 168 150 q 222 130 203 150 q 242 74 242 110 q 221 14 242 36 q 164 -8 200 -8 q 108 13 128 -8 q 88 69 88 33 q 110 128 88 106 q 168 150 132 150 z "},"\"":{"ha":431,"x_min":76,"x_max":374,"o":"m 157 603 l 88 593 l 76 603 l 78 881 l 186 889 l 196 878 l 157 603 m 333 603 l 264 593 l 253 603 l 256 881 l 364 889 l 374 878 l 333 603 z "},"#":{"ha":735,"x_min":28,"x_max":707,"o":"m 513 347 l 650 347 l 660 338 l 653 263 l 494 263 l 449 44 l 367 44 l 358 56 l 403 263 l 256 263 l 210 44 l 126 44 l 119 56 l 164 263 l 38 263 l 28 272 l 35 347 l 181 347 l 214 501 l 85 501 l 75 511 l 82 586 l 232 586 l 276 797 l 357 797 l 367 785 l 325 586 l 471 586 l 515 797 l 596 797 l 606 785 l 564 586 l 699 586 l 707 576 l 700 501 l 546 501 l 513 347 m 307 501 l 274 347 l 419 347 l 453 501 l 307 501 z "},"$":{"ha":613,"x_min":60,"x_max":538,"o":"m 538 200 q 481 65 538 124 q 324 -6 425 7 l 310 -183 l 240 -183 l 229 -171 l 242 -7 q 60 36 144 0 l 75 156 l 90 163 q 249 85 156 100 l 265 304 q 128 382 176 340 q 79 499 79 424 q 138 633 79 578 q 296 699 196 689 l 310 893 l 379 893 l 393 881 l 379 700 q 518 667 450 693 l 499 556 l 479 551 q 372 604 428 590 l 356 393 q 490 315 442 357 q 538 200 538 272 m 196 515 q 275 428 196 467 l 289 607 q 221 572 246 599 q 196 515 196 546 m 331 85 q 397 121 372 94 q 421 179 421 147 q 344 268 421 231 l 331 85 z "},"%":{"ha":1161,"x_min":50,"x_max":1110,"o":"m 917 889 l 265 -126 l 203 -90 l 196 -72 l 847 946 l 907 910 l 917 889 m 268 900 q 417 838 365 900 q 468 660 468 775 q 413 469 468 535 q 253 403 358 403 q 103 465 156 403 q 50 644 50 528 q 106 834 50 768 q 268 900 163 900 m 258 801 q 144 653 144 801 q 260 494 144 494 q 375 646 375 494 q 258 801 375 801 m 910 490 q 1058 428 1007 490 q 1110 250 1110 365 q 1055 59 1110 125 q 894 -7 1000 -7 q 744 56 797 -7 q 692 235 692 118 q 748 424 692 358 q 910 490 804 490 m 900 392 q 788 243 788 392 q 901 85 788 85 q 1017 236 1017 85 q 900 392 1017 392 z "},"&":{"ha":1057,"x_min":53,"x_max":1135,"o":"m 1135 404 q 1072 332 1106 357 q 989 301 1039 307 q 840 322 947 301 q 773 146 828 222 q 628 27 718 69 q 424 -15 538 -15 q 151 82 249 -15 q 53 350 53 179 q 90 537 53 456 q 194 663 128 618 q 343 707 261 707 q 465 669 421 707 q 508 575 508 632 q 506 549 508 568 q 878 988 768 743 l 890 988 q 947 893 933 946 q 782 663 900 786 q 506 432 664 539 q 189 261 349 325 q 274 134 211 179 q 436 89 336 89 q 647 158 563 89 q 738 343 731 228 q 672 350 693 350 q 564 272 608 350 l 549 271 l 525 351 q 588 424 554 400 q 672 453 622 447 q 829 429 714 453 q 988 406 956 406 q 1094 482 1063 406 l 1111 483 l 1135 404 m 339 613 q 219 547 264 613 q 175 369 175 481 l 175 361 q 368 457 274 400 q 418 553 421 499 q 394 597 415 582 q 339 613 372 613 z "},"'":{"ha":253,"x_min":76,"x_max":196,"o":"m 157 603 l 88 593 l 76 603 l 78 881 l 186 889 l 196 878 l 157 603 z "},"(":{"ha":404,"x_min":107,"x_max":397,"o":"m 397 861 q 263 665 304 783 q 221 356 222 547 q 263 55 222 169 q 397 -137 304 -60 l 397 -150 l 347 -194 l 333 -194 q 161 21 214 -107 q 107 354 108 149 q 161 699 108 567 q 333 919 214 831 l 347 919 l 397 874 l 397 861 z "},")":{"ha":404,"x_min":6,"x_max":296,"o":"m 6 -137 q 140 58 99 -60 q 182 368 181 176 q 140 669 181 554 q 6 861 99 783 l 6 874 l 56 918 l 69 918 q 242 703 189 831 q 296 369 294 575 q 242 25 294 157 q 69 -196 189 -107 l 56 -196 l 6 -150 l 6 -137 z "},"*":{"ha":525,"x_min":44,"x_max":493,"o":"m 288 846 l 235 840 l 226 850 l 222 1008 q 317 1024 263 1024 l 324 1014 l 288 846 m 200 778 l 188 772 l 44 818 q 58 914 44 876 l 68 917 l 207 829 l 200 778 m 449 885 q 493 799 478 842 l 486 790 l 326 772 l 303 819 l 308 832 l 449 885 m 408 618 q 343 549 390 588 l 331 551 l 268 713 l 306 746 l 319 744 l 408 618 m 243 707 l 163 576 q 75 619 133 585 l 75 631 l 196 744 l 242 721 l 243 707 z "},"+":{"ha":667,"x_min":39,"x_max":628,"o":"m 382 414 l 618 414 l 628 404 l 621 317 l 382 317 l 382 78 l 296 71 l 285 81 l 285 317 l 49 317 l 39 326 l 46 414 l 285 414 l 285 653 l 372 661 l 382 650 l 382 414 z "},",":{"ha":318,"x_min":51,"x_max":246,"o":"m 186 147 q 246 43 246 104 q 99 -165 246 -60 l 53 -124 l 51 -112 q 128 15 128 -50 q 85 89 128 58 l 85 101 q 186 147 136 135 z "},"-":{"ha":425,"x_min":39,"x_max":385,"o":"m 385 328 l 51 278 l 39 290 l 39 379 l 372 428 l 385 417 l 385 328 z "},".":{"ha":318,"x_min":81,"x_max":235,"o":"m 161 150 q 215 130 196 150 q 235 74 235 110 q 214 14 235 36 q 157 -8 193 -8 q 101 13 121 -8 q 81 69 81 33 q 102 128 81 106 q 161 150 124 150 z "},"/":{"ha":397,"x_min":18,"x_max":410,"o":"m 125 -158 l 26 -158 l 18 -146 l 303 943 l 399 943 l 410 929 l 125 -158 z "},":":{"ha":318,"x_min":75,"x_max":229,"o":"m 156 150 q 210 130 190 150 q 229 74 229 110 q 208 14 229 36 q 151 -8 188 -8 q 95 13 115 -8 q 75 69 75 33 q 97 128 75 106 q 156 150 118 150 m 156 519 q 210 499 190 519 q 229 443 229 479 q 208 383 229 406 q 151 361 188 361 q 95 382 115 361 q 75 439 75 403 q 97 497 75 475 q 156 519 118 519 z "},";":{"ha":318,"x_min":46,"x_max":240,"o":"m 181 147 q 240 43 240 104 q 93 -165 240 -60 l 47 -124 l 46 -112 q 122 15 122 -50 q 79 89 122 58 l 79 101 q 181 147 131 135 m 156 519 q 210 499 190 519 q 229 443 229 479 q 208 383 229 406 q 151 361 188 361 q 95 382 115 361 q 75 439 75 403 q 97 497 75 475 q 156 519 118 519 z "},"<":{"ha":667,"x_min":49,"x_max":615,"o":"m 49 422 l 49 307 l 576 101 l 590 111 l 611 192 l 154 364 l 154 372 l 608 554 l 615 567 l 585 647 l 60 436 l 49 422 z "},"=":{"ha":667,"x_min":39,"x_max":628,"o":"m 621 438 l 49 438 l 39 447 l 46 535 l 618 535 l 628 525 l 621 438 m 621 194 l 49 194 l 39 204 l 46 292 l 618 292 l 628 282 l 621 194 z "},">":{"ha":667,"x_min":51,"x_max":618,"o":"m 618 422 l 618 307 l 90 101 l 76 111 l 56 192 l 513 364 l 513 372 l 58 554 l 51 567 l 82 647 l 607 436 l 618 422 z "},"?":{"ha":465,"x_min":76,"x_max":479,"o":"m 118 922 q 385 856 292 913 q 479 701 479 799 q 358 514 479 588 l 250 444 l 247 439 l 256 311 l 156 299 l 144 310 l 133 472 l 140 486 l 269 558 q 351 679 351 606 q 86 822 351 807 l 76 836 l 103 915 l 118 922 m 210 150 q 265 130 244 150 q 285 74 285 110 q 263 14 285 36 q 206 -8 242 -8 q 150 13 169 -8 q 131 69 131 33 q 152 128 131 106 q 210 150 174 150 z "},"@":{"ha":1157,"x_min":46,"x_max":1119,"o":"m 1119 422 q 992 113 1119 222 q 626 -4 864 3 l 663 253 l 647 253 q 449 -11 550 89 l 426 -11 q 306 211 306 47 q 343 399 306 307 q 455 558 381 492 q 635 644 529 625 l 642 644 l 738 614 l 817 646 l 832 639 l 763 154 l 760 97 q 955 199 885 114 q 1025 418 1025 283 q 978 604 1025 524 q 845 729 932 685 q 643 774 758 774 q 381 710 494 774 q 204 535 267 647 q 142 276 142 422 q 208 22 142 129 q 393 -143 274 -86 q 672 -200 513 -200 l 678 -214 l 636 -282 q 325 -215 458 -279 q 119 -29 192 -150 q 46 258 46 92 q 120 572 46 433 q 331 788 194 710 q 644 865 467 865 q 894 810 788 865 q 1060 656 1001 756 q 1119 422 1119 556 m 463 126 q 517 168 479 126 q 602 290 554 210 q 696 481 650 369 l 697 492 l 699 510 l 610 543 q 474 460 524 543 q 424 251 424 378 q 463 126 424 126 z "},"A":{"ha":815,"x_min":15,"x_max":789,"o":"m 642 0 l 621 100 l 582 224 l 393 228 l 222 224 l 181 107 l 158 0 l 15 0 l 333 892 l 501 892 l 789 0 l 642 0 m 418 751 l 408 751 l 263 340 l 403 338 l 546 340 l 418 751 z "},"B":{"ha":769,"x_min":119,"x_max":719,"o":"m 536 464 q 719 250 719 425 q 338 -6 719 -6 q 121 0 206 -6 l 119 0 l 129 268 l 119 892 l 397 893 q 598 837 526 893 q 669 674 669 781 q 635 545 669 599 q 536 464 600 492 m 522 657 q 485 753 522 724 q 358 782 447 782 l 264 782 l 260 508 l 403 504 q 522 657 522 533 m 361 106 q 519 144 464 106 q 575 258 575 183 q 421 399 575 378 l 258 397 l 257 281 l 261 110 q 361 106 315 106 z "},"C":{"ha":721,"x_min":47,"x_max":694,"o":"m 454 901 q 694 840 590 901 l 668 714 l 654 710 q 449 782 561 782 q 262 699 326 782 q 197 453 197 617 q 263 197 197 285 q 449 110 328 110 q 671 186 571 110 l 685 178 l 674 47 q 438 -11 554 -11 q 149 106 250 -11 q 47 438 47 222 q 153 781 47 660 q 454 901 260 901 z "},"D":{"ha":903,"x_min":119,"x_max":856,"o":"m 458 897 q 753 789 650 897 q 856 478 856 681 q 743 117 856 243 q 419 -8 631 -8 q 121 0 285 -8 l 119 0 l 129 268 l 119 892 l 121 892 l 458 897 m 444 106 q 640 190 572 106 q 707 446 707 275 q 642 699 707 618 q 447 781 578 781 q 265 775 371 781 l 258 281 l 263 115 q 444 106 372 106 z "},"E":{"ha":685,"x_min":119,"x_max":657,"o":"m 656 110 l 646 0 l 119 0 l 129 268 l 119 892 l 649 892 l 657 879 l 646 769 l 435 775 l 265 774 l 261 514 l 422 511 l 569 515 l 579 504 l 568 394 l 411 399 l 260 396 l 258 281 l 263 117 l 432 115 l 647 122 l 656 110 z "},"F":{"ha":615,"x_min":119,"x_max":628,"o":"m 261 493 l 401 490 l 549 494 l 558 482 l 547 374 l 389 378 l 260 376 l 258 281 l 265 0 l 119 0 l 129 268 l 119 892 l 618 892 l 628 879 l 617 767 l 408 775 l 265 774 l 261 493 z "},"G":{"ha":832,"x_min":47,"x_max":756,"o":"m 494 901 q 756 842 635 901 l 726 708 l 711 707 q 588 765 643 747 q 471 782 532 782 q 264 698 332 782 q 196 433 196 614 q 260 184 196 261 q 463 107 324 107 q 617 135 524 107 l 621 225 l 617 358 l 751 368 l 749 247 l 753 43 q 454 -11 581 -11 q 149 102 250 -11 q 47 426 47 215 q 163 779 47 657 q 494 901 279 901 z "},"H":{"ha":956,"x_min":119,"x_max":836,"o":"m 833 0 l 689 0 l 699 268 l 697 389 l 467 393 l 260 389 l 258 281 l 265 0 l 119 0 l 129 268 l 119 892 l 267 892 l 261 510 l 478 506 l 694 510 l 689 892 l 836 892 l 828 281 l 833 0 z "},"I":{"ha":388,"x_min":119,"x_max":267,"o":"m 265 0 l 119 0 l 129 268 l 119 892 l 267 892 l 258 281 l 265 0 z "},"J":{"ha":446,"x_min":8,"x_max":326,"o":"m 321 165 q 265 -13 321 57 q 69 -144 208 -83 l 19 -65 l 19 -50 q 151 45 113 -1 q 189 165 189 92 l 189 281 l 183 781 l 21 779 l 8 790 l 17 892 l 326 892 l 318 294 l 321 165 z "},"K":{"ha":781,"x_min":118,"x_max":786,"o":"m 264 0 l 118 0 l 128 268 l 118 892 l 265 892 l 257 281 l 264 0 m 418 472 q 786 31 588 244 l 783 14 q 644 -12 718 -4 l 629 -4 q 269 465 414 256 l 269 474 l 549 811 l 601 892 l 760 892 l 418 472 z "},"L":{"ha":588,"x_min":115,"x_max":585,"o":"m 574 0 l 115 0 l 125 268 l 115 892 l 263 892 l 254 281 l 257 119 l 575 119 l 585 107 l 574 0 z "},"M":{"ha":1100,"x_min":74,"x_max":1024,"o":"m 896 0 l 878 271 l 836 674 l 826 674 l 597 99 l 483 99 l 271 674 l 258 674 l 217 283 l 194 0 l 74 0 l 167 892 l 331 892 l 372 758 l 543 285 l 554 285 l 735 763 l 776 892 l 939 892 l 1024 0 l 896 0 z "},"N":{"ha":956,"x_min":119,"x_max":836,"o":"m 832 0 l 678 0 l 260 668 l 249 668 l 247 299 l 254 0 l 119 0 l 129 264 l 122 892 l 275 892 l 694 224 l 706 224 l 701 885 l 836 894 l 826 267 l 832 0 z "},"O":{"ha":888,"x_min":47,"x_max":840,"o":"m 457 903 q 741 789 642 903 q 840 464 840 675 q 733 112 840 236 q 431 -12 626 -12 q 147 105 247 -12 q 47 438 47 222 q 153 782 47 661 q 457 903 260 903 m 444 785 q 256 705 317 785 q 194 456 194 625 q 255 188 194 274 q 442 103 315 103 q 630 184 568 103 q 692 438 692 265 q 631 701 692 618 q 444 785 571 785 z "},"P":{"ha":742,"x_min":119,"x_max":703,"o":"m 422 893 q 630 824 557 893 q 703 626 703 756 q 610 389 703 476 q 357 301 518 301 l 258 301 l 258 281 l 265 0 l 119 0 l 129 268 l 119 892 l 422 893 m 399 413 q 554 614 554 442 q 512 738 554 697 q 383 781 469 778 l 265 776 l 260 415 l 399 413 z "},"Q":{"ha":893,"x_min":47,"x_max":1019,"o":"m 1019 -175 q 954 -267 992 -232 l 942 -272 q 464 -11 675 -190 l 433 -12 q 147 105 247 -12 q 47 438 47 222 q 153 782 47 661 q 457 903 260 903 q 741 789 642 903 q 840 461 840 675 q 777 174 840 289 q 594 15 714 60 q 1014 -158 790 -114 l 1019 -175 m 194 451 q 256 188 194 272 q 444 103 317 103 q 692 442 692 103 q 631 701 692 618 q 443 785 569 785 q 255 704 315 785 q 194 451 194 624 z "},"R":{"ha":792,"x_min":119,"x_max":751,"o":"m 528 357 q 751 33 622 206 l 750 17 q 613 -12 683 -6 l 596 -1 q 410 318 481 188 l 258 318 l 258 281 l 265 0 l 119 0 l 129 268 l 119 892 l 422 893 q 631 826 557 893 q 704 633 704 758 q 658 473 704 544 q 528 357 611 401 m 414 431 q 554 622 554 474 q 383 781 554 774 l 265 776 l 261 435 l 414 431 z "},"S":{"ha":671,"x_min":53,"x_max":617,"o":"m 381 901 q 592 857 486 901 l 568 726 l 546 718 q 364 786 454 786 q 256 749 296 786 q 215 661 215 711 q 256 581 215 613 q 382 510 296 550 q 503 444 457 474 q 583 367 550 415 q 617 253 617 319 q 577 120 617 181 q 466 24 538 60 q 303 -11 394 -11 q 53 49 175 -11 l 71 190 l 89 199 q 202 126 140 150 q 317 101 264 101 q 432 140 389 101 q 475 231 475 178 q 433 316 475 283 q 306 389 392 349 q 186 452 232 424 q 108 528 140 481 q 75 642 75 575 q 114 774 75 714 q 222 867 153 833 q 381 901 292 901 z "},"T":{"ha":688,"x_min":26,"x_max":663,"o":"m 654 771 l 493 779 l 418 779 l 411 281 l 418 0 l 274 0 l 282 268 l 275 779 l 200 779 l 36 771 l 26 783 l 38 892 l 654 892 l 663 879 l 654 771 z "},"U":{"ha":876,"x_min":99,"x_max":785,"o":"m 779 333 q 690 79 782 169 q 431 -11 599 -11 q 182 76 268 -11 q 99 322 96 163 l 101 446 l 99 892 l 240 892 l 235 342 q 440 111 233 111 q 647 328 649 111 l 640 892 l 785 892 l 781 439 l 779 333 z "},"V":{"ha":796,"x_min":17,"x_max":790,"o":"m 306 0 l 17 892 l 164 892 l 185 790 l 389 139 l 399 139 l 625 783 l 647 892 l 790 892 l 475 0 l 306 0 z "},"W":{"ha":1246,"x_min":28,"x_max":1236,"o":"m 778 0 l 621 479 l 611 479 l 449 0 l 297 0 l 28 892 l 169 892 l 185 796 l 376 153 l 388 153 l 563 669 l 492 892 l 638 892 l 660 782 l 854 153 l 865 153 l 1081 788 l 1103 892 l 1236 892 l 928 0 l 778 0 z "},"X":{"ha":831,"x_min":26,"x_max":800,"o":"m 800 0 l 626 0 l 586 79 l 404 353 l 214 71 l 176 0 l 26 0 l 321 446 l 33 892 l 207 892 l 246 814 l 415 556 l 589 817 l 625 892 l 779 892 l 501 465 l 800 0 z "},"Y":{"ha":751,"x_min":15,"x_max":742,"o":"m 436 0 l 292 0 l 300 256 l 299 313 l 15 892 l 168 892 l 186 836 l 363 463 l 375 463 l 569 833 l 592 892 l 742 892 l 431 311 l 429 256 l 436 0 z "},"Z":{"ha":744,"x_min":43,"x_max":700,"o":"m 214 113 l 553 113 l 693 124 l 700 115 l 688 -3 l 508 0 l 133 0 l 43 -4 l 43 100 l 521 778 l 206 778 l 63 767 l 54 775 l 65 893 l 614 892 l 689 893 l 689 788 l 214 113 z "},"[":{"ha":404,"x_min":125,"x_max":399,"o":"m 399 825 l 242 807 l 242 -87 l 399 -104 l 399 -169 l 392 -178 l 125 -164 l 132 361 l 125 885 l 392 899 l 399 890 l 399 825 z "},"\\":{"ha":397,"x_min":-1,"x_max":390,"o":"m 283 -158 l 382 -158 l 390 -146 l 106 943 l 10 943 l -1 929 l 283 -158 z "},"]":{"ha":404,"x_min":4,"x_max":278,"o":"m 4 -104 l 161 -86 l 161 808 l 4 825 l 4 890 l 11 899 l 278 885 l 271 360 l 278 -164 l 11 -178 l 4 -169 l 4 -104 z "},"^":{"ha":599,"x_min":26,"x_max":574,"o":"m 563 181 l 483 161 l 310 583 l 301 583 l 119 163 l 107 156 l 26 186 l 238 678 l 251 686 l 367 686 l 574 193 l 563 181 z "},"_":{"ha":621,"x_min":-21,"x_max":642,"o":"m 635 -214 l -11 -214 l -21 -203 l -12 -122 l 632 -122 l 642 -133 l 635 -214 z "},"`":{"ha":540,"x_min":117,"x_max":421,"o":"m 117 907 l 119 893 q 371 721 229 813 l 385 722 l 421 778 q 183 983 275 896 l 169 982 l 117 907 z "},"a":{"ha":721,"x_min":29,"x_max":679,"o":"m 544 0 l 526 86 l 501 163 l 346 164 l 207 163 l 181 93 l 161 0 l 29 0 l 289 696 l 444 696 l 679 0 l 544 0 m 368 571 l 358 571 l 246 267 l 356 265 l 467 267 l 368 571 z "},"b":{"ha":689,"x_min":115,"x_max":629,"o":"m 479 361 q 629 197 629 329 q 306 -4 629 -4 q 115 0 207 -4 l 121 208 l 115 696 l 360 697 q 529 653 468 697 q 590 525 590 608 q 479 361 590 408 m 451 507 q 419 576 451 556 q 314 597 388 597 l 247 597 l 244 404 l 358 400 q 428 436 406 411 q 451 507 451 461 m 326 93 q 492 203 492 93 q 374 304 492 285 l 243 303 l 242 221 l 244 97 q 326 93 289 93 z "},"c":{"ha":636,"x_min":56,"x_max":599,"o":"m 400 704 q 599 660 514 704 l 574 542 l 561 538 q 388 594 489 594 q 196 356 196 594 q 246 166 196 231 q 392 101 296 101 q 574 158 492 101 l 588 151 l 576 33 q 385 -10 483 -10 q 140 82 225 -10 q 56 343 56 174 q 145 610 56 517 q 400 704 235 704 z "},"d":{"ha":788,"x_min":115,"x_max":732,"o":"m 401 701 q 647 617 561 701 q 732 374 732 532 q 638 91 732 189 q 368 -7 543 -7 q 115 0 236 -7 l 121 208 l 115 696 l 401 701 m 390 97 q 594 343 594 97 q 544 531 594 472 q 392 590 494 590 q 249 585 306 590 l 243 221 l 246 107 q 390 97 350 97 z "},"e":{"ha":617,"x_min":115,"x_max":574,"o":"m 572 101 l 561 0 l 115 0 l 121 208 l 115 696 l 565 696 l 574 685 l 564 583 l 388 590 l 249 589 l 246 408 l 379 407 l 500 411 l 507 400 l 499 297 l 368 301 l 244 300 l 243 221 l 246 107 l 375 106 l 563 111 l 572 101 z "},"f":{"ha":547,"x_min":108,"x_max":542,"o":"m 239 389 l 350 388 l 474 392 l 483 381 l 474 279 l 339 282 l 238 281 l 236 221 l 242 0 l 108 0 l 114 208 l 108 696 l 533 696 l 542 685 l 531 583 l 357 590 l 242 589 l 239 389 z "},"g":{"ha":726,"x_min":56,"x_max":650,"o":"m 431 704 q 650 661 539 704 l 610 535 l 596 535 q 501 581 543 567 q 407 594 458 594 q 247 534 299 594 q 196 339 196 474 q 244 153 196 208 q 404 99 293 99 q 525 124 457 99 l 525 182 l 524 286 l 646 294 l 644 203 l 644 33 q 397 -10 503 -10 q 142 79 228 -10 q 56 333 56 168 q 153 608 56 513 q 431 704 251 704 z "},"h":{"ha":833,"x_min":115,"x_max":719,"o":"m 718 0 l 585 0 l 589 208 l 588 292 l 408 293 l 244 290 l 243 221 l 249 0 l 115 0 l 121 208 l 115 696 l 250 696 l 246 407 l 418 404 l 588 406 l 585 696 l 719 696 l 713 221 l 718 0 z "},"i":{"ha":371,"x_min":115,"x_max":250,"o":"m 249 0 l 115 0 l 121 208 l 115 696 l 250 696 l 243 221 l 249 0 z "},"j":{"ha":417,"x_min":29,"x_max":297,"o":"m 292 229 l 292 131 q 249 -13 292 42 q 100 -115 207 -68 l 51 -47 l 51 -35 q 142 36 115 -1 q 168 129 168 74 l 168 215 l 165 596 l 38 594 l 29 603 l 38 696 l 297 696 l 292 229 z "},"k":{"ha":699,"x_min":115,"x_max":686,"o":"m 390 369 q 686 31 522 199 l 683 11 q 553 -12 618 -6 l 533 -4 q 247 361 360 204 l 247 371 l 471 631 l 515 696 l 668 697 l 390 369 m 249 0 l 115 0 l 121 208 l 115 696 l 250 696 l 243 221 l 249 0 z "},"l":{"ha":531,"x_min":111,"x_max":507,"o":"m 497 0 l 111 0 l 117 208 l 111 696 l 247 696 l 240 221 l 242 111 l 499 111 l 507 100 l 497 0 z "},"m":{"ha":950,"x_min":76,"x_max":872,"o":"m 754 0 l 740 211 l 708 494 l 700 494 l 519 74 l 415 74 l 249 494 l 238 494 l 207 224 l 189 0 l 76 0 l 151 696 l 307 696 l 339 593 l 469 250 l 479 250 l 618 594 l 653 696 l 804 696 l 872 0 l 754 0 z "},"n":{"ha":833,"x_min":115,"x_max":718,"o":"m 715 0 l 571 0 l 242 489 l 233 489 l 232 236 l 236 0 l 115 0 l 121 204 l 117 696 l 258 696 l 588 207 l 599 207 l 594 692 l 718 699 l 711 213 l 715 0 z "},"o":{"ha":775,"x_min":56,"x_max":721,"o":"m 400 706 q 637 616 553 706 q 721 364 721 526 q 631 86 721 183 q 376 -11 542 -11 q 139 81 222 -11 q 56 340 56 172 q 145 610 56 515 q 400 706 235 706 m 388 596 q 241 540 288 596 q 194 357 194 483 q 240 157 194 217 q 386 97 286 97 q 535 153 488 97 q 582 338 582 210 q 536 536 582 476 q 388 596 490 596 z "},"p":{"ha":664,"x_min":115,"x_max":615,"o":"m 379 697 q 553 642 492 697 q 615 486 615 588 q 536 298 615 367 q 322 229 457 229 l 243 229 l 243 221 l 249 0 l 115 0 l 121 208 l 115 696 l 379 697 m 356 329 q 475 475 475 354 q 339 596 475 589 l 249 593 l 244 332 l 356 329 z "},"q":{"ha":782,"x_min":56,"x_max":861,"o":"m 861 -129 q 801 -211 835 -179 l 790 -214 q 413 -10 581 -146 q 376 -11 400 -11 q 139 81 222 -11 q 56 340 56 172 q 145 610 56 515 q 400 706 235 706 q 637 616 553 706 q 721 364 721 526 q 671 142 721 231 q 526 15 621 53 q 856 -115 688 -79 l 861 -129 m 194 357 q 240 157 194 217 q 386 97 286 97 q 535 153 488 97 q 582 338 582 210 q 536 536 582 476 q 388 596 490 596 q 241 540 288 596 q 194 357 194 483 z "},"r":{"ha":706,"x_min":115,"x_max":657,"o":"m 475 278 q 657 32 556 157 l 656 15 q 529 -10 583 -6 l 508 3 q 365 242 407 167 l 243 240 l 243 221 l 249 0 l 115 0 l 121 208 l 115 696 l 379 697 q 553 644 492 697 q 615 493 615 590 q 578 369 615 425 q 475 278 542 314 m 365 343 q 475 481 475 375 q 442 565 475 538 q 340 594 408 592 l 249 592 l 244 347 l 365 343 z "},"s":{"ha":601,"x_min":61,"x_max":535,"o":"m 339 704 q 517 669 428 704 l 496 543 l 475 539 q 322 603 394 603 q 241 576 271 603 q 211 515 211 550 q 242 458 211 481 q 340 407 274 435 q 441 358 403 381 q 507 297 479 335 q 535 204 535 260 q 505 99 535 147 q 416 20 475 50 q 274 -10 357 -10 q 61 35 164 -10 l 79 169 l 94 178 q 190 115 135 138 q 290 92 244 92 q 372 117 340 92 q 403 181 403 143 q 371 241 403 218 q 272 292 339 264 q 174 341 213 318 q 108 402 135 364 q 81 496 81 440 q 112 601 81 554 q 202 676 143 649 q 339 704 261 704 z "},"t":{"ha":613,"x_min":39,"x_max":574,"o":"m 565 578 l 431 588 l 372 588 l 369 221 l 374 0 l 240 0 l 246 208 l 243 588 l 186 588 l 49 578 l 39 589 l 49 696 l 567 696 l 574 685 l 565 578 z "},"u":{"ha":767,"x_min":93,"x_max":674,"o":"m 668 239 q 593 56 669 121 q 376 -10 517 -10 q 165 55 238 -10 q 96 239 93 119 l 97 346 l 93 696 l 228 696 l 221 260 q 382 101 219 101 q 544 260 547 101 l 539 696 l 674 696 l 669 342 l 668 239 z "},"v":{"ha":706,"x_min":32,"x_max":682,"o":"m 267 0 l 32 696 l 168 696 l 188 608 l 346 126 l 353 126 l 531 601 l 550 696 l 682 696 l 426 0 l 267 0 z "},"w":{"ha":1071,"x_min":42,"x_max":1047,"o":"m 656 0 l 535 344 l 525 344 l 400 0 l 257 0 l 42 696 l 176 696 l 189 613 l 333 143 l 343 143 l 479 525 l 426 696 l 564 696 l 581 600 l 728 143 l 739 143 l 901 606 l 921 696 l 1047 696 l 799 0 l 656 0 z "},"x":{"ha":732,"x_min":39,"x_max":693,"o":"m 693 0 l 532 0 l 499 67 l 358 260 l 210 60 l 178 0 l 39 0 l 281 346 l 42 696 l 206 696 l 238 629 l 369 447 l 504 633 l 533 696 l 676 696 l 449 365 l 693 0 z "},"y":{"ha":671,"x_min":28,"x_max":646,"o":"m 392 0 l 258 0 l 264 194 l 263 233 l 28 696 l 169 696 l 186 651 l 324 375 l 333 375 l 486 646 l 507 696 l 646 696 l 388 238 l 386 194 l 392 0 z "},"z":{"ha":660,"x_min":53,"x_max":607,"o":"m 213 103 l 476 103 l 600 115 l 607 108 l 596 -3 l 435 0 l 133 0 l 53 -3 l 53 93 l 439 592 l 183 592 l 67 579 l 61 588 l 71 697 l 210 696 l 531 696 l 597 697 l 597 599 l 213 103 z "},"{":{"ha":404,"x_min":57,"x_max":392,"o":"m 307 911 q 386 900 333 911 l 392 889 l 379 814 q 329 821 347 821 q 247 726 247 821 q 263 617 247 703 q 278 514 278 549 q 183 371 278 411 l 183 364 q 278 222 278 324 q 263 118 278 185 q 247 8 247 32 q 329 -89 247 -89 q 379 -82 347 -89 l 392 -154 l 386 -165 q 307 -176 351 -176 q 178 -135 222 -176 q 135 -17 135 -94 q 150 115 135 21 q 163 217 163 183 q 57 332 163 310 l 57 401 q 163 517 163 424 q 150 618 163 550 q 135 751 135 713 q 178 870 135 829 q 307 911 222 911 z "},"|":{"ha":432,"x_min":161,"x_max":271,"o":"m 269 401 l 269 -356 l 172 -362 l 161 -349 l 161 392 l 163 1103 l 261 1111 l 271 1101 l 269 401 z "},"}":{"ha":404,"x_min":11,"x_max":346,"o":"m 96 -178 q 17 -167 69 -178 l 11 -156 l 24 -81 q 74 -87 56 -87 q 156 7 156 -87 q 140 117 156 31 q 125 219 125 185 q 219 363 125 322 l 219 369 q 125 511 125 410 q 140 615 125 549 q 156 725 156 701 q 74 822 156 822 q 24 815 56 822 l 11 888 l 17 899 q 96 910 51 910 q 224 869 181 910 q 268 750 268 828 q 253 618 268 713 q 240 517 240 550 q 346 401 240 424 l 346 332 q 240 217 240 310 q 253 115 240 183 q 268 -18 268 21 q 224 -137 268 -96 q 96 -178 181 -178 z "},"~":{"ha":667,"x_min":58,"x_max":610,"o":"m 207 344 q 174 331 192 344 q 138 297 157 317 q 111 271 118 278 l 96 271 l 58 318 l 58 332 l 164 444 l 179 453 q 311 418 222 446 q 463 382 439 382 q 497 397 479 382 q 558 456 515 413 l 572 456 l 610 408 l 610 394 l 504 281 l 489 275 q 343 311 458 279 q 207 344 226 344 z "}," ":{"ha":222,"x_min":0,"x_max":0,"o":""},"¡":{"ha":361,"x_min":100,"x_max":276,"o":"m 139 332 l 221 343 l 236 326 l 240 -251 l 228 -268 l 117 -275 l 100 -257 l 139 332 m 196 496 q 142 516 161 496 q 122 572 122 536 q 143 632 122 610 q 200 654 164 654 q 256 633 236 654 q 276 576 276 613 q 254 518 276 540 q 196 496 232 496 z "},"¢":{"ha":532,"x_min":47,"x_max":508,"o":"m 497 96 q 328 49 421 53 l 311 -168 l 242 -168 l 231 -156 l 246 57 q 99 161 151 79 q 47 369 47 243 q 113 603 47 515 q 294 704 178 692 l 308 907 l 378 907 l 390 894 l 376 704 q 507 661 450 696 l 486 571 l 472 568 q 371 608 424 599 l 335 143 l 339 143 q 496 188 418 143 l 508 181 l 497 96 m 158 381 q 253 164 158 219 l 286 606 q 192 530 225 589 q 158 381 158 471 z "},"£":{"ha":594,"x_min":29,"x_max":554,"o":"m 544 -3 l 392 0 l 36 0 l 29 8 l 38 83 q 138 228 138 107 l 138 393 l 36 393 l 31 401 l 38 471 l 136 471 l 136 588 q 200 763 135 701 q 385 825 265 825 q 539 801 451 825 l 531 697 l 522 689 q 375 735 443 735 q 256 607 256 735 l 256 471 l 432 471 l 438 463 l 431 393 l 254 393 l 254 239 q 199 103 254 149 l 199 99 l 415 99 l 549 108 l 554 99 l 544 -3 z "},"¤":{"ha":604,"x_min":32,"x_max":574,"o":"m 569 689 l 475 601 q 510 492 510 551 q 476 388 510 436 l 572 303 l 574 289 l 513 224 l 499 225 l 413 319 q 301 283 363 283 q 197 317 244 283 l 113 222 l 99 222 l 33 283 l 35 297 l 129 382 q 93 492 93 432 q 126 599 93 550 l 32 683 l 32 697 l 92 761 l 106 760 l 193 665 q 301 700 240 700 q 406 668 357 700 l 492 763 l 506 764 l 569 703 l 569 689 m 301 621 q 210 584 247 621 q 174 492 174 547 q 210 400 174 436 q 301 364 247 364 q 394 400 357 364 q 431 492 431 436 q 394 584 431 547 q 301 621 357 621 z "},"¥":{"ha":694,"x_min":33,"x_max":669,"o":"m 668 222 l 664 163 l 401 163 l 404 0 l 286 0 l 290 163 l 39 163 l 33 169 l 38 229 l 292 229 l 292 233 l 229 349 l 39 349 l 33 357 l 38 417 l 193 417 l 46 694 l 172 694 l 188 651 l 344 365 l 354 365 l 524 647 l 544 694 l 668 694 l 507 417 l 663 417 l 669 410 l 664 349 l 467 349 l 401 236 l 401 229 l 663 229 l 668 222 z "},"¦":{"ha":432,"x_min":161,"x_max":271,"o":"m 269 519 l 172 508 l 161 518 l 161 1103 l 261 1111 l 271 1101 l 269 519 m 269 -356 l 172 -362 l 161 -349 l 161 211 l 257 222 l 269 208 l 269 -356 z "},"§":{"ha":590,"x_min":43,"x_max":543,"o":"m 413 194 q 482 60 482 135 q 451 -39 482 7 q 364 -112 419 -85 q 238 -139 308 -139 q 139 -127 193 -139 q 43 -96 85 -115 l 61 21 l 75 31 q 253 -47 161 -47 q 332 -22 303 -47 q 361 38 361 4 q 331 96 361 69 q 238 160 301 122 q 142 222 178 194 q 79 289 106 250 q 53 379 53 328 q 88 488 53 438 q 183 571 124 539 q 115 703 115 629 q 147 801 115 756 q 233 874 178 847 q 356 901 288 901 q 517 869 438 901 l 499 756 l 481 751 q 335 807 400 807 q 263 781 292 807 q 235 724 235 756 q 265 665 235 690 q 357 604 294 640 q 453 541 417 568 q 517 475 490 514 q 543 385 543 436 q 508 276 543 326 q 413 194 474 225 m 172 408 q 205 340 172 369 q 306 269 238 310 l 336 250 q 424 353 424 289 q 390 424 424 394 q 288 497 357 454 l 263 514 q 172 408 172 471 z "},"¨":{"ha":540,"x_min":83,"x_max":443,"o":"m 160 877 q 211 858 192 877 q 229 805 229 839 q 209 749 229 770 q 156 728 190 728 q 103 748 122 728 q 84 801 84 767 q 104 856 84 835 q 160 877 125 877 m 374 877 q 425 858 406 877 q 443 805 443 839 q 423 749 443 770 q 370 728 404 728 q 317 748 336 728 q 298 801 298 767 q 318 856 298 835 q 374 877 338 877 z "},"©":{"ha":953,"x_min":63,"x_max":889,"o":"m 475 831 q 692 778 599 831 q 838 629 786 725 q 889 407 889 533 q 838 185 889 281 q 692 36 786 89 q 475 -17 599 -17 q 259 36 353 -17 q 114 185 165 89 q 63 407 63 281 q 114 629 63 533 q 259 778 165 725 q 475 831 353 831 m 475 776 q 287 731 368 776 q 161 601 206 685 q 117 407 117 517 q 161 213 117 297 q 287 83 206 129 q 475 38 368 38 q 663 83 582 38 q 790 213 744 129 q 835 407 835 297 q 790 601 835 517 q 663 731 744 685 q 475 776 582 776 m 500 646 q 628 618 563 646 l 610 540 l 601 536 q 497 565 554 565 q 369 417 369 565 q 499 256 369 256 q 610 283 557 256 l 619 279 l 611 201 q 492 175 551 175 q 326 235 382 175 q 269 408 269 294 q 329 584 269 522 q 500 646 389 646 z "},"ª":{"ha":456,"x_min":42,"x_max":432,"o":"m 236 903 q 347 871 308 903 q 386 781 386 839 l 382 669 q 378 578 378 607 q 399 544 378 544 q 422 551 414 544 l 432 544 l 419 479 q 356 458 390 458 q 308 473 324 458 q 283 525 292 488 l 278 525 q 176 457 231 469 q 78 492 114 458 q 42 585 42 525 q 138 692 42 675 l 275 717 l 276 758 q 217 819 276 819 q 88 769 165 819 l 78 774 l 64 851 q 236 903 149 903 m 188 642 q 150 596 150 636 q 200 540 150 540 q 274 582 239 540 l 275 661 l 188 642 z "},"«":{"ha":571,"x_min":28,"x_max":535,"o":"m 28 326 l 224 569 l 290 532 l 293 517 l 132 315 l 293 114 l 290 99 l 224 61 l 28 300 l 28 326 m 269 326 l 465 569 l 532 532 l 535 517 l 374 315 l 535 114 l 532 99 l 465 61 l 269 300 l 269 326 z "},"¬":{"ha":667,"x_min":36,"x_max":593,"o":"m 593 78 l 507 71 l 496 81 l 496 317 l 46 317 l 36 326 l 44 414 l 585 414 l 593 404 l 593 78 z "},"­":{"ha":425,"x_min":39,"x_max":385,"o":"m 385 328 l 51 278 l 39 290 l 39 379 l 372 428 l 385 417 l 385 328 z "},"®":{"ha":614,"x_min":53,"x_max":563,"o":"m 307 975 q 492 906 422 975 q 563 721 563 836 q 492 535 563 606 q 307 465 422 465 q 123 535 193 465 q 53 721 53 606 q 123 906 53 836 q 307 975 193 975 m 308 506 q 463 565 404 506 q 522 721 522 624 q 463 876 522 818 q 308 935 404 935 q 153 876 211 935 q 94 721 94 818 q 153 565 94 624 q 308 506 211 506 m 413 783 q 360 701 413 731 q 431 607 393 650 l 429 601 q 374 590 411 593 l 367 594 q 311 688 338 638 l 267 688 l 267 682 l 269 594 l 213 594 l 214 675 l 213 865 l 321 865 q 389 844 365 865 q 413 783 413 822 m 315 731 q 354 779 354 746 q 301 822 354 819 l 269 821 l 268 733 l 315 731 z "},"¯":{"ha":540,"x_min":67,"x_max":475,"o":"m 468 804 l 76 804 l 67 815 l 74 896 l 465 896 l 475 886 l 468 804 z "},"°":{"ha":407,"x_min":26,"x_max":381,"o":"m 204 903 q 329 851 278 903 q 381 726 381 800 q 329 602 381 653 q 204 551 278 551 q 78 602 129 551 q 26 726 26 653 q 78 851 26 800 q 204 903 129 903 m 203 838 q 124 805 157 838 q 90 726 90 772 q 124 648 90 681 q 203 615 157 615 q 283 648 250 615 q 315 726 315 681 q 283 805 315 772 q 203 838 250 838 z "},"±":{"ha":667,"x_min":39,"x_max":628,"o":"m 382 414 l 618 414 l 628 404 l 621 317 l 382 317 l 382 78 l 296 71 l 285 81 l 285 317 l 49 317 l 39 326 l 46 414 l 285 414 l 285 653 l 372 661 l 382 650 l 382 414 m 621 -140 l 49 -140 l 39 -131 l 46 -43 l 618 -43 l 628 -53 l 621 -140 z "},"²":{"ha":492,"x_min":51,"x_max":457,"o":"m 250 981 q 362 947 318 981 q 406 856 406 914 q 379 768 406 815 q 290 644 353 721 l 208 540 l 211 538 l 361 538 l 453 542 l 457 533 l 444 440 l 325 444 l 94 444 l 57 443 l 51 447 l 51 518 l 185 669 q 262 767 239 733 q 285 829 285 801 q 268 868 285 853 q 221 883 251 883 q 152 865 188 883 q 88 815 117 847 l 74 815 l 54 906 q 250 981 154 981 z "},"³":{"ha":435,"x_min":36,"x_max":381,"o":"m 203 982 q 319 948 275 982 q 363 857 363 914 q 342 786 363 821 q 278 731 321 751 l 278 725 q 381 600 381 697 q 317 483 381 528 q 150 438 253 438 q 50 449 99 438 l 43 532 l 51 540 q 151 526 103 526 q 234 547 204 526 q 264 603 264 567 q 179 671 264 668 l 114 671 l 108 678 l 110 757 l 151 757 q 214 781 186 758 q 242 835 242 803 q 176 889 242 889 q 68 849 129 889 l 56 849 l 36 928 q 203 982 113 982 z "},"´":{"ha":540,"x_min":119,"x_max":424,"o":"m 424 907 l 421 893 q 169 721 311 813 l 156 722 l 119 778 q 357 983 265 896 l 371 982 l 424 907 z "},"µ":{"ha":715,"x_min":92,"x_max":688,"o":"m 672 21 q 583 -8 632 -8 q 517 13 542 -8 q 479 83 492 35 l 468 83 q 303 -8 390 11 q 225 6 257 -8 l 225 -257 l 92 -257 l 97 268 l 92 631 l 225 643 l 225 211 q 252 135 226 163 q 324 108 278 108 q 472 179 397 108 l 472 631 l 607 643 l 597 156 q 633 94 596 94 q 676 108 654 94 l 688 99 l 672 21 z "},"¶":{"ha":694,"x_min":46,"x_max":664,"o":"m 653 782 l 554 782 l 550 261 l 551 183 q 496 15 551 85 q 310 -112 440 -54 l 271 -47 l 271 -32 q 383 62 349 13 q 418 176 418 111 l 418 242 l 414 783 l 340 783 q 233 728 271 775 q 194 604 194 682 q 237 470 194 526 q 358 386 279 414 l 310 308 q 114 413 182 336 q 46 608 46 489 q 128 818 46 744 q 364 892 211 892 l 653 892 l 664 879 l 653 782 z "},"·":{"ha":318,"x_min":81,"x_max":235,"o":"m 161 424 q 215 403 196 424 q 235 347 235 383 q 214 288 235 310 q 157 265 193 265 q 101 286 121 265 q 81 343 81 307 q 102 401 81 379 q 161 424 124 424 z "},"¸":{"ha":540,"x_min":158,"x_max":386,"o":"m 331 -97 q 386 -176 386 -126 q 353 -247 386 -219 q 265 -274 319 -274 q 158 -232 206 -274 l 171 -167 l 178 -164 q 257 -207 218 -207 q 297 -172 297 -207 q 271 -142 297 -154 l 203 -101 l 236 31 l 311 31 l 283 -69 l 331 -97 z "},"¹":{"ha":368,"x_min":17,"x_max":253,"o":"m 249 633 l 253 444 l 132 444 l 135 619 l 135 850 l 26 822 l 17 828 l 17 922 l 236 982 l 253 968 l 249 633 z "},"º":{"ha":475,"x_min":39,"x_max":438,"o":"m 244 903 q 388 847 339 903 q 438 686 438 792 q 385 515 438 575 q 232 456 332 456 q 88 511 138 456 q 39 672 39 567 q 91 844 39 785 q 244 903 143 903 m 239 819 q 172 788 193 819 q 151 685 151 756 q 172 572 151 607 q 239 536 193 536 q 306 568 285 536 q 328 672 328 600 q 306 785 328 750 q 239 819 285 819 z "},"»":{"ha":564,"x_min":29,"x_max":535,"o":"m 535 306 l 339 63 l 272 100 l 269 115 l 431 317 l 269 518 l 272 533 l 339 571 l 535 332 l 535 306 m 294 306 l 99 63 l 32 100 l 29 115 l 190 317 l 29 518 l 32 533 l 99 571 l 294 332 l 294 306 z "},"¼":{"ha":1001,"x_min":17,"x_max":957,"o":"m 147 -126 l 85 -90 l 78 -72 l 729 946 l 789 910 l 797 889 l 147 -126 m 26 742 l 17 747 l 17 842 l 236 901 l 253 888 l 249 553 l 253 364 l 132 364 l 135 539 l 135 769 l 26 742 m 875 131 l 881 8 l 874 0 l 779 -4 l 772 1 l 775 132 l 625 132 l 546 128 l 538 139 l 538 213 l 764 531 l 875 531 l 872 219 l 950 219 l 957 210 l 951 128 l 875 131 m 776 219 l 776 400 l 768 400 l 642 219 l 776 219 z "},"½":{"ha":1028,"x_min":17,"x_max":993,"o":"m 797 889 l 147 -126 l 85 -90 l 78 -72 l 729 946 l 789 910 l 797 889 m 249 553 l 253 364 l 132 364 l 135 539 l 135 769 l 26 742 l 17 747 l 17 842 l 236 901 l 253 888 l 249 553 m 786 536 q 898 503 854 536 q 942 411 942 469 q 915 324 942 371 q 826 200 889 276 l 744 96 l 747 93 l 897 93 l 989 97 l 993 89 l 981 -4 l 861 0 l 631 0 l 593 -1 l 588 3 l 588 74 l 721 225 q 798 323 775 289 q 821 385 821 357 q 804 424 821 408 q 757 439 788 439 q 688 421 724 439 q 624 371 653 403 l 610 371 l 590 461 q 786 536 690 536 z "},"¾":{"ha":1054,"x_min":36,"x_max":1010,"o":"m 200 -126 l 138 -90 l 131 -72 l 782 946 l 842 910 l 850 889 l 200 -126 m 381 519 q 317 402 381 447 q 150 357 253 357 q 50 368 99 357 l 43 451 l 51 460 q 151 446 103 446 q 234 466 204 446 q 264 522 264 486 q 179 590 264 588 l 114 590 l 108 597 l 110 676 l 151 676 q 214 700 186 678 q 242 754 242 722 q 176 808 242 808 q 68 768 129 808 l 56 768 l 36 847 q 203 901 114 901 q 319 867 275 901 q 363 776 363 833 q 342 706 363 740 q 278 650 321 671 l 278 644 q 381 519 381 617 m 928 131 l 933 8 l 926 0 l 832 -4 l 825 1 l 828 132 l 678 132 l 599 128 l 590 139 l 590 213 l 817 531 l 928 531 l 925 219 l 1003 219 l 1010 210 l 1004 128 l 928 131 m 829 219 l 829 400 l 821 400 l 694 219 l 829 219 z "},"¿":{"ha":465,"x_min":-8,"x_max":394,"o":"m 353 -276 q 85 -210 179 -267 q -8 -56 -8 -153 q 113 132 -8 58 l 221 201 l 224 207 l 215 335 l 315 347 l 326 336 l 338 174 l 331 160 l 201 88 q 119 -33 119 40 q 385 -176 119 -161 l 394 -190 l 368 -269 l 353 -276 m 261 496 q 206 516 226 496 q 186 572 186 536 q 208 632 186 610 q 265 654 229 654 q 321 633 301 654 q 340 576 340 613 q 319 518 340 540 q 261 496 297 496 z "},"À":{"ha":815,"x_min":15,"x_max":788,"o":"m 535 1000 q 253 1114 344 1074 l 247 1128 l 285 1213 l 299 1215 q 574 1067 393 1160 l 550 1006 l 535 1000 m 642 0 l 621 100 l 582 224 l 393 228 l 221 224 l 181 107 l 158 0 l 15 0 l 332 892 l 501 892 l 788 0 l 642 0 m 418 751 l 407 751 l 263 340 l 404 338 l 546 340 l 418 751 z "},"Á":{"ha":815,"x_min":15,"x_max":789,"o":"m 642 0 l 621 100 l 582 224 l 393 228 l 222 224 l 181 107 l 158 0 l 15 0 l 333 892 l 501 892 l 789 0 l 642 0 m 418 751 l 408 751 l 263 340 l 403 338 l 546 340 l 418 751 m 608 1126 l 603 1113 q 321 999 511 1072 l 306 1004 l 282 1065 q 557 1214 463 1158 l 571 1211 l 608 1126 z "},"Â":{"ha":815,"x_min":15,"x_max":788,"o":"m 221 1075 q 393 1208 313 1136 l 426 1208 q 599 1075 501 1142 l 572 1015 l 557 1015 l 532 1031 q 410 1107 425 1097 q 264 1015 371 1081 l 249 1015 l 221 1075 m 642 0 l 621 100 l 582 224 l 393 228 l 221 224 l 181 107 l 158 0 l 15 0 l 332 892 l 501 892 l 788 0 l 642 0 m 418 751 l 407 751 l 263 340 l 404 338 l 546 340 l 418 751 z "},"Ã":{"ha":815,"x_min":15,"x_max":789,"o":"m 642 0 l 621 100 l 582 224 l 393 228 l 222 224 l 181 107 l 158 0 l 15 0 l 333 892 l 501 892 l 789 0 l 642 0 m 418 751 l 408 751 l 263 340 l 403 338 l 546 340 l 418 751 m 638 1142 l 547 1035 l 533 1028 q 421 1056 508 1032 q 318 1079 339 1079 q 257 1033 299 1079 l 236 1011 l 222 1011 l 179 1056 l 179 1068 l 269 1175 l 285 1181 q 399 1154 322 1175 q 500 1131 481 1131 q 528 1142 514 1131 q 558 1172 542 1154 q 582 1199 575 1190 l 596 1199 l 638 1154 l 638 1142 z "},"Ä":{"ha":815,"x_min":15,"x_max":788,"o":"m 294 1028 q 224 1100 224 1028 q 244 1155 224 1135 q 299 1175 264 1175 q 350 1156 332 1175 q 368 1104 368 1138 q 349 1048 368 1068 q 294 1028 329 1028 m 522 1028 q 451 1100 451 1028 q 472 1155 451 1135 q 526 1175 492 1175 q 578 1156 560 1175 q 596 1104 596 1138 q 576 1048 596 1068 q 522 1028 557 1028 m 642 0 l 621 100 l 582 224 l 393 228 l 221 224 l 181 107 l 158 0 l 15 0 l 332 892 l 501 892 l 788 0 l 642 0 m 418 751 l 407 751 l 263 340 l 404 338 l 546 340 l 418 751 z "},"Å":{"ha":815,"x_min":15,"x_max":789,"o":"m 642 0 l 621 100 l 582 224 l 393 228 l 222 224 l 181 107 l 158 0 l 15 0 l 333 892 l 501 892 l 789 0 l 642 0 m 418 751 l 408 751 l 263 340 l 403 338 l 546 340 l 418 751 m 410 1235 q 500 1203 468 1235 q 532 1117 532 1171 q 497 1024 532 1057 q 406 992 463 992 q 317 1024 350 992 q 285 1113 285 1056 q 317 1202 285 1169 q 410 1235 350 1235 m 407 1171 q 349 1115 349 1171 q 408 1054 349 1054 q 468 1113 468 1054 q 407 1171 468 1171 z "},"Æ":{"ha":1131,"x_min":-24,"x_max":1113,"o":"m 1101 0 l 594 0 l 588 100 l 554 339 l 239 261 l 160 107 l 122 0 l -24 0 l 429 892 l 988 892 l 996 879 l 985 769 l 763 776 l 635 776 l 675 481 l 961 546 l 972 536 l 982 435 l 689 371 l 724 114 l 875 114 l 1103 122 l 1113 110 l 1101 0 m 497 751 l 488 751 l 306 393 l 539 449 l 497 751 z "},"Ç":{"ha":721,"x_min":47,"x_max":694,"o":"m 449 110 q 671 186 571 110 l 685 178 l 674 47 q 467 -10 569 -4 l 450 -69 l 497 -97 q 553 -176 553 -126 q 519 -247 553 -219 q 432 -274 486 -274 q 325 -232 372 -274 l 338 -167 l 344 -164 q 424 -207 385 -207 q 464 -172 464 -207 q 438 -142 464 -154 l 369 -101 l 393 -10 q 137 121 226 6 q 47 438 47 236 q 153 781 47 660 q 454 901 260 901 q 694 840 590 901 l 668 714 l 654 710 q 449 782 561 782 q 262 699 326 782 q 197 453 197 617 q 263 197 197 285 q 449 110 328 110 z "},"È":{"ha":685,"x_min":119,"x_max":657,"o":"m 511 1000 q 229 1114 321 1074 l 224 1128 l 261 1213 l 275 1215 q 550 1067 369 1160 l 526 1006 l 511 1000 m 656 110 l 646 0 l 119 0 l 129 268 l 119 892 l 649 892 l 657 879 l 646 769 l 435 775 l 265 774 l 261 514 l 422 511 l 569 515 l 579 504 l 568 394 l 411 399 l 260 396 l 258 281 l 261 117 l 432 115 l 647 122 l 656 110 z "},"É":{"ha":685,"x_min":119,"x_max":657,"o":"m 656 110 l 646 0 l 119 0 l 129 268 l 119 892 l 649 892 l 657 879 l 646 769 l 435 775 l 265 774 l 261 514 l 422 511 l 569 515 l 579 504 l 568 394 l 411 399 l 260 396 l 258 281 l 263 117 l 432 115 l 647 122 l 656 110 m 585 1126 l 579 1113 q 297 999 488 1072 l 282 1004 l 258 1065 q 533 1214 439 1158 l 547 1211 l 585 1126 z "},"Ê":{"ha":685,"x_min":119,"x_max":657,"o":"m 197 1075 q 369 1208 289 1136 l 403 1208 q 575 1075 478 1142 l 549 1015 l 533 1015 l 508 1031 q 386 1107 401 1097 q 240 1015 347 1081 l 225 1015 l 197 1075 m 656 110 l 646 0 l 119 0 l 129 268 l 119 892 l 649 892 l 657 879 l 646 769 l 435 775 l 265 774 l 261 514 l 422 511 l 569 515 l 579 504 l 568 394 l 411 399 l 260 396 l 258 281 l 261 117 l 432 115 l 647 122 l 656 110 z "},"Ë":{"ha":685,"x_min":119,"x_max":657,"o":"m 271 1028 q 200 1100 200 1028 q 220 1155 200 1135 q 275 1175 240 1175 q 326 1156 308 1175 q 344 1104 344 1138 q 325 1048 344 1068 q 271 1028 306 1028 m 499 1028 q 428 1100 428 1028 q 448 1155 428 1135 q 503 1175 468 1175 q 554 1156 536 1175 q 572 1104 572 1138 q 553 1048 572 1068 q 499 1028 533 1028 m 656 110 l 646 0 l 119 0 l 129 268 l 119 892 l 649 892 l 657 879 l 646 769 l 435 775 l 265 774 l 261 514 l 422 511 l 569 515 l 579 504 l 568 394 l 411 399 l 260 396 l 258 281 l 261 117 l 432 115 l 647 122 l 656 110 z "},"Ì":{"ha":388,"x_min":31,"x_max":357,"o":"m 82 1215 q 357 1067 176 1160 l 333 1006 l 318 1000 q 36 1114 128 1074 l 31 1128 l 68 1213 l 82 1215 m 264 0 l 119 0 l 129 268 l 119 892 l 267 892 l 258 281 l 264 0 z "},"Í":{"ha":388,"x_min":65,"x_max":392,"o":"m 265 0 l 119 0 l 129 268 l 119 892 l 267 892 l 258 281 l 265 0 m 392 1126 l 386 1113 q 104 999 294 1072 l 89 1004 l 65 1065 q 340 1214 246 1158 l 354 1211 l 392 1126 z "},"Î":{"ha":388,"x_min":4,"x_max":382,"o":"m 4 1075 q 176 1208 96 1136 l 210 1208 q 382 1075 285 1142 l 356 1015 l 340 1015 l 315 1031 q 193 1107 208 1097 q 47 1015 154 1081 l 32 1015 l 4 1075 m 264 0 l 119 0 l 129 268 l 119 892 l 267 892 l 258 281 l 264 0 z "},"Ï":{"ha":388,"x_min":25,"x_max":361,"o":"m 100 1175 q 151 1156 133 1175 q 169 1104 169 1138 q 150 1048 169 1068 q 96 1028 131 1028 q 25 1100 25 1028 q 45 1155 25 1135 q 100 1175 65 1175 m 292 1175 q 343 1156 325 1175 q 361 1104 361 1138 q 342 1048 361 1068 q 288 1028 322 1028 q 217 1100 217 1028 q 237 1155 217 1135 q 292 1175 257 1175 m 264 0 l 119 0 l 129 268 l 119 892 l 267 892 l 258 281 l 264 0 z "},"Ð":{"ha":935,"x_min":18,"x_max":888,"o":"m 490 897 q 785 789 682 897 q 888 478 888 681 q 775 117 888 243 q 453 -8 663 -8 q 153 0 319 -8 l 161 268 l 160 399 l 25 399 l 18 410 l 24 497 l 158 497 l 153 892 l 490 897 m 476 106 q 672 190 604 106 q 739 446 739 275 q 674 699 739 618 q 479 781 610 781 q 297 775 403 781 l 293 497 l 479 497 l 486 486 l 481 399 l 292 399 l 290 281 l 294 115 q 476 106 404 106 z "},"Ñ":{"ha":956,"x_min":119,"x_max":836,"o":"m 832 0 l 678 0 l 260 668 l 249 668 l 247 299 l 254 0 l 119 0 l 129 264 l 122 892 l 275 892 l 694 224 l 706 224 l 701 885 l 836 894 l 826 267 l 832 0 m 703 1142 l 613 1035 l 599 1028 q 486 1056 574 1032 q 383 1079 404 1079 q 322 1033 364 1079 l 301 1011 l 288 1011 l 244 1056 l 244 1068 l 335 1175 l 350 1181 q 464 1154 388 1175 q 565 1131 546 1131 q 593 1142 579 1131 q 624 1172 607 1154 q 647 1199 640 1190 l 661 1199 l 703 1154 l 703 1142 z "},"Ò":{"ha":888,"x_min":47,"x_max":840,"o":"m 333 1215 q 608 1067 428 1160 l 585 1006 l 569 1000 q 288 1114 379 1074 l 282 1128 l 319 1213 l 333 1215 m 457 903 q 741 789 642 903 q 840 464 840 675 q 734 112 840 236 q 431 -12 628 -12 q 147 105 247 -12 q 47 438 47 222 q 153 782 47 661 q 457 903 260 903 m 443 785 q 255 705 315 785 q 194 456 194 625 q 255 188 194 274 q 442 103 315 103 q 630 185 568 103 q 692 438 692 267 q 631 701 692 618 q 443 785 571 785 z "},"Ó":{"ha":888,"x_min":47,"x_max":840,"o":"m 457 903 q 741 789 642 903 q 840 464 840 675 q 733 112 840 236 q 431 -12 626 -12 q 147 105 247 -12 q 47 438 47 222 q 153 782 47 661 q 457 903 260 903 m 444 785 q 256 705 317 785 q 194 456 194 625 q 255 188 194 274 q 442 103 315 103 q 630 184 568 103 q 692 438 692 265 q 631 701 692 618 q 444 785 571 785 m 643 1126 l 638 1113 q 356 999 546 1072 l 340 1004 l 317 1065 q 592 1214 497 1158 l 606 1211 l 643 1126 z "},"Ô":{"ha":888,"x_min":47,"x_max":840,"o":"m 256 1075 q 428 1208 347 1136 l 461 1208 q 633 1075 536 1142 l 607 1015 l 592 1015 l 567 1031 q 444 1107 460 1097 q 299 1015 406 1081 l 283 1015 l 256 1075 m 457 903 q 741 789 642 903 q 840 464 840 675 q 734 112 840 236 q 431 -12 628 -12 q 147 105 247 -12 q 47 438 47 222 q 153 782 47 661 q 457 903 260 903 m 443 785 q 255 705 315 785 q 194 456 194 625 q 255 188 194 274 q 442 103 315 103 q 630 185 568 103 q 692 438 692 267 q 631 701 692 618 q 443 785 571 785 z "},"Õ":{"ha":888,"x_min":47,"x_max":840,"o":"m 457 903 q 741 789 642 903 q 840 464 840 675 q 733 112 840 236 q 431 -12 626 -12 q 147 105 247 -12 q 47 438 47 222 q 153 782 47 661 q 457 903 260 903 m 444 785 q 256 705 317 785 q 194 456 194 625 q 255 188 194 274 q 442 103 315 103 q 630 184 568 103 q 692 438 692 265 q 631 701 692 618 q 444 785 571 785 m 672 1142 l 582 1035 l 568 1028 q 456 1056 543 1032 q 353 1079 374 1079 q 292 1033 333 1079 l 271 1011 l 257 1011 l 214 1056 l 214 1068 l 304 1175 l 319 1181 q 433 1154 357 1175 q 535 1131 515 1131 q 563 1142 549 1131 q 593 1172 576 1154 q 617 1199 610 1190 l 631 1199 l 672 1154 l 672 1142 z "},"Ö":{"ha":888,"x_min":47,"x_max":840,"o":"m 333 1175 q 385 1156 367 1175 q 403 1104 403 1138 q 383 1048 403 1068 q 329 1028 364 1028 q 258 1100 258 1028 q 278 1155 258 1135 q 333 1175 299 1175 m 561 1175 q 613 1156 594 1175 q 631 1104 631 1138 q 611 1048 631 1068 q 557 1028 592 1028 q 486 1100 486 1028 q 506 1155 486 1135 q 561 1175 526 1175 m 457 903 q 741 789 642 903 q 840 464 840 675 q 734 112 840 236 q 431 -12 628 -12 q 147 105 247 -12 q 47 438 47 222 q 153 782 47 661 q 457 903 260 903 m 443 785 q 255 705 315 785 q 194 456 194 625 q 255 188 194 274 q 442 103 315 103 q 630 185 568 103 q 692 438 692 267 q 631 701 692 618 q 443 785 571 785 z "},"×":{"ha":667,"x_min":97,"x_max":569,"o":"m 569 532 l 403 365 l 569 199 l 569 185 l 503 128 l 333 296 l 164 126 l 97 185 l 97 197 l 265 365 l 97 532 l 97 547 l 164 603 l 333 435 l 503 603 l 569 547 l 569 532 z "},"Ø":{"ha":888,"x_min":47,"x_max":840,"o":"m 683 840 q 840 464 840 731 q 734 112 840 236 q 431 -12 628 -12 q 290 8 353 -12 l 215 -151 l 133 -118 l 126 -106 l 201 54 q 47 438 47 168 q 153 782 47 661 q 457 903 260 903 q 592 885 526 903 l 651 1013 l 732 981 l 742 965 l 683 840 m 194 456 q 261 181 194 267 l 538 771 q 443 785 497 785 q 255 705 315 785 q 194 456 194 625 m 442 103 q 630 185 568 103 q 692 438 692 267 q 622 713 692 631 l 343 119 q 442 103 385 103 z "},"Ù":{"ha":876,"x_min":99,"x_max":785,"o":"m 333 1215 q 608 1067 428 1160 l 585 1006 l 569 1000 q 288 1114 379 1074 l 282 1128 l 319 1213 l 333 1215 m 779 333 q 690 79 782 169 q 429 -11 599 -11 q 182 76 268 -11 q 99 322 96 163 l 100 446 l 99 892 l 240 892 l 235 342 q 439 111 233 111 q 647 328 649 111 l 640 892 l 785 892 l 781 439 l 779 333 z "},"Ú":{"ha":876,"x_min":99,"x_max":785,"o":"m 779 333 q 690 79 782 169 q 431 -11 599 -11 q 182 76 268 -11 q 99 322 96 163 l 101 446 l 99 892 l 240 892 l 235 342 q 440 111 233 111 q 647 328 649 111 l 640 892 l 785 892 l 781 439 l 779 333 m 640 1126 l 635 1113 q 353 999 543 1072 l 338 1004 l 314 1065 q 589 1214 494 1158 l 603 1211 l 640 1126 z "},"Û":{"ha":876,"x_min":99,"x_max":785,"o":"m 256 1075 q 428 1208 347 1136 l 461 1208 q 633 1075 536 1142 l 607 1015 l 592 1015 l 567 1031 q 444 1107 460 1097 q 299 1015 406 1081 l 283 1015 l 256 1075 m 779 333 q 690 79 782 169 q 429 -11 599 -11 q 182 76 268 -11 q 99 322 96 163 l 100 446 l 99 892 l 240 892 l 235 342 q 439 111 233 111 q 647 328 649 111 l 640 892 l 785 892 l 781 439 l 779 333 z "},"Ü":{"ha":876,"x_min":99,"x_max":785,"o":"m 333 1175 q 385 1156 367 1175 q 403 1104 403 1138 q 383 1048 403 1068 q 329 1028 364 1028 q 258 1100 258 1028 q 278 1155 258 1135 q 333 1175 299 1175 m 561 1175 q 613 1156 594 1175 q 631 1104 631 1138 q 611 1048 631 1068 q 557 1028 592 1028 q 486 1100 486 1028 q 506 1155 486 1135 q 561 1175 526 1175 m 779 333 q 690 79 782 169 q 429 -11 599 -11 q 182 76 268 -11 q 99 322 96 163 l 100 446 l 99 892 l 240 892 l 235 342 q 439 111 233 111 q 647 328 649 111 l 640 892 l 785 892 l 781 439 l 779 333 z "},"Ý":{"ha":751,"x_min":15,"x_max":742,"o":"m 436 0 l 292 0 l 300 256 l 299 313 l 15 892 l 168 892 l 186 836 l 363 463 l 375 463 l 569 833 l 592 892 l 742 892 l 431 311 l 429 256 l 436 0 m 568 1126 l 563 1113 q 281 999 471 1072 l 265 1004 l 242 1065 q 517 1214 422 1158 l 531 1211 l 568 1126 z "},"Þ":{"ha":750,"x_min":121,"x_max":708,"o":"m 426 744 q 635 676 563 744 q 708 476 708 608 q 618 240 708 324 q 361 157 528 157 l 263 154 l 265 0 l 121 0 l 128 268 l 122 743 l 121 892 l 267 892 l 265 743 l 426 744 m 400 267 q 558 467 558 299 q 515 589 558 549 q 386 633 472 629 l 264 629 l 260 281 l 260 271 l 400 267 z "},"ß":{"ha":792,"x_min":93,"x_max":747,"o":"m 404 704 q 540 688 474 704 q 689 633 606 671 l 694 614 l 524 408 q 696 312 644 360 q 747 189 747 264 q 678 42 747 94 q 504 -10 608 -10 q 303 36 394 -10 l 318 165 l 331 172 q 415 118 369 138 q 496 99 460 99 q 573 124 543 99 q 603 190 603 150 q 548 271 603 238 q 364 343 493 304 l 360 364 l 525 561 q 392 597 457 597 q 268 560 311 597 q 225 450 225 522 l 222 221 l 228 0 l 93 0 l 99 204 l 97 450 q 178 635 97 567 q 404 704 258 704 z "},"à":{"ha":721,"x_min":29,"x_max":679,"o":"m 469 776 q 218 949 328 868 l 215 963 l 268 1038 l 282 1039 q 519 833 374 951 l 483 778 l 469 776 m 543 0 l 526 86 l 501 163 l 344 164 l 207 163 l 181 93 l 160 0 l 29 0 l 288 696 l 443 696 l 679 0 l 543 0 m 367 571 l 358 571 l 246 267 l 354 265 l 467 267 l 367 571 z "},"á":{"ha":721,"x_min":29,"x_max":679,"o":"m 544 0 l 526 86 l 501 163 l 346 164 l 207 163 l 181 93 l 161 0 l 29 0 l 289 696 l 444 696 l 679 0 l 544 0 m 368 571 l 358 571 l 246 267 l 356 265 l 467 267 l 368 571 m 557 963 l 554 949 q 303 776 444 868 l 289 778 l 253 833 q 490 1039 399 951 l 504 1038 l 557 963 z "},"â":{"ha":721,"x_min":29,"x_max":679,"o":"m 171 839 q 351 1029 250 914 l 388 1029 q 567 839 488 914 l 529 783 l 515 783 q 369 922 419 867 q 224 783 321 871 l 208 783 l 171 839 m 543 0 l 526 86 l 501 163 l 344 164 l 207 163 l 181 93 l 160 0 l 29 0 l 288 696 l 443 696 l 679 0 l 543 0 m 367 571 l 358 571 l 246 267 l 354 265 l 467 267 l 367 571 z "},"ã":{"ha":721,"x_min":29,"x_max":679,"o":"m 544 0 l 526 86 l 501 163 l 346 164 l 207 163 l 181 93 l 161 0 l 29 0 l 289 696 l 444 696 l 679 0 l 544 0 m 368 571 l 358 571 l 246 267 l 356 265 l 467 267 l 368 571 m 596 946 l 506 839 l 492 832 q 379 860 467 836 q 276 883 297 883 q 215 838 257 883 l 194 815 l 181 815 l 138 860 l 138 872 l 228 979 l 243 985 q 357 958 281 979 q 458 935 439 935 q 486 947 472 935 q 517 976 500 958 q 540 1003 533 994 l 554 1003 l 596 958 l 596 946 z "},"ä":{"ha":721,"x_min":29,"x_max":679,"o":"m 253 832 q 182 904 182 832 q 202 959 182 939 q 257 979 222 979 q 308 960 290 979 q 326 908 326 942 q 307 852 326 872 q 253 832 288 832 m 481 832 q 410 904 410 832 q 430 959 410 939 q 485 979 450 979 q 536 960 518 979 q 554 908 554 942 q 535 852 554 872 q 481 832 515 832 m 543 0 l 526 86 l 501 163 l 344 164 l 207 163 l 181 93 l 160 0 l 29 0 l 288 696 l 443 696 l 679 0 l 543 0 m 367 571 l 358 571 l 246 267 l 354 265 l 467 267 l 367 571 z "},"å":{"ha":721,"x_min":29,"x_max":679,"o":"m 544 0 l 526 86 l 501 163 l 346 164 l 207 163 l 181 93 l 161 0 l 29 0 l 289 696 l 444 696 l 679 0 l 544 0 m 368 571 l 358 571 l 246 267 l 356 265 l 467 267 l 368 571 m 368 1039 q 458 1007 426 1039 q 490 921 490 975 q 456 828 490 861 q 364 796 421 796 q 276 828 308 796 q 243 917 243 860 q 276 1006 243 974 q 368 1039 308 1039 m 365 975 q 307 919 307 975 q 367 858 307 858 q 426 917 426 858 q 365 975 426 975 z "},"æ":{"ha":978,"x_min":-1,"x_max":949,"o":"m 939 0 l 511 0 l 506 83 l 482 247 l 207 181 l 157 90 l 126 0 l -1 0 l 374 696 l 846 696 l 854 685 l 843 586 l 660 594 l 554 594 l 586 376 l 824 431 l 833 424 l 842 324 l 601 275 l 626 104 l 750 104 l 940 111 l 949 101 l 939 0 m 433 574 l 424 574 l 274 303 l 467 347 l 433 574 z "},"ç":{"ha":636,"x_min":56,"x_max":599,"o":"m 392 101 q 574 158 492 101 l 588 151 l 576 33 q 407 -10 493 -6 l 390 -69 l 438 -97 q 493 -176 493 -126 q 460 -247 493 -219 q 372 -274 426 -274 q 265 -232 313 -274 l 278 -167 l 285 -164 q 364 -207 325 -207 q 404 -172 404 -207 q 378 -142 404 -154 l 310 -101 l 333 -7 q 127 98 199 8 q 56 343 56 188 q 145 610 56 517 q 400 704 235 704 q 599 660 514 704 l 574 542 l 561 538 q 388 594 489 594 q 196 356 196 594 q 246 166 196 231 q 392 101 296 101 z "},"è":{"ha":617,"x_min":115,"x_max":574,"o":"m 442 776 q 190 949 300 868 l 188 963 l 240 1038 l 254 1039 q 492 833 346 951 l 456 778 l 442 776 m 572 101 l 563 0 l 115 0 l 121 208 l 115 696 l 565 696 l 574 685 l 564 583 l 388 590 l 249 589 l 246 408 l 379 407 l 500 411 l 508 400 l 499 297 l 368 301 l 244 300 l 243 221 l 246 107 l 376 106 l 564 111 l 572 101 z "},"é":{"ha":617,"x_min":115,"x_max":574,"o":"m 572 101 l 561 0 l 115 0 l 121 208 l 115 696 l 565 696 l 574 685 l 564 583 l 388 590 l 249 589 l 246 408 l 379 407 l 500 411 l 507 400 l 499 297 l 368 301 l 244 300 l 243 221 l 246 107 l 375 106 l 563 111 l 572 101 m 529 963 l 526 949 q 275 776 417 868 l 261 778 l 225 833 q 463 1039 371 951 l 476 1038 l 529 963 z "},"ê":{"ha":617,"x_min":115,"x_max":574,"o":"m 143 839 q 324 1029 222 914 l 360 1029 q 539 839 460 914 l 501 783 l 488 783 q 342 922 392 867 q 196 783 293 871 l 181 783 l 143 839 m 572 101 l 563 0 l 115 0 l 121 208 l 115 696 l 565 696 l 574 685 l 564 583 l 388 590 l 249 589 l 246 408 l 379 407 l 500 411 l 508 400 l 499 297 l 368 301 l 244 300 l 243 221 l 246 107 l 376 106 l 564 111 l 572 101 z "},"ë":{"ha":617,"x_min":115,"x_max":574,"o":"m 225 832 q 154 904 154 832 q 174 959 154 939 q 229 979 194 979 q 281 960 263 979 q 299 908 299 942 q 279 852 299 872 q 225 832 260 832 m 453 832 q 382 904 382 832 q 402 959 382 939 q 457 979 422 979 q 508 960 490 979 q 526 908 526 942 q 507 852 526 872 q 453 832 488 832 m 572 101 l 563 0 l 115 0 l 121 208 l 115 696 l 565 696 l 574 685 l 564 583 l 388 590 l 249 589 l 246 408 l 379 407 l 500 411 l 508 400 l 499 297 l 368 301 l 244 300 l 243 221 l 246 107 l 376 106 l 564 111 l 572 101 z "},"ì":{"ha":371,"x_min":35,"x_max":339,"o":"m 101 1039 q 339 833 193 951 l 303 778 l 289 776 q 38 949 147 868 l 35 963 l 88 1038 l 101 1039 m 249 0 l 115 0 l 121 208 l 115 696 l 250 696 l 243 221 l 249 0 z "},"í":{"ha":371,"x_min":72,"x_max":376,"o":"m 249 0 l 115 0 l 121 208 l 115 696 l 250 696 l 243 221 l 249 0 m 376 963 l 374 949 q 122 776 264 868 l 108 778 l 72 833 q 310 1039 218 951 l 324 1038 l 376 963 z "},"î":{"ha":371,"x_min":-10,"x_max":386,"o":"m -10 839 q 171 1029 69 914 l 207 1029 q 386 839 307 914 l 349 783 l 335 783 q 189 922 239 867 q 43 783 140 871 l 28 783 l -10 839 m 249 0 l 115 0 l 121 208 l 115 696 l 250 696 l 243 221 l 249 0 z "},"ï":{"ha":371,"x_min":19,"x_max":356,"o":"m 94 979 q 146 960 128 979 q 164 908 164 942 q 144 852 164 872 q 90 832 125 832 q 19 904 19 832 q 40 959 19 939 q 94 979 60 979 m 286 979 q 338 960 319 979 q 356 908 356 942 q 336 852 356 872 q 282 832 317 832 q 211 904 211 832 q 231 959 211 939 q 286 979 251 979 m 249 0 l 115 0 l 121 208 l 115 696 l 250 696 l 243 221 l 249 0 z "},"ð":{"ha":818,"x_min":24,"x_max":760,"o":"m 428 701 q 674 616 588 701 q 760 374 760 531 q 665 91 760 189 q 394 -7 571 -7 q 142 0 263 -7 l 147 208 l 146 299 l 32 299 l 24 308 l 29 389 l 146 389 l 142 696 l 428 701 m 417 97 q 622 343 622 97 q 572 531 622 472 q 418 590 522 590 q 275 585 332 590 l 272 389 l 436 389 l 443 378 l 438 299 l 271 299 l 269 221 l 272 107 q 417 97 376 97 z "},"ñ":{"ha":833,"x_min":115,"x_max":718,"o":"m 715 0 l 571 0 l 242 489 l 233 489 l 232 236 l 236 0 l 115 0 l 121 204 l 117 696 l 258 696 l 588 207 l 599 207 l 594 692 l 718 699 l 711 213 l 715 0 m 643 946 l 553 839 l 539 832 q 426 860 514 836 q 324 883 344 883 q 263 838 304 883 l 242 815 l 228 815 l 185 860 l 185 872 l 275 979 l 290 985 q 404 958 328 979 q 506 935 486 935 q 533 947 519 935 q 564 976 547 958 q 588 1003 581 994 l 601 1003 l 643 958 l 643 946 z "},"ò":{"ha":775,"x_min":56,"x_max":721,"o":"m 304 1039 q 542 833 396 951 l 506 778 l 492 776 q 240 949 350 868 l 238 963 l 290 1038 l 304 1039 m 400 706 q 637 616 553 706 q 721 364 721 526 q 631 86 721 183 q 376 -11 542 -11 q 139 81 222 -11 q 56 340 56 172 q 145 610 56 515 q 400 706 235 706 m 388 596 q 241 540 288 596 q 194 357 194 483 q 240 158 194 218 q 386 97 286 97 q 535 153 488 97 q 582 338 582 210 q 536 536 582 476 q 388 596 490 596 z "},"ó":{"ha":775,"x_min":56,"x_max":721,"o":"m 400 706 q 637 616 553 706 q 721 364 721 526 q 631 86 721 183 q 376 -11 542 -11 q 139 81 222 -11 q 56 340 56 172 q 145 610 56 515 q 400 706 235 706 m 388 596 q 241 540 288 596 q 194 357 194 483 q 240 157 194 217 q 386 97 286 97 q 535 153 488 97 q 582 338 582 210 q 536 536 582 476 q 388 596 490 596 m 579 963 l 576 949 q 325 776 467 868 l 311 778 l 275 833 q 513 1039 421 951 l 526 1038 l 579 963 z "},"ô":{"ha":775,"x_min":56,"x_max":721,"o":"m 193 839 q 374 1029 272 914 l 410 1029 q 589 839 510 914 l 551 783 l 538 783 q 392 922 442 867 q 246 783 343 871 l 231 783 l 193 839 m 400 706 q 637 616 553 706 q 721 364 721 526 q 631 86 721 183 q 376 -11 542 -11 q 139 81 222 -11 q 56 340 56 172 q 145 610 56 515 q 400 706 235 706 m 388 596 q 241 540 288 596 q 194 357 194 483 q 240 158 194 218 q 386 97 286 97 q 535 153 488 97 q 582 338 582 210 q 536 536 582 476 q 388 596 490 596 z "},"õ":{"ha":775,"x_min":56,"x_max":721,"o":"m 400 706 q 637 616 553 706 q 721 364 721 526 q 631 86 721 183 q 376 -11 542 -11 q 139 81 222 -11 q 56 340 56 172 q 145 610 56 515 q 400 706 235 706 m 388 596 q 241 540 288 596 q 194 357 194 483 q 240 157 194 217 q 386 97 286 97 q 535 153 488 97 q 582 338 582 210 q 536 536 582 476 q 388 596 490 596 m 618 946 l 528 839 l 514 832 q 401 860 489 836 q 299 883 319 883 q 238 838 279 883 l 217 815 l 203 815 l 160 860 l 160 872 l 250 979 l 265 985 q 379 958 303 979 q 481 935 461 935 q 508 947 494 935 q 539 976 522 958 q 563 1003 556 994 l 576 1003 l 618 958 l 618 946 z "},"ö":{"ha":775,"x_min":56,"x_max":721,"o":"m 279 979 q 331 960 313 979 q 349 908 349 942 q 329 852 349 872 q 275 832 310 832 q 204 904 204 832 q 224 959 204 939 q 279 979 244 979 m 507 979 q 558 960 540 979 q 576 908 576 942 q 557 852 576 872 q 503 832 538 832 q 432 904 432 832 q 452 959 432 939 q 507 979 472 979 m 400 706 q 637 616 553 706 q 721 364 721 526 q 631 86 721 183 q 376 -11 542 -11 q 139 81 222 -11 q 56 340 56 172 q 145 610 56 515 q 400 706 235 706 m 388 596 q 241 540 288 596 q 194 357 194 483 q 240 158 194 218 q 386 97 286 97 q 535 153 488 97 q 582 338 582 210 q 536 536 582 476 q 388 596 490 596 z "},"÷":{"ha":667,"x_min":50,"x_max":639,"o":"m 632 317 l 60 317 l 50 326 l 57 414 l 629 414 l 639 404 l 632 317 m 341 194 q 390 176 373 194 q 408 124 408 157 q 389 70 408 90 q 337 49 370 49 q 285 68 304 49 q 267 121 267 87 q 287 174 267 154 q 341 194 306 194 m 341 635 q 390 616 373 635 q 408 565 408 598 q 389 510 408 530 q 337 490 370 490 q 285 509 304 490 q 267 561 267 528 q 287 614 267 594 q 341 635 306 635 z "},"ø":{"ha":775,"x_min":56,"x_max":721,"o":"m 599 650 q 721 364 721 563 q 631 86 721 183 q 376 -11 542 -11 q 264 4 317 -11 l 186 -144 l 111 -107 l 107 -93 l 179 44 q 56 340 56 133 q 145 610 56 515 q 400 706 235 706 q 517 689 465 706 l 574 799 l 643 763 l 650 749 l 599 650 m 194 357 q 239 160 194 221 l 463 586 q 388 596 432 596 q 241 540 288 596 q 194 357 194 483 m 386 97 q 535 153 488 97 q 582 338 582 210 q 538 533 582 472 l 317 106 q 386 97 346 97 z "},"ù":{"ha":767,"x_min":96,"x_max":675,"o":"m 301 1039 q 539 833 393 951 l 503 778 l 489 776 q 238 949 347 868 l 235 963 l 288 1038 l 301 1039 m 671 239 q 596 56 672 121 q 379 -10 519 -10 q 167 55 240 -10 q 97 239 94 119 l 99 346 l 96 696 l 231 696 l 222 260 q 383 101 221 101 q 546 260 549 101 l 540 696 l 675 696 l 671 342 l 671 239 z "},"ú":{"ha":767,"x_min":93,"x_max":674,"o":"m 668 239 q 593 56 669 121 q 376 -10 517 -10 q 165 55 238 -10 q 96 239 93 119 l 97 346 l 93 696 l 228 696 l 221 260 q 382 101 219 101 q 544 260 547 101 l 539 696 l 674 696 l 669 342 l 668 239 m 575 963 l 572 949 q 321 776 463 868 l 307 778 l 271 833 q 508 1039 417 951 l 522 1038 l 575 963 z "},"û":{"ha":767,"x_min":96,"x_max":675,"o":"m 190 839 q 371 1029 269 914 l 407 1029 q 586 839 507 914 l 549 783 l 535 783 q 389 922 439 867 q 243 783 340 871 l 228 783 l 190 839 m 671 239 q 596 56 672 121 q 379 -10 519 -10 q 167 55 240 -10 q 97 239 94 119 l 99 346 l 96 696 l 231 696 l 222 260 q 383 101 221 101 q 546 260 549 101 l 540 696 l 675 696 l 671 342 l 671 239 z "},"ü":{"ha":767,"x_min":96,"x_max":675,"o":"m 276 979 q 328 960 310 979 q 346 908 346 942 q 326 852 346 872 q 272 832 307 832 q 201 904 201 832 q 222 959 201 939 q 276 979 242 979 m 504 979 q 556 960 538 979 q 574 908 574 942 q 554 852 574 872 q 500 832 535 832 q 429 904 429 832 q 449 959 429 939 q 504 979 469 979 m 671 239 q 596 56 672 121 q 379 -10 519 -10 q 167 55 240 -10 q 97 239 94 119 l 99 346 l 96 696 l 231 696 l 222 260 q 383 101 221 101 q 546 260 549 101 l 540 696 l 675 696 l 671 342 l 671 239 z "},"ý":{"ha":671,"x_min":28,"x_max":646,"o":"m 392 0 l 258 0 l 264 194 l 263 233 l 28 696 l 169 696 l 186 651 l 324 375 l 333 375 l 486 646 l 507 696 l 646 696 l 388 238 l 386 194 l 392 0 m 531 963 l 528 949 q 276 776 418 868 l 263 778 l 226 833 q 464 1039 372 951 l 478 1038 l 531 963 z "},"þ":{"ha":671,"x_min":115,"x_max":621,"o":"m 383 586 q 560 532 499 586 q 621 374 621 478 q 544 186 621 253 q 325 119 467 119 l 247 119 l 250 0 l 115 0 l 121 208 l 115 696 l 251 696 l 250 585 l 383 586 m 358 219 q 479 361 479 247 q 445 453 479 424 q 342 486 411 483 l 249 483 l 244 224 l 358 219 z "},"ÿ":{"ha":671,"x_min":28,"x_max":646,"o":"m 226 832 q 156 904 156 832 q 176 959 156 939 q 231 979 196 979 q 282 960 264 979 q 300 908 300 942 q 281 852 300 872 q 226 832 261 832 m 454 832 q 383 904 383 832 q 403 959 383 939 q 458 979 424 979 q 510 960 492 979 q 528 908 528 942 q 508 852 528 872 q 454 832 489 832 m 392 0 l 258 0 l 264 194 l 263 233 l 28 696 l 169 696 l 186 651 l 324 375 l 333 375 l 486 646 l 507 696 l 646 696 l 388 238 l 386 194 l 392 0 z "},"Ā":{"ha":815,"x_min":15,"x_max":789,"o":"m 642 0 l 621 100 l 582 224 l 393 228 l 222 224 l 181 107 l 158 0 l 15 0 l 333 892 l 501 892 l 789 0 l 642 0 m 418 751 l 408 751 l 263 340 l 403 338 l 546 340 l 418 751 m 607 1056 l 215 1056 l 206 1067 l 213 1147 l 604 1147 l 614 1138 l 607 1056 z "},"ā":{"ha":721,"x_min":29,"x_max":679,"o":"m 544 0 l 526 86 l 501 163 l 346 164 l 207 163 l 181 93 l 161 0 l 29 0 l 289 696 l 444 696 l 679 0 l 544 0 m 368 571 l 358 571 l 246 267 l 356 265 l 467 267 l 368 571 m 565 860 l 174 860 l 164 871 l 171 951 l 563 951 l 572 942 l 565 860 z "},"Ă":{"ha":815,"x_min":15,"x_max":789,"o":"m 642 0 l 621 100 l 582 224 l 393 228 l 222 224 l 181 107 l 158 0 l 15 0 l 333 892 l 501 892 l 789 0 l 642 0 m 418 751 l 408 751 l 263 340 l 403 338 l 546 340 l 418 751 m 599 1139 q 526 1040 576 1075 q 407 1004 476 1004 q 290 1039 338 1004 q 219 1139 242 1074 l 256 1185 l 276 1185 q 411 1104 310 1104 q 543 1185 508 1104 l 564 1185 l 599 1139 z "},"ă":{"ha":721,"x_min":29,"x_max":679,"o":"m 544 0 l 526 86 l 501 163 l 346 164 l 207 163 l 181 93 l 161 0 l 29 0 l 289 696 l 444 696 l 679 0 l 544 0 m 368 571 l 358 571 l 246 267 l 356 265 l 467 267 l 368 571 m 558 954 q 492 833 540 878 q 365 789 443 789 q 243 833 289 789 q 179 954 197 878 l 215 1004 l 236 1004 q 369 889 265 889 q 503 1004 474 889 l 524 1004 l 558 954 z "},"Ą":{"ha":815,"x_min":15,"x_max":854,"o":"m 854 -201 q 713 -274 785 -274 q 630 -243 661 -274 q 599 -160 599 -212 q 615 -91 599 -126 q 671 0 631 -56 l 642 0 l 621 100 l 582 224 l 393 228 l 221 224 l 181 107 l 158 0 l 15 0 l 332 892 l 501 892 l 788 0 l 750 0 q 685 -139 685 -94 q 732 -186 685 -186 q 832 -139 781 -186 l 839 -139 l 854 -201 m 418 751 l 407 751 l 263 340 l 404 338 l 546 340 l 418 751 z "},"ą":{"ha":721,"x_min":29,"x_max":732,"o":"m 732 -200 q 606 -272 671 -272 q 527 -242 558 -272 q 496 -164 496 -212 q 568 0 496 -107 l 543 0 l 526 86 l 501 163 l 344 164 l 207 163 l 181 93 l 160 0 l 29 0 l 288 696 l 443 696 l 679 0 l 649 0 q 583 -137 583 -89 q 625 -183 583 -183 q 708 -131 669 -183 l 717 -131 l 732 -200 m 367 571 l 358 571 l 246 267 l 354 265 l 467 267 l 367 571 z "},"Ć":{"ha":721,"x_min":47,"x_max":694,"o":"m 454 901 q 694 840 590 901 l 668 714 l 654 710 q 449 782 561 782 q 262 699 326 782 q 197 453 197 617 q 263 197 197 285 q 449 110 328 110 q 671 186 571 110 l 685 178 l 674 47 q 438 -11 554 -11 q 149 106 250 -11 q 47 438 47 222 q 153 781 47 660 q 454 901 260 901 m 635 1126 l 629 1113 q 347 999 538 1072 l 332 1004 l 308 1065 q 583 1214 489 1158 l 597 1211 l 635 1126 z "},"ć":{"ha":636,"x_min":56,"x_max":599,"o":"m 400 704 q 599 660 514 704 l 574 542 l 561 538 q 388 594 489 594 q 196 356 196 594 q 246 166 196 231 q 392 101 296 101 q 574 158 492 101 l 588 151 l 576 33 q 385 -10 483 -10 q 140 82 225 -10 q 56 343 56 174 q 145 610 56 517 q 400 704 235 704 m 560 963 l 557 949 q 306 776 447 868 l 292 778 l 256 833 q 493 1039 401 951 l 507 1038 l 560 963 z "},"Ĉ":{"ha":721,"x_min":47,"x_max":694,"o":"m 249 1075 q 421 1208 340 1136 l 454 1208 q 626 1075 529 1142 l 600 1015 l 585 1015 l 560 1031 q 438 1107 453 1097 q 292 1015 399 1081 l 276 1015 l 249 1075 m 454 901 q 694 840 590 901 l 668 714 l 654 710 q 449 782 561 782 q 262 699 326 782 q 197 453 197 617 q 263 197 197 285 q 449 110 328 110 q 671 186 571 110 l 685 178 l 674 47 q 438 -11 554 -11 q 149 106 250 -11 q 47 438 47 222 q 153 781 47 660 q 454 901 260 901 z "},"ĉ":{"ha":636,"x_min":56,"x_max":599,"o":"m 174 839 q 354 1029 253 914 l 390 1029 q 569 839 490 914 l 532 783 l 518 783 q 372 922 422 867 q 226 783 324 871 l 211 783 l 174 839 m 400 704 q 599 660 514 704 l 574 542 l 561 538 q 388 594 489 594 q 196 356 196 594 q 246 166 196 231 q 392 101 296 101 q 574 158 492 101 l 588 151 l 576 33 q 385 -10 483 -10 q 140 82 225 -10 q 56 343 56 174 q 145 610 56 517 q 400 704 235 704 z "},"Ċ":{"ha":721,"x_min":47,"x_max":694,"o":"m 454 901 q 694 840 590 901 l 668 714 l 654 710 q 449 782 561 782 q 262 699 326 782 q 197 453 197 617 q 263 197 197 285 q 449 110 328 110 q 671 186 571 110 l 685 178 l 674 47 q 438 -11 554 -11 q 149 106 250 -11 q 47 438 47 222 q 153 781 47 660 q 454 901 260 901 m 439 1190 q 493 1170 474 1190 q 513 1114 513 1150 q 492 1054 513 1076 q 435 1032 471 1032 q 378 1053 399 1032 q 358 1110 358 1074 q 380 1168 358 1146 q 439 1190 401 1190 z "},"ċ":{"ha":636,"x_min":56,"x_max":599,"o":"m 374 994 q 428 974 408 994 q 447 918 447 954 q 426 858 447 881 q 369 836 406 836 q 313 857 333 836 q 293 914 293 878 q 315 972 293 950 q 374 994 336 994 m 400 704 q 599 660 514 704 l 574 542 l 561 538 q 388 594 489 594 q 196 356 196 594 q 246 166 196 231 q 392 101 296 101 q 574 158 492 101 l 588 151 l 576 33 q 385 -10 483 -10 q 140 82 225 -10 q 56 343 56 174 q 145 610 56 517 q 400 704 235 704 z "},"Č":{"ha":721,"x_min":47,"x_max":694,"o":"m 454 901 q 694 840 590 901 l 668 714 l 654 710 q 449 782 561 782 q 262 699 326 782 q 197 453 197 617 q 263 197 197 285 q 449 110 328 110 q 671 186 571 110 l 685 178 l 674 47 q 438 -11 554 -11 q 149 106 250 -11 q 47 438 47 222 q 153 781 47 660 q 454 901 260 901 m 628 1135 q 456 1001 536 1074 l 422 1001 q 250 1135 347 1068 l 276 1194 l 292 1194 l 317 1179 q 439 1103 424 1113 q 585 1194 478 1129 l 600 1194 l 628 1135 z "},"č":{"ha":636,"x_min":56,"x_max":599,"o":"m 400 704 q 599 660 514 704 l 574 542 l 561 538 q 388 594 489 594 q 196 356 196 594 q 246 166 196 231 q 392 101 296 101 q 574 158 492 101 l 588 151 l 576 33 q 385 -10 483 -10 q 140 82 225 -10 q 56 343 56 174 q 145 610 56 517 q 400 704 235 704 m 569 972 q 389 782 490 897 l 353 782 q 174 972 253 897 l 211 1028 l 225 1028 q 371 889 321 944 q 517 1028 419 940 l 532 1028 l 569 972 z "},"Ď":{"ha":903,"x_min":119,"x_max":856,"o":"m 458 897 q 753 789 650 897 q 856 478 856 681 q 743 117 856 243 q 419 -8 631 -8 q 121 0 285 -8 l 119 0 l 129 268 l 119 892 l 121 892 l 458 897 m 444 106 q 640 190 572 106 q 707 446 707 275 q 642 699 707 618 q 447 781 578 781 q 265 775 371 781 l 258 281 l 263 115 q 444 106 372 106 m 631 1135 q 458 1001 539 1074 l 425 1001 q 253 1135 350 1068 l 279 1194 l 294 1194 l 319 1179 q 442 1103 426 1113 q 588 1194 481 1129 l 603 1194 l 631 1135 z "},"ď":{"ha":788,"x_min":115,"x_max":732,"o":"m 401 701 q 647 617 561 701 q 732 374 732 532 q 638 91 732 189 q 368 -7 543 -7 q 115 0 236 -7 l 121 208 l 115 696 l 401 701 m 390 97 q 594 343 594 97 q 544 531 594 472 q 392 590 494 590 q 249 585 306 590 l 243 221 l 246 107 q 390 97 350 97 m 571 972 q 390 782 492 897 l 354 782 q 175 972 254 897 l 213 1028 l 226 1028 q 372 889 322 944 q 518 1028 421 940 l 533 1028 l 571 972 z "},"Đ":{"ha":903,"x_min":119,"x_max":856,"o":"m 458 897 q 753 789 650 897 q 856 478 856 681 q 743 117 856 243 q 419 -8 631 -8 q 121 0 285 -8 l 119 0 l 129 268 l 119 892 l 121 892 l 458 897 m 444 106 q 640 190 572 106 q 707 446 707 275 q 642 699 707 618 q 447 781 578 781 q 265 775 371 781 l 258 281 l 263 115 q 444 106 372 106 m 638 1056 l 246 1056 l 236 1067 l 243 1147 l 635 1147 l 644 1138 l 638 1056 z "},"đ":{"ha":788,"x_min":115,"x_max":732,"o":"m 401 701 q 647 617 561 701 q 732 374 732 532 q 638 91 732 189 q 368 -7 543 -7 q 115 0 236 -7 l 121 208 l 115 696 l 401 701 m 390 97 q 594 343 594 97 q 544 531 594 472 q 392 590 494 590 q 249 585 306 590 l 243 221 l 246 107 q 390 97 350 97 m 569 860 l 178 860 l 168 871 l 175 951 l 567 951 l 576 942 l 569 860 z "},"Ē":{"ha":685,"x_min":119,"x_max":657,"o":"m 656 110 l 646 0 l 119 0 l 129 268 l 119 892 l 649 892 l 657 879 l 646 769 l 435 775 l 265 774 l 261 514 l 422 511 l 569 515 l 579 504 l 568 394 l 411 399 l 260 396 l 258 281 l 263 117 l 432 115 l 647 122 l 656 110 m 583 1056 l 192 1056 l 182 1067 l 189 1147 l 581 1147 l 590 1138 l 583 1056 z "},"ē":{"ha":617,"x_min":115,"x_max":574,"o":"m 572 101 l 561 0 l 115 0 l 121 208 l 115 696 l 565 696 l 574 685 l 564 583 l 388 590 l 249 589 l 246 408 l 379 407 l 500 411 l 507 400 l 499 297 l 368 301 l 244 300 l 243 221 l 246 107 l 375 106 l 563 111 l 572 101 m 538 860 l 146 860 l 136 871 l 143 951 l 535 951 l 544 942 l 538 860 z "},"Ĕ":{"ha":685,"x_min":119,"x_max":657,"o":"m 656 110 l 646 0 l 119 0 l 129 268 l 119 892 l 649 892 l 657 879 l 646 769 l 435 775 l 265 774 l 261 514 l 422 511 l 569 515 l 579 504 l 568 394 l 411 399 l 260 396 l 258 281 l 263 117 l 432 115 l 647 122 l 656 110 m 575 1139 q 503 1040 553 1075 q 383 1004 453 1004 q 266 1039 314 1004 q 196 1139 218 1074 l 232 1185 l 253 1185 q 388 1104 286 1104 q 519 1185 485 1104 l 540 1185 l 575 1139 z "},"ĕ":{"ha":617,"x_min":115,"x_max":574,"o":"m 572 101 l 561 0 l 115 0 l 121 208 l 115 696 l 565 696 l 574 685 l 564 583 l 388 590 l 249 589 l 246 408 l 379 407 l 500 411 l 507 400 l 499 297 l 368 301 l 244 300 l 243 221 l 246 107 l 375 106 l 563 111 l 572 101 m 531 954 q 464 833 513 878 q 338 789 415 789 q 215 833 261 789 q 151 954 169 878 l 188 1004 l 208 1004 q 342 889 238 889 q 475 1004 446 889 l 496 1004 l 531 954 z "},"Ė":{"ha":685,"x_min":119,"x_max":657,"o":"m 385 1032 q 328 1053 349 1032 q 308 1110 308 1074 q 330 1168 308 1146 q 389 1190 351 1190 q 443 1170 424 1190 q 463 1114 463 1150 q 442 1054 463 1076 q 385 1032 421 1032 m 656 110 l 646 0 l 119 0 l 129 268 l 119 892 l 649 892 l 657 879 l 646 769 l 435 775 l 265 774 l 261 514 l 422 511 l 569 515 l 579 504 l 568 394 l 411 399 l 260 396 l 258 281 l 261 117 l 432 115 l 647 122 l 656 110 z "},"ė":{"ha":617,"x_min":115,"x_max":574,"o":"m 339 836 q 283 857 303 836 q 263 914 263 878 q 284 972 263 950 q 343 994 306 994 q 397 974 378 994 q 417 918 417 954 q 396 858 417 881 q 339 836 375 836 m 572 101 l 563 0 l 115 0 l 121 208 l 115 696 l 565 696 l 574 685 l 564 583 l 388 590 l 249 589 l 246 408 l 379 407 l 500 411 l 508 400 l 499 297 l 368 301 l 244 300 l 243 221 l 246 107 l 376 106 l 564 111 l 572 101 z "},"Ę":{"ha":685,"x_min":119,"x_max":665,"o":"m 665 -203 q 526 -274 593 -274 q 441 -242 474 -274 q 408 -158 408 -210 q 446 -50 408 -107 l 481 0 l 119 0 l 129 268 l 119 892 l 649 892 l 657 879 l 646 769 l 435 775 l 265 774 l 261 514 l 422 511 l 569 515 l 579 504 l 568 394 l 411 399 l 260 396 l 258 281 l 261 117 l 432 115 l 647 122 l 656 110 l 646 0 l 561 0 l 518 -65 q 494 -132 494 -101 q 508 -171 494 -156 q 549 -186 522 -186 q 642 -137 593 -186 l 650 -137 l 665 -203 z "},"ę":{"ha":617,"x_min":115,"x_max":574,"o":"m 425 -68 q 401 -135 401 -104 q 415 -174 401 -158 q 456 -189 429 -189 q 549 -140 500 -189 l 557 -140 l 572 -206 q 433 -276 500 -276 q 348 -244 381 -276 q 315 -161 315 -212 q 353 -53 315 -110 l 390 0 l 115 0 l 121 208 l 115 696 l 565 696 l 574 685 l 564 583 l 388 590 l 249 589 l 246 408 l 379 407 l 500 411 l 508 400 l 499 297 l 368 301 l 244 300 l 243 221 l 246 107 l 376 106 l 564 111 l 572 101 l 563 0 l 469 0 l 425 -68 z "},"Ě":{"ha":685,"x_min":119,"x_max":657,"o":"m 656 110 l 646 0 l 119 0 l 129 268 l 119 892 l 649 892 l 657 879 l 646 769 l 435 775 l 265 774 l 261 514 l 422 511 l 569 515 l 579 504 l 568 394 l 411 399 l 260 396 l 258 281 l 263 117 l 432 115 l 647 122 l 656 110 m 576 1135 q 404 1001 485 1074 l 371 1001 q 199 1135 296 1068 l 225 1194 l 240 1194 l 265 1179 q 388 1103 372 1113 q 533 1194 426 1129 l 549 1194 l 576 1135 z "},"ě":{"ha":617,"x_min":115,"x_max":574,"o":"m 572 101 l 561 0 l 115 0 l 121 208 l 115 696 l 565 696 l 574 685 l 564 583 l 388 590 l 249 589 l 246 408 l 379 407 l 500 411 l 507 400 l 499 297 l 368 301 l 244 300 l 243 221 l 246 107 l 375 106 l 563 111 l 572 101 m 539 972 q 358 782 460 897 l 322 782 q 143 972 222 897 l 181 1028 l 194 1028 q 340 889 290 944 q 486 1028 389 940 l 501 1028 l 539 972 z "},"Ĝ":{"ha":832,"x_min":47,"x_max":756,"o":"m 264 1075 q 436 1208 356 1136 l 469 1208 q 642 1075 544 1142 l 615 1015 l 600 1015 l 575 1031 q 453 1107 468 1097 q 307 1015 414 1081 l 292 1015 l 264 1075 m 494 901 q 756 842 635 901 l 726 708 l 711 707 q 588 765 643 747 q 471 782 532 782 q 264 698 332 782 q 196 433 196 614 q 260 184 196 261 q 463 107 324 107 q 617 135 524 107 l 621 225 l 617 358 l 751 368 l 749 247 l 753 43 q 454 -11 581 -11 q 149 102 250 -11 q 47 426 47 215 q 163 779 47 657 q 494 901 279 901 z "},"ĝ":{"ha":726,"x_min":56,"x_max":650,"o":"m 189 839 q 369 1029 268 914 l 406 1029 q 585 839 506 914 l 547 783 l 533 783 q 388 922 438 867 q 242 783 339 871 l 226 783 l 189 839 m 431 704 q 650 661 539 704 l 610 535 l 596 535 q 501 581 543 567 q 407 594 458 594 q 247 534 299 594 q 196 339 196 474 q 244 153 196 208 q 404 99 293 99 q 525 124 457 99 l 525 182 l 524 286 l 646 294 l 644 203 l 644 33 q 397 -10 501 -10 q 142 79 228 -10 q 56 333 56 168 q 153 608 56 513 q 431 704 251 704 z "},"Ğ":{"ha":832,"x_min":47,"x_max":756,"o":"m 494 901 q 756 842 635 901 l 726 708 l 711 707 q 588 765 643 747 q 471 782 532 782 q 264 698 332 782 q 196 433 196 614 q 260 184 196 261 q 463 107 324 107 q 617 135 524 107 l 621 225 l 617 358 l 751 368 l 749 247 l 753 43 q 454 -11 581 -11 q 149 102 250 -11 q 47 426 47 215 q 163 779 47 657 q 494 901 279 901 m 642 1139 q 569 1040 619 1075 q 450 1004 519 1004 q 333 1039 381 1004 q 263 1139 285 1074 l 299 1185 l 319 1185 q 454 1104 353 1104 q 586 1185 551 1104 l 607 1185 l 642 1139 z "},"ğ":{"ha":726,"x_min":56,"x_max":650,"o":"m 431 704 q 650 661 539 704 l 610 535 l 596 535 q 501 581 543 567 q 407 594 458 594 q 247 534 299 594 q 196 339 196 474 q 244 153 196 208 q 404 99 293 99 q 525 124 457 99 l 525 182 l 524 286 l 646 294 l 644 203 l 644 33 q 397 -10 503 -10 q 142 79 228 -10 q 56 333 56 168 q 153 608 56 513 q 431 704 251 704 m 576 954 q 510 833 558 878 q 383 789 461 789 q 261 833 307 789 q 197 954 215 878 l 233 1004 l 254 1004 q 388 889 283 889 q 521 1004 492 889 l 542 1004 l 576 954 z "},"Ġ":{"ha":832,"x_min":47,"x_max":756,"o":"m 494 901 q 756 842 635 901 l 726 708 l 711 707 q 588 765 643 747 q 471 782 532 782 q 264 698 332 782 q 196 433 196 614 q 260 184 196 261 q 463 107 324 107 q 617 135 524 107 l 621 225 l 617 358 l 751 368 l 749 247 l 753 43 q 454 -11 581 -11 q 149 102 250 -11 q 47 426 47 215 q 163 779 47 657 q 494 901 279 901 m 456 1190 q 510 1170 490 1190 q 529 1114 529 1150 q 508 1054 529 1076 q 451 1032 488 1032 q 395 1053 415 1032 q 375 1110 375 1074 q 397 1168 375 1146 q 456 1190 418 1190 z "},"ġ":{"ha":726,"x_min":56,"x_max":650,"o":"m 389 994 q 443 974 424 994 q 463 918 463 954 q 442 858 463 881 q 385 836 421 836 q 328 857 349 836 q 308 914 308 878 q 330 972 308 950 q 389 994 351 994 m 431 704 q 650 661 539 704 l 610 535 l 596 535 q 501 581 543 567 q 407 594 458 594 q 247 534 299 594 q 196 339 196 474 q 244 153 196 208 q 404 99 293 99 q 525 124 457 99 l 525 182 l 524 286 l 646 294 l 644 203 l 644 33 q 397 -10 501 -10 q 142 79 228 -10 q 56 333 56 168 q 153 608 56 513 q 431 704 251 704 z "},"Ģ":{"ha":832,"x_min":47,"x_max":756,"o":"m 494 901 q 756 842 635 901 l 726 708 l 711 707 q 588 765 643 747 q 471 782 532 782 q 264 698 332 782 q 196 433 196 614 q 260 184 196 261 q 463 107 324 107 q 617 135 524 107 l 621 225 l 617 358 l 751 368 l 749 247 l 753 43 q 454 -11 581 -11 q 149 102 250 -11 q 47 426 47 215 q 163 779 47 657 q 494 901 279 901 m 461 -68 q 515 -162 515 -107 q 381 -354 515 -258 l 338 -315 l 338 -306 q 408 -189 408 -247 q 368 -121 408 -150 l 368 -110 q 461 -68 410 -82 z "},"ģ":{"ha":726,"x_min":56,"x_max":650,"o":"m 431 704 q 650 661 539 704 l 610 535 l 596 535 q 501 581 543 567 q 407 594 458 594 q 247 534 299 594 q 196 339 196 474 q 244 153 196 208 q 404 99 293 99 q 525 124 457 99 l 525 182 l 524 286 l 646 294 l 644 203 l 644 33 q 397 -10 501 -10 q 142 79 228 -10 q 56 333 56 168 q 153 608 56 513 q 431 704 251 704 m 407 -68 q 461 -162 461 -107 q 326 -354 461 -258 l 283 -315 l 283 -306 q 354 -189 354 -247 q 314 -121 354 -150 l 314 -110 q 407 -68 356 -82 z "},"Ĥ":{"ha":956,"x_min":119,"x_max":836,"o":"m 286 1075 q 458 1208 378 1136 l 492 1208 q 664 1075 567 1142 l 638 1015 l 622 1015 l 597 1031 q 475 1107 490 1097 q 329 1015 436 1081 l 314 1015 l 286 1075 m 833 0 l 689 0 l 699 268 l 697 389 l 467 393 l 260 389 l 258 281 l 264 0 l 119 0 l 129 268 l 119 892 l 267 892 l 261 510 l 478 506 l 694 510 l 689 892 l 836 892 l 828 281 l 833 0 z "},"ĥ":{"ha":833,"x_min":115,"x_max":719,"o":"m 222 839 q 403 1029 301 914 l 439 1029 q 618 839 539 914 l 581 783 l 567 783 q 421 922 471 867 q 275 783 372 871 l 260 783 l 222 839 m 718 0 l 585 0 l 590 208 l 589 292 l 410 293 l 244 290 l 243 221 l 249 0 l 115 0 l 121 208 l 115 696 l 250 696 l 246 407 l 418 404 l 588 406 l 585 696 l 719 696 l 713 221 l 718 0 z "},"Ħ":{"ha":1000,"x_min":49,"x_max":954,"o":"m 847 281 l 853 0 l 708 0 l 718 268 l 717 389 l 486 393 l 279 389 l 278 281 l 283 0 l 139 0 l 149 268 l 143 661 l 56 661 l 49 669 l 54 753 l 142 753 l 139 892 l 286 892 l 285 753 l 711 753 l 708 892 l 854 892 l 853 753 l 946 753 l 954 744 l 949 661 l 851 661 l 847 281 m 283 661 l 281 510 l 497 506 l 714 510 l 713 661 l 283 661 z "},"ħ":{"ha":868,"x_min":51,"x_max":815,"o":"m 725 221 l 729 0 l 596 0 l 601 208 l 600 292 l 421 293 l 257 290 l 256 221 l 260 0 l 126 0 l 132 208 l 129 506 l 57 506 l 51 515 l 58 586 l 128 586 l 126 696 l 263 696 l 261 586 l 597 586 l 596 696 l 731 696 l 729 586 l 807 586 l 815 579 l 808 506 l 728 506 l 725 221 m 260 506 l 258 407 l 429 404 l 599 406 l 599 506 l 260 506 z "},"Ĩ":{"ha":388,"x_min":-10,"x_max":394,"o":"m 265 0 l 119 0 l 129 268 l 119 892 l 267 892 l 258 281 l 265 0 m 394 1138 l 314 1031 l 300 1026 q 197 1054 269 1031 q 118 1075 132 1075 q 93 1064 106 1075 q 67 1036 81 1053 q 46 1010 54 1019 l 33 1010 l -10 1053 l -10 1065 l 72 1171 l 86 1176 q 189 1149 111 1172 q 267 1128 251 1128 q 292 1138 281 1128 q 317 1166 303 1149 q 340 1194 331 1183 l 353 1194 l 394 1150 l 394 1138 z "},"ĩ":{"ha":371,"x_min":-15,"x_max":389,"o":"m 249 0 l 115 0 l 121 208 l 115 696 l 250 696 l 243 221 l 249 0 m 389 942 l 308 835 l 294 831 q 192 858 264 835 q 113 879 126 879 q 88 868 100 879 q 62 840 75 857 q 40 814 49 824 l 28 814 l -15 857 l -15 869 l 67 975 l 81 981 q 183 953 106 976 q 261 932 246 932 q 286 942 275 932 q 311 970 297 953 q 335 999 325 988 l 347 999 l 389 954 l 389 942 z "},"Ī":{"ha":388,"x_min":32,"x_max":354,"o":"m 265 0 l 119 0 l 129 268 l 119 892 l 267 892 l 258 281 l 265 0 m 347 1056 l 42 1056 l 32 1067 l 39 1147 l 344 1147 l 354 1138 l 347 1056 z "},"ī":{"ha":371,"x_min":26,"x_max":349,"o":"m 249 0 l 115 0 l 121 208 l 115 696 l 250 696 l 243 221 l 249 0 m 342 860 l 36 860 l 26 871 l 33 951 l 339 951 l 349 942 l 342 860 z "},"Ĭ":{"ha":388,"x_min":3,"x_max":382,"o":"m 265 0 l 119 0 l 129 268 l 119 892 l 267 892 l 258 281 l 265 0 m 382 1139 q 310 1040 360 1075 q 190 1004 260 1004 q 73 1039 121 1004 q 3 1139 25 1074 l 39 1185 l 60 1185 q 194 1104 93 1104 q 326 1185 292 1104 l 347 1185 l 382 1139 z "},"ĭ":{"ha":371,"x_min":-1,"x_max":378,"o":"m 249 0 l 115 0 l 121 208 l 115 696 l 250 696 l 243 221 l 249 0 m 378 954 q 311 833 360 878 q 185 789 263 789 q 63 833 108 789 q -1 954 17 878 l 35 1004 l 56 1004 q 189 889 85 889 q 322 1004 293 889 l 343 1004 l 378 954 z "},"Į":{"ha":388,"x_min":50,"x_max":269,"o":"m 269 -229 q 163 -274 218 -274 q 81 -242 111 -274 q 50 -160 50 -211 q 65 -92 50 -126 q 121 0 81 -57 l 119 0 l 129 268 l 119 892 l 267 892 l 258 281 l 264 0 l 201 0 q 136 -137 136 -96 q 182 -186 136 -186 q 246 -154 214 -186 l 257 -154 l 269 -229 z "},"į":{"ha":371,"x_min":44,"x_max":264,"o":"m 264 -229 q 157 -274 213 -274 q 75 -242 106 -274 q 44 -160 44 -211 q 60 -92 44 -126 q 115 0 75 -57 l 121 208 l 115 696 l 250 696 l 243 221 l 249 0 l 196 0 q 131 -137 131 -96 q 176 -186 131 -186 q 240 -154 208 -186 l 251 -154 l 264 -229 z "},"İ":{"ha":388,"x_min":115,"x_max":269,"o":"m 196 1190 q 250 1170 231 1190 q 269 1114 269 1150 q 249 1054 269 1076 q 192 1032 228 1032 q 135 1053 156 1032 q 115 1110 115 1074 q 137 1168 115 1146 q 196 1190 158 1190 m 264 0 l 119 0 l 129 268 l 119 892 l 267 892 l 258 281 l 264 0 z "},"ı":{"ha":371,"x_min":115,"x_max":250,"o":"m 249 0 l 115 0 l 121 208 l 115 696 l 250 696 l 243 221 l 249 0 z "},"Ĳ":{"ha":835,"x_min":119,"x_max":714,"o":"m 265 0 l 119 0 l 129 268 l 119 892 l 267 892 l 258 281 l 265 0 m 708 165 q 652 -13 708 57 q 457 -144 596 -83 l 407 -65 l 407 -50 q 538 45 500 -1 q 576 165 576 92 l 576 281 l 571 781 l 408 779 l 396 790 l 404 892 l 714 892 l 706 294 l 708 165 z "},"ĳ":{"ha":789,"x_min":115,"x_max":668,"o":"m 249 0 l 115 0 l 121 208 l 115 696 l 250 696 l 243 221 l 249 0 m 663 229 l 663 131 q 620 -13 663 42 q 471 -115 578 -68 l 422 -47 l 422 -35 q 513 36 486 -1 q 539 129 539 74 l 539 215 l 536 596 l 408 594 l 400 603 l 408 696 l 668 696 l 663 229 z "},"Ĵ":{"ha":446,"x_min":6,"x_max":383,"o":"m 211 1208 q 383 1075 286 1142 l 357 1015 l 342 1015 l 317 1031 q 194 1107 210 1097 q 49 1015 156 1081 l 33 1015 l 6 1075 q 178 1208 97 1136 l 211 1208 m 319 294 l 322 165 q 265 -13 322 57 q 69 -144 208 -83 l 19 -65 l 19 -50 q 151 45 113 -1 q 190 165 190 92 l 190 281 l 183 781 l 19 779 l 8 790 l 15 892 l 328 892 l 319 294 z "},"ĵ":{"ha":417,"x_min":-32,"x_max":364,"o":"m 185 1029 q 364 839 285 914 l 326 783 l 313 783 q 167 922 217 867 q 21 783 118 871 l 6 783 l -32 839 q 149 1029 47 914 l 185 1029 m 292 229 l 292 131 q 249 -13 292 42 q 100 -115 207 -68 l 51 -47 l 51 -35 q 142 36 115 -1 q 168 129 168 74 l 168 215 l 165 596 l 39 594 l 29 603 l 39 696 l 297 696 l 292 229 z "},"Ķ":{"ha":781,"x_min":118,"x_max":786,"o":"m 263 0 l 118 0 l 128 268 l 118 892 l 265 892 l 257 281 l 263 0 m 419 472 q 786 31 594 236 l 785 14 q 646 -12 717 -4 l 629 -4 q 269 465 414 256 l 269 474 l 549 811 l 601 892 l 761 892 l 419 472 m 442 -68 q 496 -162 496 -107 q 361 -354 496 -258 l 318 -315 l 318 -306 q 389 -189 389 -247 q 349 -121 389 -150 l 349 -110 q 442 -68 390 -82 z "},"ķ":{"ha":699,"x_min":115,"x_max":686,"o":"m 389 369 q 686 31 526 194 l 683 11 q 553 -12 618 -6 l 533 -4 q 247 361 360 204 l 247 371 l 469 631 l 514 696 l 668 697 l 389 369 m 249 0 l 115 0 l 121 208 l 115 696 l 250 696 l 243 221 l 249 0 m 374 -68 q 428 -162 428 -107 q 293 -354 428 -258 l 250 -315 l 250 -306 q 321 -189 321 -247 q 281 -121 321 -150 l 281 -110 q 374 -68 322 -82 z "},"ĸ":{"ha":699,"x_min":115,"x_max":686,"o":"m 390 369 q 686 31 522 199 l 683 11 q 553 -12 618 -6 l 533 -4 q 247 361 360 204 l 247 371 l 471 631 l 515 696 l 668 697 l 390 369 m 249 0 l 115 0 l 121 208 l 115 696 l 250 696 l 243 221 l 249 0 z "},"Ĺ":{"ha":588,"x_min":115,"x_max":585,"o":"m 574 0 l 115 0 l 125 268 l 115 892 l 263 892 l 254 281 l 257 119 l 575 119 l 585 107 l 574 0 m 488 1126 l 482 1113 q 200 999 390 1072 l 185 1004 l 161 1065 q 436 1214 342 1158 l 450 1211 l 488 1126 z "},"ĺ":{"ha":531,"x_min":111,"x_max":507,"o":"m 497 0 l 111 0 l 117 208 l 111 696 l 247 696 l 240 221 l 242 111 l 499 111 l 507 100 l 497 0 m 426 963 l 424 949 q 172 776 314 868 l 158 778 l 122 833 q 360 1039 268 951 l 374 1038 l 426 963 z "},"Ļ":{"ha":588,"x_min":115,"x_max":585,"o":"m 574 0 l 115 0 l 125 268 l 115 892 l 263 892 l 254 281 l 257 119 l 575 119 l 585 107 l 574 0 m 363 -68 q 417 -162 417 -107 q 282 -354 417 -258 l 239 -315 l 239 -306 q 310 -189 310 -247 q 269 -121 310 -150 l 269 -110 q 363 -68 311 -82 z "},"ļ":{"ha":531,"x_min":111,"x_max":507,"o":"m 497 0 l 111 0 l 117 208 l 111 696 l 246 696 l 239 221 l 242 111 l 499 111 l 507 100 l 497 0 m 303 -68 q 357 -162 357 -107 q 222 -354 357 -258 l 179 -315 l 179 -306 q 250 -189 250 -247 q 210 -121 250 -150 l 210 -110 q 303 -68 251 -82 z "},"Ľ":{"ha":611,"x_min":115,"x_max":585,"o":"m 574 0 l 115 0 l 125 268 l 115 892 l 263 892 l 254 281 l 257 119 l 575 119 l 585 107 l 574 0 m 442 547 l 444 807 l 546 814 l 556 803 l 518 547 l 453 538 l 442 547 z "},"ľ":{"ha":554,"x_min":111,"x_max":510,"o":"m 507 100 l 497 0 l 111 0 l 117 208 l 111 696 l 246 696 l 239 221 l 242 111 l 499 111 l 507 100 m 397 403 l 399 663 l 500 668 l 510 658 l 472 403 l 407 393 l 397 403 z "},"Ŀ":{"ha":599,"x_min":115,"x_max":585,"o":"m 574 0 l 115 0 l 125 268 l 115 892 l 263 892 l 254 281 l 257 119 l 575 119 l 585 107 l 574 0 m 488 610 q 542 590 522 610 q 561 533 561 569 q 540 474 561 496 q 483 451 519 451 q 427 472 447 451 q 407 529 407 493 q 428 588 407 565 q 488 610 450 610 z "},"ŀ":{"ha":554,"x_min":111,"x_max":507,"o":"m 497 0 l 111 0 l 117 208 l 111 696 l 246 696 l 239 221 l 242 111 l 499 111 l 507 100 l 497 0 m 418 335 q 362 356 382 335 q 342 413 342 376 q 363 471 342 449 q 422 493 385 493 q 476 473 457 493 q 496 417 496 453 q 475 357 496 379 q 418 335 454 335 z "},"Ł":{"ha":607,"x_min":8,"x_max":606,"o":"m 594 0 l 136 0 l 146 268 l 144 378 l 50 328 l 35 336 l 8 421 l 143 490 l 136 892 l 282 892 l 278 561 l 443 647 l 458 640 l 485 556 l 276 447 l 275 281 l 278 119 l 596 119 l 606 107 l 594 0 z "},"ł":{"ha":557,"x_min":22,"x_max":528,"o":"m 519 0 l 133 0 l 139 208 l 138 288 l 57 250 l 43 258 l 22 335 l 138 388 l 133 696 l 268 696 l 264 444 l 394 504 l 406 499 l 429 421 l 263 344 l 261 221 l 264 111 l 521 111 l 528 100 l 519 0 z "},"Ń":{"ha":956,"x_min":119,"x_max":836,"o":"m 832 0 l 678 0 l 260 668 l 249 668 l 247 299 l 254 0 l 119 0 l 129 264 l 122 892 l 275 892 l 694 224 l 706 224 l 701 885 l 836 894 l 826 267 l 832 0 m 674 1126 l 668 1113 q 386 999 576 1072 l 371 1004 l 347 1065 q 622 1214 528 1158 l 636 1211 l 674 1126 z "},"ń":{"ha":833,"x_min":115,"x_max":718,"o":"m 715 0 l 571 0 l 242 489 l 233 489 l 232 236 l 236 0 l 115 0 l 121 204 l 117 696 l 258 696 l 588 207 l 599 207 l 594 692 l 718 699 l 711 213 l 715 0 m 603 963 l 600 949 q 349 776 490 868 l 335 778 l 299 833 q 536 1039 444 951 l 550 1038 l 603 963 z "},"Ņ":{"ha":956,"x_min":119,"x_max":836,"o":"m 831 0 l 678 0 l 258 668 l 249 668 l 247 299 l 253 0 l 119 0 l 129 264 l 122 892 l 275 892 l 694 224 l 704 224 l 701 885 l 836 894 l 826 267 l 831 0 m 511 -68 q 565 -162 565 -107 q 431 -354 565 -258 l 388 -315 l 388 -306 q 458 -189 458 -247 q 418 -121 458 -150 l 418 -110 q 511 -68 460 -82 z "},"ņ":{"ha":833,"x_min":115,"x_max":718,"o":"m 715 0 l 572 0 l 242 489 l 235 489 l 233 236 l 236 0 l 115 0 l 121 204 l 117 696 l 260 696 l 589 207 l 599 207 l 596 692 l 718 699 l 711 213 l 715 0 m 450 -68 q 504 -162 504 -107 q 369 -354 504 -258 l 326 -315 l 326 -306 q 397 -189 397 -247 q 357 -121 397 -150 l 357 -110 q 450 -68 399 -82 z "},"Ň":{"ha":956,"x_min":119,"x_max":836,"o":"m 832 0 l 678 0 l 260 668 l 249 668 l 247 299 l 254 0 l 119 0 l 129 264 l 122 892 l 275 892 l 694 224 l 706 224 l 701 885 l 836 894 l 826 267 l 832 0 m 665 1135 q 493 1001 574 1074 l 460 1001 q 288 1135 385 1068 l 314 1194 l 329 1194 l 354 1179 q 476 1103 461 1113 q 622 1194 515 1129 l 638 1194 l 665 1135 z "},"ň":{"ha":833,"x_min":115,"x_max":718,"o":"m 715 0 l 571 0 l 242 489 l 233 489 l 232 236 l 236 0 l 115 0 l 121 204 l 117 696 l 258 696 l 588 207 l 599 207 l 594 692 l 718 699 l 711 213 l 715 0 m 614 972 q 433 782 535 897 l 397 782 q 218 972 297 897 l 256 1028 l 269 1028 q 415 889 365 944 q 561 1028 464 940 l 576 1028 l 614 972 z "},"Ŋ":{"ha":956,"x_min":119,"x_max":836,"o":"m 829 79 q 773 -99 829 -29 q 578 -229 717 -169 l 528 -151 l 528 -136 q 683 1 651 -71 l 260 668 l 249 668 l 247 299 l 254 0 l 119 0 l 129 264 l 122 892 l 275 892 l 694 231 l 706 231 l 701 885 l 836 894 l 826 267 l 829 79 z "},"ŋ":{"ha":833,"x_min":115,"x_max":718,"o":"m 714 54 q 676 -82 714 -31 q 543 -179 639 -133 l 499 -124 l 499 -110 q 583 -3 572 -60 l 242 489 l 232 489 l 232 236 l 236 0 l 115 0 l 121 204 l 117 696 l 258 696 l 588 221 l 599 221 l 594 692 l 718 699 l 711 213 l 714 54 z "},"Ō":{"ha":888,"x_min":47,"x_max":840,"o":"m 457 903 q 741 789 642 903 q 840 464 840 675 q 733 112 840 236 q 431 -12 626 -12 q 147 105 247 -12 q 47 438 47 222 q 153 782 47 661 q 457 903 260 903 m 444 785 q 256 705 317 785 q 194 456 194 625 q 255 188 194 274 q 442 103 315 103 q 630 184 568 103 q 692 438 692 265 q 631 701 692 618 q 444 785 571 785 m 642 1056 l 250 1056 l 240 1067 l 247 1147 l 639 1147 l 649 1138 l 642 1056 z "},"ō":{"ha":775,"x_min":56,"x_max":721,"o":"m 400 706 q 637 616 553 706 q 721 364 721 526 q 631 86 721 183 q 376 -11 542 -11 q 139 81 222 -11 q 56 340 56 172 q 145 610 56 515 q 400 706 235 706 m 388 596 q 241 540 288 596 q 194 357 194 483 q 240 157 194 217 q 386 97 286 97 q 535 153 488 97 q 582 338 582 210 q 536 536 582 476 q 388 596 490 596 m 588 860 l 196 860 l 186 871 l 193 951 l 585 951 l 594 942 l 588 860 z "},"Ŏ":{"ha":888,"x_min":47,"x_max":840,"o":"m 457 903 q 741 789 642 903 q 840 464 840 675 q 733 112 840 236 q 431 -12 626 -12 q 147 105 247 -12 q 47 438 47 222 q 153 782 47 661 q 457 903 260 903 m 444 785 q 256 705 317 785 q 194 456 194 625 q 255 188 194 274 q 442 103 315 103 q 630 184 568 103 q 692 438 692 265 q 631 701 692 618 q 444 785 571 785 m 633 1139 q 561 1040 611 1075 q 442 1004 511 1004 q 324 1039 372 1004 q 254 1139 276 1074 l 290 1185 l 311 1185 q 446 1104 344 1104 q 578 1185 543 1104 l 599 1185 l 633 1139 z "},"ŏ":{"ha":775,"x_min":56,"x_max":721,"o":"m 400 706 q 637 616 553 706 q 721 364 721 526 q 631 86 721 183 q 376 -11 542 -11 q 139 81 222 -11 q 56 340 56 172 q 145 610 56 515 q 400 706 235 706 m 388 596 q 241 540 288 596 q 194 357 194 483 q 240 157 194 217 q 386 97 286 97 q 535 153 488 97 q 582 338 582 210 q 536 536 582 476 q 388 596 490 596 m 581 954 q 514 833 563 878 q 388 789 465 789 q 265 833 311 789 q 201 954 219 878 l 238 1004 l 258 1004 q 392 889 288 889 q 525 1004 496 889 l 546 1004 l 581 954 z "},"Ő":{"ha":888,"x_min":47,"x_max":840,"o":"m 457 903 q 741 789 642 903 q 840 464 840 675 q 733 112 840 236 q 431 -12 626 -12 q 147 105 247 -12 q 47 438 47 222 q 153 782 47 661 q 457 903 260 903 m 444 785 q 256 705 317 785 q 194 456 194 625 q 255 188 194 274 q 442 103 315 103 q 630 184 568 103 q 692 438 692 265 q 631 701 692 618 q 444 785 571 785 m 263 1035 q 413 1210 363 1147 l 425 1213 l 489 1168 l 490 1154 q 322 999 382 1051 l 308 996 l 263 1035 m 518 1093 q 618 1210 618 1210 l 628 1213 l 694 1168 l 696 1154 q 582 1049 693 1151 l 528 999 l 514 996 l 468 1035 l 518 1093 z "},"ő":{"ha":775,"x_min":56,"x_max":721,"o":"m 400 706 q 637 616 553 706 q 721 364 721 526 q 631 86 721 183 q 376 -11 542 -11 q 139 81 222 -11 q 56 340 56 172 q 145 610 56 515 q 400 706 235 706 m 388 596 q 241 540 288 596 q 194 357 194 483 q 240 157 194 217 q 386 97 286 97 q 535 153 488 97 q 582 338 582 210 q 536 536 582 476 q 388 596 490 596 m 208 817 q 389 1040 292 913 l 401 1042 l 467 994 l 467 982 q 267 779 385 896 l 253 776 l 208 817 m 411 817 q 593 1040 493 910 l 604 1042 l 669 994 l 671 982 q 469 779 606 913 l 456 776 l 411 817 z "},"Œ":{"ha":1192,"x_min":47,"x_max":1164,"o":"m 492 908 q 621 900 540 908 q 735 892 699 892 l 1154 892 l 1164 879 l 1153 769 l 950 775 l 771 775 l 768 514 l 922 511 l 1078 515 l 1086 504 l 1075 394 l 913 399 l 765 396 l 765 275 l 767 117 l 933 115 l 1153 122 l 1163 110 l 1151 0 l 735 0 q 601 -8 704 1 q 467 -17 513 -17 q 157 103 267 -17 q 47 439 47 222 q 164 785 47 663 q 492 908 281 908 m 479 790 q 265 706 335 790 q 194 447 194 621 q 265 185 194 271 q 481 99 335 99 q 604 113 563 99 q 636 167 636 126 l 631 717 q 611 772 629 763 q 479 790 578 790 z "},"œ":{"ha":1029,"x_min":56,"x_max":992,"o":"m 425 708 q 538 701 479 708 q 631 696 601 696 l 983 696 l 992 685 l 982 583 l 811 590 l 665 590 l 665 408 l 790 407 l 918 411 l 925 400 l 917 297 l 782 301 l 663 300 l 663 106 l 797 106 l 981 111 l 989 101 l 978 0 l 631 0 q 524 -6 599 0 q 404 -12 458 -12 q 147 80 238 -12 q 56 340 56 172 q 153 612 56 515 q 425 708 250 708 m 414 594 q 247 537 300 594 q 194 351 194 479 q 247 156 194 218 q 415 94 300 94 q 515 110 488 94 q 533 124 528 115 q 538 153 538 133 l 533 533 q 519 579 533 572 q 414 594 486 594 z "},"Ŕ":{"ha":792,"x_min":119,"x_max":751,"o":"m 528 357 q 751 33 622 206 l 750 17 q 613 -12 683 -6 l 596 -1 q 410 318 481 188 l 258 318 l 258 281 l 265 0 l 119 0 l 129 268 l 119 892 l 422 893 q 631 826 557 893 q 704 633 704 758 q 658 473 704 544 q 528 357 611 401 m 414 431 q 554 622 554 474 q 383 781 554 774 l 265 776 l 261 435 l 414 431 m 585 1158 l 582 1144 q 331 972 472 1064 l 317 974 l 281 1029 q 518 1235 426 1147 l 532 1233 l 585 1158 z "},"ŕ":{"ha":706,"x_min":115,"x_max":657,"o":"m 475 278 q 657 32 556 157 l 656 15 q 529 -10 583 -6 l 508 3 q 365 242 407 167 l 243 240 l 243 221 l 249 0 l 115 0 l 121 208 l 115 696 l 379 697 q 553 644 492 697 q 615 493 615 590 q 578 369 615 425 q 475 278 542 314 m 365 343 q 475 481 475 375 q 442 565 475 538 q 340 594 408 592 l 249 592 l 244 347 l 365 343 m 519 963 l 517 949 q 265 776 407 868 l 251 778 l 215 833 q 453 1039 361 951 l 467 1038 l 519 963 z "},"Ŗ":{"ha":792,"x_min":119,"x_max":751,"o":"m 528 357 q 751 33 633 189 l 750 17 q 614 -12 683 -7 l 596 -1 q 410 318 481 188 l 258 318 l 258 281 l 264 0 l 119 0 l 129 268 l 119 892 l 422 893 q 630 826 557 893 q 703 633 703 758 q 657 473 703 544 q 528 357 611 401 m 414 431 q 554 622 554 474 q 382 781 554 774 l 265 776 l 261 435 l 414 431 m 433 -68 q 488 -162 488 -107 q 353 -354 488 -258 l 310 -315 l 310 -306 q 381 -189 381 -247 q 340 -121 381 -150 l 340 -110 q 433 -68 382 -82 z "},"ŗ":{"ha":706,"x_min":115,"x_max":657,"o":"m 475 278 q 657 32 568 142 l 656 15 q 529 -10 583 -7 l 508 3 q 365 242 407 167 l 243 240 l 243 221 l 249 0 l 115 0 l 121 208 l 115 696 l 379 697 q 554 644 493 697 q 615 493 615 592 q 578 369 615 425 q 475 278 542 314 m 365 343 q 475 481 475 375 q 442 565 475 538 q 340 594 410 592 l 249 592 l 244 347 l 365 343 m 367 -68 q 421 -162 421 -107 q 286 -354 421 -258 l 243 -315 l 243 -306 q 314 -189 314 -247 q 274 -121 314 -150 l 274 -110 q 367 -68 315 -82 z "},"Ř":{"ha":792,"x_min":119,"x_max":751,"o":"m 528 357 q 751 33 622 206 l 750 17 q 613 -12 683 -6 l 596 -1 q 410 318 481 188 l 258 318 l 258 281 l 265 0 l 119 0 l 129 268 l 119 892 l 422 893 q 631 826 557 893 q 704 633 704 758 q 658 473 704 544 q 528 357 611 401 m 414 431 q 554 622 554 474 q 383 781 554 774 l 265 776 l 261 435 l 414 431 m 596 1168 q 415 978 517 1093 l 379 978 q 200 1168 279 1093 l 238 1224 l 251 1224 q 397 1085 347 1140 q 543 1224 446 1136 l 558 1224 l 596 1168 z "},"ř":{"ha":706,"x_min":115,"x_max":657,"o":"m 475 278 q 657 32 556 157 l 656 15 q 529 -10 583 -6 l 508 3 q 365 242 407 167 l 243 240 l 243 221 l 249 0 l 115 0 l 121 208 l 115 696 l 379 697 q 553 644 492 697 q 615 493 615 590 q 578 369 615 425 q 475 278 542 314 m 365 343 q 475 481 475 375 q 442 565 475 538 q 340 594 408 592 l 249 592 l 244 347 l 365 343 m 529 972 q 349 782 450 897 l 313 782 q 133 972 213 897 l 171 1028 l 185 1028 q 331 889 281 944 q 476 1028 379 940 l 492 1028 l 529 972 z "},"Ś":{"ha":671,"x_min":53,"x_max":617,"o":"m 381 901 q 592 857 486 901 l 568 726 l 546 718 q 364 786 454 786 q 256 749 296 786 q 215 661 215 711 q 256 581 215 613 q 382 510 296 550 q 503 444 457 474 q 583 367 550 415 q 617 253 617 319 q 577 120 617 181 q 466 24 538 60 q 303 -11 394 -11 q 53 49 175 -11 l 71 190 l 89 199 q 202 126 140 150 q 317 101 264 101 q 432 140 389 101 q 475 231 475 178 q 433 316 475 283 q 306 389 392 349 q 186 452 232 424 q 108 528 140 481 q 75 642 75 575 q 114 774 75 714 q 222 867 153 833 q 381 901 292 901 m 540 1158 l 538 1144 q 286 972 428 1064 l 272 974 l 236 1029 q 474 1235 382 1147 l 488 1233 l 540 1158 z "},"ś":{"ha":601,"x_min":61,"x_max":535,"o":"m 339 704 q 517 669 428 704 l 496 543 l 475 539 q 322 603 394 603 q 241 576 271 603 q 211 515 211 550 q 242 458 211 481 q 340 407 274 435 q 441 358 403 381 q 507 297 479 335 q 535 204 535 260 q 505 99 535 147 q 416 20 475 50 q 274 -10 357 -10 q 61 35 164 -10 l 79 169 l 94 178 q 190 115 135 138 q 290 92 244 92 q 372 117 340 92 q 403 181 403 143 q 371 241 403 218 q 272 292 339 264 q 174 341 213 318 q 108 402 135 364 q 81 496 81 440 q 112 601 81 554 q 202 676 143 649 q 339 704 261 704 m 494 963 l 492 949 q 240 776 382 868 l 226 778 l 190 833 q 428 1039 336 951 l 442 1038 l 494 963 z "},"Ŝ":{"ha":671,"x_min":53,"x_max":617,"o":"m 154 1035 q 335 1225 233 1110 l 371 1225 q 550 1035 471 1110 l 513 979 l 499 979 q 353 1118 403 1063 q 207 979 304 1067 l 192 979 l 154 1035 m 382 901 q 592 857 486 901 l 569 726 l 547 718 q 364 786 456 786 q 257 749 297 786 q 217 661 217 711 q 257 581 217 613 q 382 510 297 550 q 503 444 457 474 q 583 367 550 415 q 617 253 617 319 q 578 120 617 181 q 467 24 539 60 q 303 -11 396 -11 q 53 49 175 -11 l 72 190 l 89 199 q 203 126 140 150 q 318 101 265 101 q 433 140 390 101 q 475 231 475 179 q 433 316 475 283 q 306 389 392 349 q 186 452 232 424 q 108 528 140 481 q 75 642 75 575 q 114 774 75 714 q 223 867 153 833 q 382 901 293 901 z "},"ŝ":{"ha":601,"x_min":61,"x_max":535,"o":"m 108 839 q 289 1029 188 914 l 325 1029 q 504 839 425 914 l 467 783 l 453 783 q 307 922 357 867 q 161 783 258 871 l 146 783 l 108 839 m 338 704 q 515 669 426 704 l 494 543 l 474 539 q 322 603 393 603 q 241 576 271 603 q 211 515 211 550 q 242 458 211 481 q 340 407 274 435 q 441 358 403 381 q 507 297 479 335 q 535 204 535 260 q 505 99 535 147 q 415 20 475 50 q 272 -10 356 -10 q 61 35 164 -10 l 79 169 l 94 178 q 189 115 135 138 q 289 92 243 92 q 371 117 339 92 q 403 181 403 143 q 371 241 403 218 q 272 292 339 264 q 172 341 211 318 q 106 402 133 364 q 79 496 79 440 q 110 601 79 554 q 201 676 142 649 q 338 704 260 704 z "},"Ş":{"ha":671,"x_min":53,"x_max":617,"o":"m 617 253 q 547 82 617 154 q 361 -7 478 10 l 344 -69 l 392 -97 q 447 -176 447 -126 q 414 -247 447 -219 q 326 -274 381 -274 q 219 -232 267 -274 l 232 -167 l 239 -164 q 318 -207 279 -207 q 358 -172 358 -207 q 332 -142 358 -154 l 264 -101 l 286 -11 q 53 49 165 -7 l 72 190 l 89 199 q 203 126 140 150 q 318 101 265 101 q 433 140 390 101 q 475 231 475 179 q 433 316 475 283 q 306 389 392 349 q 186 452 232 424 q 108 528 140 481 q 75 642 75 575 q 114 774 75 714 q 223 867 153 833 q 382 901 293 901 q 592 857 486 901 l 569 726 l 547 718 q 364 786 456 786 q 257 749 297 786 q 217 661 217 711 q 257 581 217 613 q 382 510 297 550 q 503 444 457 474 q 583 367 550 415 q 617 253 617 319 z "},"ş":{"ha":601,"x_min":61,"x_max":535,"o":"m 535 204 q 477 63 535 124 q 313 -8 419 3 l 296 -69 l 343 -97 q 399 -176 399 -126 q 365 -247 399 -219 q 278 -274 332 -274 q 171 -232 218 -274 l 183 -167 l 190 -164 q 269 -207 231 -207 q 310 -172 310 -207 q 283 -142 310 -154 l 215 -101 l 239 -8 q 61 35 146 -1 l 79 169 l 94 178 q 189 115 135 138 q 289 92 243 92 q 371 117 339 92 q 403 181 403 143 q 371 241 403 218 q 272 292 339 264 q 172 341 211 318 q 106 402 133 364 q 79 496 79 440 q 110 601 79 554 q 201 676 142 649 q 338 704 260 704 q 515 669 426 704 l 494 543 l 474 539 q 322 603 393 603 q 241 576 271 603 q 211 515 211 550 q 242 458 211 481 q 340 407 274 435 q 441 358 403 381 q 507 297 479 335 q 535 204 535 260 z "},"Š":{"ha":671,"x_min":53,"x_max":617,"o":"m 381 901 q 592 857 486 901 l 568 726 l 546 718 q 364 786 454 786 q 256 749 296 786 q 215 661 215 711 q 256 581 215 613 q 382 510 296 550 q 503 444 457 474 q 583 367 550 415 q 617 253 617 319 q 577 120 617 181 q 466 24 538 60 q 303 -11 394 -11 q 53 49 175 -11 l 71 190 l 89 199 q 202 126 140 150 q 317 101 264 101 q 432 140 389 101 q 475 231 475 178 q 433 316 475 283 q 306 389 392 349 q 186 452 232 424 q 108 528 140 481 q 75 642 75 575 q 114 774 75 714 q 222 867 153 833 q 381 901 292 901 m 550 1168 q 369 978 471 1093 l 333 978 q 154 1168 233 1093 l 192 1224 l 206 1224 q 351 1085 301 1140 q 497 1224 400 1136 l 513 1224 l 550 1168 z "},"š":{"ha":601,"x_min":61,"x_max":535,"o":"m 339 704 q 517 669 428 704 l 496 543 l 475 539 q 322 603 394 603 q 241 576 271 603 q 211 515 211 550 q 242 458 211 481 q 340 407 274 435 q 441 358 403 381 q 507 297 479 335 q 535 204 535 260 q 505 99 535 147 q 416 20 475 50 q 274 -10 357 -10 q 61 35 164 -10 l 79 169 l 94 178 q 190 115 135 138 q 290 92 244 92 q 372 117 340 92 q 403 181 403 143 q 371 241 403 218 q 272 292 339 264 q 174 341 213 318 q 108 402 135 364 q 81 496 81 440 q 112 601 81 554 q 202 676 143 649 q 339 704 261 704 m 504 972 q 324 782 425 897 l 288 782 q 108 972 188 897 l 146 1028 l 160 1028 q 306 889 256 944 q 451 1028 354 940 l 467 1028 l 504 972 z "},"Ţ":{"ha":688,"x_min":26,"x_max":663,"o":"m 654 771 l 493 779 l 418 779 l 413 281 l 418 0 l 378 0 l 358 -69 l 406 -97 q 461 -176 461 -126 q 428 -247 461 -219 q 340 -274 394 -274 q 233 -232 281 -274 l 246 -167 l 253 -164 q 332 -207 293 -207 q 372 -172 372 -207 q 346 -142 372 -154 l 278 -101 l 303 0 l 274 0 l 283 268 l 275 779 l 200 779 l 36 771 l 26 783 l 38 892 l 654 892 l 663 879 l 654 771 z "},"ţ":{"ha":613,"x_min":36,"x_max":569,"o":"m 561 578 l 428 588 l 369 588 l 365 221 l 371 0 l 339 0 l 322 -71 l 368 -97 q 422 -176 422 -131 q 390 -244 422 -218 q 306 -271 357 -271 q 201 -229 249 -271 l 213 -168 l 221 -167 q 299 -208 260 -208 q 327 -199 317 -208 q 338 -174 338 -189 q 313 -139 338 -154 l 246 -99 l 269 0 l 238 0 l 243 208 l 240 588 l 182 588 l 44 578 l 36 589 l 44 696 l 563 696 l 569 685 l 561 578 z "},"Ť":{"ha":688,"x_min":26,"x_max":663,"o":"m 654 771 l 493 779 l 418 779 l 411 281 l 418 0 l 274 0 l 282 268 l 275 779 l 200 779 l 36 771 l 26 783 l 38 892 l 654 892 l 663 879 l 654 771 m 547 1168 q 367 978 468 1093 l 331 978 q 151 1168 231 1093 l 189 1224 l 203 1224 q 349 1085 299 1140 q 494 1224 397 1136 l 510 1224 l 547 1168 z "},"ť":{"ha":613,"x_min":39,"x_max":574,"o":"m 565 578 l 431 588 l 372 588 l 369 221 l 374 0 l 240 0 l 246 208 l 243 588 l 186 588 l 49 578 l 39 589 l 49 696 l 567 696 l 574 685 l 565 578 m 496 972 q 315 782 417 897 l 279 782 q 100 972 179 897 l 138 1028 l 151 1028 q 297 889 247 944 q 443 1028 346 940 l 458 1028 l 496 972 z "},"Ŧ":{"ha":688,"x_min":26,"x_max":663,"o":"m 415 476 l 556 476 l 567 467 l 561 393 l 414 393 l 413 281 l 418 0 l 274 0 l 283 268 l 282 393 l 151 393 l 142 403 l 147 476 l 281 476 l 275 779 l 200 779 l 36 771 l 26 783 l 38 892 l 654 892 l 663 879 l 654 771 l 493 779 l 418 779 l 415 476 z "},"ŧ":{"ha":613,"x_min":39,"x_max":572,"o":"m 369 354 l 496 354 l 507 344 l 501 271 l 368 271 l 368 221 l 374 0 l 240 0 l 246 208 l 246 271 l 124 271 l 114 281 l 119 354 l 244 354 l 243 588 l 185 588 l 49 578 l 39 589 l 49 696 l 567 696 l 572 685 l 565 578 l 431 588 l 372 588 l 369 354 z "},"Ũ":{"ha":876,"x_min":99,"x_max":785,"o":"m 779 333 q 690 79 782 169 q 431 -11 599 -11 q 182 76 268 -11 q 99 322 96 163 l 101 446 l 99 892 l 240 892 l 235 342 q 440 111 233 111 q 647 328 649 111 l 640 892 l 785 892 l 781 439 l 779 333 m 669 1142 l 579 1035 l 565 1028 q 453 1056 540 1032 q 350 1079 371 1079 q 289 1033 331 1079 l 268 1011 l 254 1011 l 211 1056 l 211 1068 l 301 1175 l 317 1181 q 431 1154 354 1175 q 532 1131 513 1131 q 560 1142 546 1131 q 590 1172 574 1154 q 614 1199 607 1190 l 628 1199 l 669 1154 l 669 1142 z "},"ũ":{"ha":767,"x_min":93,"x_max":674,"o":"m 668 239 q 593 56 669 121 q 376 -10 517 -10 q 165 55 238 -10 q 96 239 93 119 l 97 346 l 93 696 l 228 696 l 221 260 q 382 101 219 101 q 544 260 547 101 l 539 696 l 674 696 l 669 342 l 668 239 m 614 946 l 524 839 l 510 832 q 397 860 485 836 q 294 883 315 883 q 233 838 275 883 l 213 815 l 199 815 l 156 860 l 156 872 l 246 979 l 261 985 q 375 958 299 979 q 476 935 457 935 q 504 947 490 935 q 535 976 518 958 q 558 1003 551 994 l 572 1003 l 614 958 l 614 946 z "},"Ū":{"ha":876,"x_min":99,"x_max":785,"o":"m 779 333 q 690 79 782 169 q 431 -11 599 -11 q 182 76 268 -11 q 99 322 96 163 l 101 446 l 99 892 l 240 892 l 235 342 q 440 111 233 111 q 647 328 649 111 l 640 892 l 785 892 l 781 439 l 779 333 m 639 1056 l 247 1056 l 238 1067 l 244 1147 l 636 1147 l 646 1138 l 639 1056 z "},"ū":{"ha":767,"x_min":93,"x_max":674,"o":"m 668 239 q 593 56 669 121 q 376 -10 517 -10 q 165 55 238 -10 q 96 239 93 119 l 97 346 l 93 696 l 228 696 l 221 260 q 382 101 219 101 q 544 260 547 101 l 539 696 l 674 696 l 669 342 l 668 239 m 583 860 l 192 860 l 182 871 l 189 951 l 581 951 l 590 942 l 583 860 z "},"Ŭ":{"ha":876,"x_min":99,"x_max":785,"o":"m 779 333 q 690 79 782 169 q 431 -11 599 -11 q 182 76 268 -11 q 99 322 96 163 l 101 446 l 99 892 l 240 892 l 235 342 q 440 111 233 111 q 647 328 649 111 l 640 892 l 785 892 l 781 439 l 779 333 m 632 1150 q 565 1029 614 1074 q 439 985 517 985 q 317 1029 363 985 q 253 1150 271 1074 l 289 1200 l 310 1200 q 443 1085 339 1085 q 576 1200 547 1085 l 597 1200 l 632 1150 z "},"ŭ":{"ha":767,"x_min":93,"x_max":674,"o":"m 668 239 q 593 56 669 121 q 376 -10 517 -10 q 165 55 238 -10 q 96 239 93 119 l 97 346 l 93 696 l 228 696 l 221 260 q 382 101 219 101 q 544 260 547 101 l 539 696 l 674 696 l 669 342 l 668 239 m 576 954 q 510 833 558 878 q 383 789 461 789 q 261 833 307 789 q 197 954 215 878 l 233 1004 l 254 1004 q 388 889 283 889 q 521 1004 492 889 l 542 1004 l 576 954 z "},"Ů":{"ha":876,"x_min":99,"x_max":785,"o":"m 779 333 q 690 79 782 169 q 431 -11 599 -11 q 182 76 268 -11 q 99 322 96 163 l 101 446 l 99 892 l 240 892 l 235 342 q 440 111 233 111 q 647 328 649 111 l 640 892 l 785 892 l 781 439 l 779 333 m 442 1235 q 532 1203 500 1235 q 564 1117 564 1171 q 529 1024 564 1057 q 438 992 494 992 q 349 1024 382 992 q 317 1113 317 1056 q 349 1202 317 1169 q 442 1235 382 1235 m 439 1171 q 381 1115 381 1171 q 440 1054 381 1054 q 500 1113 500 1054 q 439 1171 500 1171 z "},"ů":{"ha":767,"x_min":93,"x_max":674,"o":"m 668 239 q 593 56 669 121 q 376 -10 517 -10 q 165 55 238 -10 q 96 239 93 119 l 97 346 l 93 696 l 228 696 l 221 260 q 382 101 219 101 q 544 260 547 101 l 539 696 l 674 696 l 669 342 l 668 239 m 386 1039 q 476 1007 444 1039 q 508 921 508 975 q 474 828 508 861 q 382 796 439 796 q 294 828 326 796 q 261 917 261 860 q 294 1006 261 974 q 386 1039 326 1039 m 383 975 q 325 919 325 975 q 385 858 325 858 q 444 917 444 858 q 383 975 444 975 z "},"Ű":{"ha":876,"x_min":99,"x_max":785,"o":"m 779 333 q 690 79 782 169 q 431 -11 599 -11 q 182 76 268 -11 q 99 322 96 163 l 101 446 l 99 892 l 240 892 l 235 342 q 440 111 233 111 q 647 328 649 111 l 640 892 l 785 892 l 781 439 l 779 333 m 258 1035 q 408 1210 358 1147 l 421 1213 l 485 1168 l 486 1154 q 318 999 378 1051 l 304 996 l 258 1035 m 514 1093 q 614 1210 614 1210 l 624 1213 l 690 1168 l 692 1154 q 578 1049 689 1151 l 524 999 l 510 996 l 464 1035 l 514 1093 z "},"ű":{"ha":767,"x_min":93,"x_max":674,"o":"m 668 239 q 593 56 669 121 q 376 -10 517 -10 q 165 55 238 -10 q 96 239 93 119 l 97 346 l 93 696 l 228 696 l 221 260 q 382 101 219 101 q 544 260 547 101 l 539 696 l 674 696 l 669 342 l 668 239 m 204 817 q 385 1040 288 913 l 397 1042 l 463 994 l 463 982 q 263 779 381 896 l 249 776 l 204 817 m 407 817 q 589 1040 489 910 l 600 1042 l 665 994 l 667 982 q 465 779 601 913 l 451 776 l 407 817 z "},"Ų":{"ha":876,"x_min":99,"x_max":785,"o":"m 779 333 q 664 57 782 147 l 585 -74 q 561 -142 561 -108 q 611 -187 561 -187 q 710 -139 661 -187 l 717 -139 l 733 -201 q 593 -274 664 -274 q 509 -242 540 -274 q 478 -158 478 -210 q 511 -60 478 -108 l 553 4 q 429 -11 494 -11 q 182 76 268 -11 q 99 322 96 163 l 100 446 l 99 892 l 240 892 l 235 342 q 439 111 233 111 q 647 328 649 111 l 640 892 l 785 892 l 781 439 l 779 333 z "},"ų":{"ha":767,"x_min":96,"x_max":675,"o":"m 483 -74 q 460 -142 460 -110 q 510 -187 460 -187 q 608 -140 561 -187 l 615 -140 l 632 -201 q 492 -274 563 -274 q 408 -242 439 -274 q 376 -158 376 -210 q 410 -60 376 -108 l 446 -6 q 379 -10 415 -10 q 167 55 240 -10 q 97 239 94 119 l 99 346 l 96 696 l 231 696 l 222 260 q 383 101 221 101 q 546 260 549 101 l 540 696 l 675 696 l 671 342 l 671 239 q 542 22 674 82 l 483 -74 z "},"Ŵ":{"ha":1246,"x_min":28,"x_max":1236,"o":"m 425 1075 q 597 1208 517 1136 l 631 1208 q 803 1075 706 1142 l 776 1015 l 761 1015 l 736 1031 q 614 1107 629 1097 q 468 1015 575 1081 l 453 1015 l 425 1075 m 778 0 l 621 479 l 610 479 l 447 0 l 297 0 l 28 892 l 169 892 l 183 796 l 376 153 l 388 153 l 563 669 l 492 892 l 638 892 l 660 782 l 854 153 l 864 153 l 1081 788 l 1101 892 l 1236 892 l 926 0 l 778 0 z "},"ŵ":{"ha":1071,"x_min":42,"x_max":1047,"o":"m 311 839 q 492 1029 390 914 l 528 1029 q 707 839 628 914 l 669 783 l 656 783 q 510 922 560 867 q 364 783 461 871 l 349 783 l 311 839 m 654 0 l 535 344 l 525 344 l 400 0 l 256 0 l 42 696 l 175 696 l 188 613 l 333 143 l 343 143 l 478 525 l 426 696 l 564 696 l 579 600 l 728 143 l 738 143 l 901 606 l 919 696 l 1047 696 l 799 0 l 654 0 z "},"Ŷ":{"ha":751,"x_min":15,"x_max":743,"o":"m 181 1075 q 353 1208 272 1136 l 386 1208 q 558 1075 461 1142 l 532 1015 l 517 1015 l 492 1031 q 369 1107 385 1097 q 224 1015 331 1081 l 208 1015 l 181 1075 m 436 0 l 292 0 l 301 256 l 300 311 l 15 892 l 168 892 l 186 836 l 364 463 l 375 463 l 569 833 l 592 892 l 743 892 l 432 313 l 431 256 l 436 0 z "},"ŷ":{"ha":671,"x_min":28,"x_max":646,"o":"m 144 839 q 325 1029 224 914 l 361 1029 q 540 839 461 914 l 503 783 l 489 783 q 343 922 393 867 q 197 783 294 871 l 182 783 l 144 839 m 392 0 l 258 0 l 264 194 l 263 233 l 28 696 l 169 696 l 186 651 l 324 375 l 333 375 l 486 646 l 507 696 l 646 696 l 388 238 l 386 194 l 392 0 z "},"Ÿ":{"ha":751,"x_min":15,"x_max":743,"o":"m 254 1028 q 183 1100 183 1028 q 203 1155 183 1135 q 258 1175 224 1175 q 310 1156 292 1175 q 328 1104 328 1138 q 308 1048 328 1068 q 254 1028 289 1028 m 482 1028 q 411 1100 411 1028 q 431 1155 411 1135 q 486 1175 451 1175 q 538 1156 519 1175 q 556 1104 556 1138 q 536 1048 556 1068 q 482 1028 517 1028 m 436 0 l 292 0 l 301 256 l 300 311 l 15 892 l 168 892 l 186 836 l 364 463 l 375 463 l 569 833 l 592 892 l 743 892 l 432 313 l 431 256 l 436 0 z "},"Ź":{"ha":744,"x_min":43,"x_max":700,"o":"m 214 113 l 553 113 l 693 124 l 700 115 l 688 -3 l 508 0 l 133 0 l 43 -4 l 43 100 l 521 778 l 206 778 l 63 767 l 54 775 l 65 893 l 614 892 l 689 893 l 689 788 l 214 113 m 576 1126 l 571 1113 q 289 999 479 1072 l 274 1004 l 250 1065 q 525 1214 431 1158 l 539 1211 l 576 1126 z "},"ź":{"ha":660,"x_min":53,"x_max":607,"o":"m 213 103 l 476 103 l 600 115 l 607 108 l 596 -3 l 435 0 l 133 0 l 53 -3 l 53 93 l 439 592 l 183 592 l 67 579 l 61 588 l 71 697 l 210 696 l 531 696 l 597 697 l 597 599 l 213 103 m 500 963 l 497 949 q 246 776 388 868 l 232 778 l 196 833 q 433 1039 342 951 l 447 1038 l 500 963 z "},"Ż":{"ha":744,"x_min":43,"x_max":700,"o":"m 381 1190 q 435 1170 415 1190 q 454 1114 454 1150 q 433 1054 454 1076 q 376 1032 413 1032 q 320 1053 340 1032 q 300 1110 300 1074 q 322 1168 300 1146 q 381 1190 343 1190 m 214 113 l 553 113 l 694 124 l 700 115 l 689 -3 l 508 0 l 133 0 l 43 -4 l 43 100 l 521 778 l 206 778 l 63 767 l 56 775 l 67 893 l 614 892 l 690 893 l 690 788 l 214 113 z "},"ż":{"ha":660,"x_min":53,"x_max":606,"o":"m 314 994 q 368 974 349 994 q 388 918 388 954 q 367 858 388 881 q 310 836 346 836 q 253 857 274 836 q 233 914 233 878 q 255 972 233 950 q 314 994 276 994 m 213 103 l 476 103 l 600 115 l 606 108 l 594 -3 l 435 0 l 133 0 l 53 -3 l 53 93 l 439 592 l 182 592 l 65 579 l 60 588 l 71 697 l 210 696 l 529 696 l 596 697 l 596 599 l 213 103 z "},"Ž":{"ha":744,"x_min":43,"x_max":700,"o":"m 214 113 l 553 113 l 693 124 l 700 115 l 688 -3 l 508 0 l 133 0 l 43 -4 l 43 100 l 521 778 l 206 778 l 63 767 l 54 775 l 65 893 l 614 892 l 689 893 l 689 788 l 214 113 m 568 1135 q 396 1001 476 1074 l 363 1001 q 190 1135 288 1068 l 217 1194 l 232 1194 l 257 1179 q 379 1103 364 1113 q 525 1194 418 1129 l 540 1194 l 568 1135 z "},"ž":{"ha":660,"x_min":53,"x_max":607,"o":"m 213 103 l 476 103 l 600 115 l 607 108 l 596 -3 l 435 0 l 133 0 l 53 -3 l 53 93 l 439 592 l 183 592 l 67 579 l 61 588 l 71 697 l 210 696 l 531 696 l 597 697 l 597 599 l 213 103 m 510 972 q 329 782 431 897 l 293 782 q 114 972 193 897 l 151 1028 l 165 1028 q 311 889 261 944 q 457 1028 360 940 l 472 1028 l 510 972 z "},"ƒ":{"ha":407,"x_min":-22,"x_max":538,"o":"m 432 858 q 538 846 478 858 l 517 753 l 507 747 q 414 768 456 768 q 289 651 307 768 l 272 525 l 421 525 l 425 517 l 418 447 l 263 447 l 235 257 l 213 69 q 164 -87 203 -26 q 35 -208 125 -147 l -22 -153 l -21 -142 q 63 -49 38 -93 q 99 67 89 -4 l 121 246 l 144 447 l 54 447 l 47 456 l 56 525 l 154 525 l 168 633 q 251 800 182 742 q 432 858 319 858 z "},"Ơ":{"ha":894,"x_min":47,"x_max":893,"o":"m 810 1068 q 867 1033 842 1068 q 893 944 893 997 q 847 837 893 878 q 731 789 801 796 q 840 458 840 678 q 733 112 840 236 q 433 -12 626 -12 q 147 105 247 -12 q 47 436 47 222 q 153 781 47 660 q 447 903 260 903 q 611 874 526 903 q 689 857 667 857 q 756 878 729 857 q 782 935 782 899 q 738 1029 782 988 l 740 1040 q 810 1068 775 1068 m 443 785 q 256 704 317 785 q 194 453 194 624 q 255 188 194 272 q 443 103 315 103 q 631 185 569 103 q 692 439 692 267 q 631 701 692 618 q 443 785 571 785 z "},"ơ":{"ha":783,"x_min":56,"x_max":768,"o":"m 631 813 q 693 838 669 838 q 745 808 722 838 q 768 733 768 778 q 733 646 768 681 q 642 600 699 611 q 721 358 721 513 q 631 87 721 185 q 379 -11 542 -11 q 140 81 224 -11 q 56 340 56 172 q 145 610 56 514 q 394 706 235 706 q 531 686 453 706 q 596 674 574 674 q 647 688 628 674 q 665 729 665 701 q 628 801 665 768 l 631 813 m 390 92 q 535 151 489 92 q 582 343 582 210 q 535 537 582 478 q 386 596 489 596 q 240 538 286 596 q 194 349 194 481 q 242 152 194 213 q 390 92 289 92 z "},"Ư":{"ha":890,"x_min":99,"x_max":907,"o":"m 907 972 q 874 885 907 924 q 785 829 842 847 l 781 439 l 779 333 q 690 79 782 169 q 429 -11 599 -11 q 182 76 268 -11 q 99 322 96 163 l 100 446 l 99 892 l 240 892 l 235 342 q 439 111 233 111 q 647 328 649 111 l 640 892 l 707 892 q 796 961 796 892 q 750 1044 796 1004 l 754 1057 q 822 1085 793 1085 q 881 1052 854 1085 q 907 972 907 1019 z "},"ư":{"ha":781,"x_min":92,"x_max":778,"o":"m 667 239 q 592 55 668 119 q 375 -10 515 -10 q 163 55 236 -10 q 93 239 90 119 l 94 346 l 92 696 l 226 696 l 218 260 q 381 101 217 101 q 542 260 544 101 l 536 696 l 603 696 q 674 750 674 696 q 638 815 674 786 l 642 826 q 706 850 678 850 q 756 824 733 850 q 778 761 778 799 q 749 687 778 719 q 671 639 721 654 l 667 342 l 667 239 z "},"Ǎ":{"ha":815,"x_min":15,"x_max":789,"o":"m 642 0 l 621 100 l 582 224 l 393 228 l 222 224 l 181 107 l 158 0 l 15 0 l 333 892 l 501 892 l 789 0 l 642 0 m 418 751 l 408 751 l 263 340 l 403 338 l 546 340 l 418 751 m 600 1135 q 428 1001 508 1074 l 394 1001 q 222 1135 319 1068 l 249 1194 l 264 1194 l 289 1179 q 411 1103 396 1113 q 557 1194 450 1129 l 572 1194 l 600 1135 z "},"ǎ":{"ha":721,"x_min":29,"x_max":679,"o":"m 544 0 l 526 86 l 501 163 l 346 164 l 207 163 l 181 93 l 161 0 l 29 0 l 289 696 l 444 696 l 679 0 l 544 0 m 368 571 l 358 571 l 246 267 l 356 265 l 467 267 l 368 571 m 567 972 q 386 782 488 897 l 350 782 q 171 972 250 897 l 208 1028 l 222 1028 q 368 889 318 944 q 514 1028 417 940 l 529 1028 l 567 972 z "},"Ǐ":{"ha":388,"x_min":6,"x_max":383,"o":"m 265 0 l 119 0 l 129 268 l 119 892 l 267 892 l 258 281 l 265 0 m 383 1135 q 211 1001 292 1074 l 178 1001 q 6 1135 103 1068 l 32 1194 l 47 1194 l 72 1179 q 194 1103 179 1113 q 340 1194 233 1129 l 356 1194 l 383 1135 z "},"ǐ":{"ha":371,"x_min":-10,"x_max":386,"o":"m 249 0 l 115 0 l 121 208 l 115 696 l 250 696 l 243 221 l 249 0 m 386 972 q 206 782 307 897 l 169 782 q -10 972 69 897 l 28 1028 l 42 1028 q 188 889 138 944 q 333 1028 236 940 l 349 1028 l 386 972 z "},"Ǒ":{"ha":888,"x_min":47,"x_max":840,"o":"m 457 903 q 741 789 642 903 q 840 464 840 675 q 733 112 840 236 q 431 -12 626 -12 q 147 105 247 -12 q 47 438 47 222 q 153 782 47 661 q 457 903 260 903 m 444 785 q 256 705 317 785 q 194 456 194 625 q 255 188 194 274 q 442 103 315 103 q 630 184 568 103 q 692 438 692 265 q 631 701 692 618 q 444 785 571 785 m 635 1135 q 463 1001 543 1074 l 429 1001 q 257 1135 354 1068 l 283 1194 l 299 1194 l 324 1179 q 446 1103 431 1113 q 592 1194 485 1129 l 607 1194 l 635 1135 z "},"ǒ":{"ha":775,"x_min":56,"x_max":721,"o":"m 400 706 q 637 616 553 706 q 721 364 721 526 q 631 86 721 183 q 376 -11 542 -11 q 139 81 222 -11 q 56 340 56 172 q 145 610 56 515 q 400 706 235 706 m 388 596 q 241 540 288 596 q 194 357 194 483 q 240 157 194 217 q 386 97 286 97 q 535 153 488 97 q 582 338 582 210 q 536 536 582 476 q 388 596 490 596 m 589 972 q 408 782 510 897 l 372 782 q 193 972 272 897 l 231 1028 l 244 1028 q 390 889 340 944 q 536 1028 439 940 l 551 1028 l 589 972 z "},"Ǔ":{"ha":876,"x_min":99,"x_max":785,"o":"m 779 333 q 690 79 782 169 q 431 -11 599 -11 q 182 76 268 -11 q 99 322 96 163 l 101 446 l 99 892 l 240 892 l 235 342 q 440 111 233 111 q 647 328 649 111 l 640 892 l 785 892 l 781 439 l 779 333 m 640 1168 q 460 978 561 1093 l 424 978 q 244 1168 324 1093 l 282 1224 l 296 1224 q 442 1085 392 1140 q 588 1224 490 1136 l 603 1224 l 640 1168 z "},"ǔ":{"ha":767,"x_min":93,"x_max":674,"o":"m 668 239 q 593 56 669 121 q 376 -10 517 -10 q 165 55 238 -10 q 96 239 93 119 l 97 346 l 93 696 l 228 696 l 221 260 q 382 101 219 101 q 544 260 547 101 l 539 696 l 674 696 l 669 342 l 668 239 m 585 972 q 404 782 506 897 l 368 782 q 189 972 268 897 l 226 1028 l 240 1028 q 386 889 336 944 q 532 1028 435 940 l 547 1028 l 585 972 z "},"Ǖ":{"ha":876,"x_min":99,"x_max":785,"o":"m 779 333 q 690 79 782 169 q 431 -11 599 -11 q 182 76 268 -11 q 99 322 96 163 l 101 446 l 99 892 l 240 892 l 235 342 q 440 111 233 111 q 647 328 649 111 l 640 892 l 785 892 l 781 439 l 779 333 m 628 1229 l 258 1229 l 247 1240 l 256 1322 l 626 1322 l 636 1311 l 628 1229 m 329 1143 q 378 1125 361 1143 q 396 1075 396 1107 q 376 1023 396 1043 q 324 1003 357 1003 q 274 1021 292 1003 q 257 1071 257 1039 q 276 1123 257 1103 q 329 1143 296 1143 m 557 1143 q 606 1125 589 1143 q 624 1075 624 1107 q 604 1023 624 1043 q 551 1003 585 1003 q 502 1021 519 1003 q 485 1071 485 1039 q 504 1123 485 1103 q 557 1143 524 1143 z "},"ǖ":{"ha":767,"x_min":93,"x_max":674,"o":"m 668 239 q 593 56 669 121 q 376 -10 517 -10 q 165 55 238 -10 q 96 239 93 119 l 97 346 l 93 696 l 228 696 l 221 260 q 382 101 219 101 q 544 260 547 101 l 539 696 l 674 696 l 669 342 l 668 239 m 572 1033 l 203 1033 l 192 1044 l 200 1126 l 571 1126 l 581 1115 l 572 1033 m 274 947 q 323 929 306 947 q 340 879 340 911 q 321 827 340 847 q 268 807 301 807 q 219 825 236 807 q 201 875 201 843 q 221 927 201 907 q 274 947 240 947 m 501 947 q 551 929 533 947 q 568 879 568 911 q 549 827 568 847 q 496 807 529 807 q 447 825 464 807 q 429 875 429 843 q 449 927 429 907 q 501 947 468 947 z "},"Ǘ":{"ha":876,"x_min":99,"x_max":785,"o":"m 779 333 q 690 79 782 169 q 431 -11 599 -11 q 182 76 268 -11 q 99 322 96 163 l 101 446 l 99 892 l 240 892 l 235 342 q 440 111 233 111 q 647 328 649 111 l 640 892 l 785 892 l 781 439 l 779 333 m 604 1288 l 597 1275 q 299 1213 451 1240 l 285 1219 l 272 1285 q 569 1383 432 1332 l 582 1376 l 604 1288 m 329 1143 q 378 1125 361 1143 q 396 1075 396 1107 q 376 1023 396 1043 q 324 1003 357 1003 q 274 1021 292 1003 q 257 1071 257 1039 q 276 1123 257 1103 q 329 1143 296 1143 m 557 1143 q 606 1125 589 1143 q 624 1075 624 1107 q 604 1023 624 1043 q 551 1003 585 1003 q 502 1021 519 1003 q 485 1071 485 1039 q 504 1123 485 1103 q 557 1143 524 1143 z "},"ǘ":{"ha":767,"x_min":93,"x_max":674,"o":"m 668 239 q 593 56 669 121 q 376 -10 517 -10 q 165 55 238 -10 q 96 239 93 119 l 97 346 l 93 696 l 228 696 l 221 260 q 382 101 219 101 q 544 260 547 101 l 539 696 l 674 696 l 669 342 l 668 239 m 549 1092 l 542 1079 q 243 1017 396 1044 l 229 1024 l 217 1089 q 514 1188 376 1136 l 526 1181 l 549 1092 m 274 947 q 323 929 306 947 q 340 879 340 911 q 321 827 340 847 q 268 807 301 807 q 219 825 236 807 q 201 875 201 843 q 221 927 201 907 q 274 947 240 947 m 501 947 q 551 929 533 947 q 568 879 568 911 q 549 827 568 847 q 496 807 529 807 q 447 825 464 807 q 429 875 429 843 q 449 927 429 907 q 501 947 468 947 z "},"Ǚ":{"ha":876,"x_min":99,"x_max":785,"o":"m 779 333 q 690 79 782 169 q 431 -11 599 -11 q 182 76 268 -11 q 99 322 96 163 l 101 446 l 99 892 l 240 892 l 235 342 q 440 111 233 111 q 647 328 649 111 l 640 892 l 785 892 l 781 439 l 779 333 m 631 1303 q 458 1169 554 1250 l 425 1169 q 253 1303 338 1243 l 279 1361 l 294 1361 l 442 1271 q 558 1343 489 1303 l 588 1361 l 603 1361 l 631 1303 m 329 1143 q 378 1125 361 1143 q 396 1075 396 1107 q 376 1023 396 1043 q 324 1003 357 1003 q 274 1021 292 1003 q 257 1071 257 1039 q 276 1123 257 1103 q 329 1143 296 1143 m 557 1143 q 606 1125 589 1143 q 624 1075 624 1107 q 604 1023 624 1043 q 551 1003 585 1003 q 502 1021 519 1003 q 485 1071 485 1039 q 504 1123 485 1103 q 557 1143 524 1143 z "},"ǚ":{"ha":767,"x_min":93,"x_max":674,"o":"m 668 239 q 593 56 669 121 q 376 -10 517 -10 q 165 55 238 -10 q 96 239 93 119 l 97 346 l 93 696 l 228 696 l 221 260 q 382 101 219 101 q 544 260 547 101 l 539 696 l 674 696 l 669 342 l 668 239 m 575 1107 q 403 974 499 1054 l 369 974 q 197 1107 282 1047 l 224 1165 l 239 1165 l 386 1075 q 503 1147 433 1107 l 532 1165 l 547 1165 l 575 1107 m 274 947 q 323 929 306 947 q 340 879 340 911 q 321 827 340 847 q 268 807 301 807 q 219 825 236 807 q 201 875 201 843 q 221 927 201 907 q 274 947 240 947 m 501 947 q 551 929 533 947 q 568 879 568 911 q 549 827 568 847 q 496 807 529 807 q 447 825 464 807 q 429 875 429 843 q 449 927 429 907 q 501 947 468 947 z "},"Ǜ":{"ha":876,"x_min":99,"x_max":785,"o":"m 779 333 q 690 79 782 169 q 431 -11 599 -11 q 182 76 268 -11 q 99 322 96 163 l 101 446 l 99 892 l 240 892 l 235 342 q 440 111 233 111 q 647 328 649 111 l 640 892 l 785 892 l 781 439 l 779 333 m 307 1383 q 604 1285 444 1332 l 590 1219 l 576 1213 q 281 1275 411 1243 l 272 1288 l 293 1376 l 307 1383 m 329 1143 q 378 1125 361 1143 q 396 1075 396 1107 q 376 1023 396 1043 q 324 1003 357 1003 q 274 1021 292 1003 q 257 1071 257 1039 q 276 1123 257 1103 q 329 1143 296 1143 m 557 1143 q 606 1125 589 1143 q 624 1075 624 1107 q 604 1023 624 1043 q 551 1003 585 1003 q 502 1021 519 1003 q 485 1071 485 1039 q 504 1123 485 1103 q 557 1143 524 1143 z "},"ǜ":{"ha":767,"x_min":93,"x_max":674,"o":"m 668 239 q 593 56 669 121 q 376 -10 517 -10 q 165 55 238 -10 q 96 239 93 119 l 97 346 l 93 696 l 228 696 l 221 260 q 382 101 219 101 q 544 260 547 101 l 539 696 l 674 696 l 669 342 l 668 239 m 251 1188 q 549 1089 389 1136 l 535 1024 l 521 1017 q 225 1079 356 1047 l 217 1092 l 238 1181 l 251 1188 m 274 947 q 323 929 306 947 q 340 879 340 911 q 321 827 340 847 q 268 807 301 807 q 219 825 236 807 q 201 875 201 843 q 221 927 201 907 q 274 947 240 947 m 501 947 q 551 929 533 947 q 568 879 568 911 q 549 827 568 847 q 496 807 529 807 q 447 825 464 807 q 429 875 429 843 q 449 927 429 907 q 501 947 468 947 z "},"Ǫ":{"ha":888,"x_min":47,"x_max":840,"o":"m 553 -65 q 529 -132 529 -101 q 543 -171 529 -156 q 583 -186 557 -186 q 676 -137 628 -186 l 685 -137 l 700 -203 q 561 -274 626 -274 q 475 -242 507 -274 q 443 -158 443 -210 q 481 -50 443 -107 l 511 -7 q 431 -12 478 -12 q 147 105 247 -12 q 47 438 47 222 q 153 782 47 661 q 457 903 260 903 q 741 789 642 903 q 840 464 840 675 q 781 182 840 294 q 608 21 721 69 l 553 -65 m 194 456 q 255 188 194 274 q 442 103 315 103 q 630 184 568 103 q 692 438 692 265 q 631 701 692 618 q 443 785 571 785 q 255 705 315 785 q 194 456 194 625 z "},"ǫ":{"ha":775,"x_min":56,"x_max":721,"o":"m 471 -74 q 447 -142 447 -108 q 497 -187 447 -187 q 596 -139 547 -187 l 603 -139 l 619 -201 q 479 -274 550 -274 q 395 -242 426 -274 q 364 -158 364 -210 q 397 -60 364 -108 l 432 -8 q 376 -11 396 -11 q 139 81 222 -11 q 56 340 56 172 q 145 610 56 515 q 400 706 235 706 q 637 616 553 706 q 721 364 721 526 q 671 141 721 231 q 525 14 621 51 l 471 -74 m 194 357 q 240 158 194 218 q 386 97 286 97 q 535 153 488 97 q 582 338 582 210 q 536 536 582 476 q 388 596 490 596 q 241 540 288 596 q 194 357 194 483 z "},"Ǻ":{"ha":815,"x_min":15,"x_max":788,"o":"m 283 1164 q 579 1267 443 1214 l 593 1261 l 615 1172 l 608 1160 q 346 1099 515 1135 q 311 1092 333 1097 l 297 1099 l 283 1164 m 642 0 l 621 99 l 582 221 l 393 224 l 221 219 l 181 106 l 158 0 l 15 0 l 329 856 q 293 949 293 889 q 326 1038 293 1006 q 418 1071 358 1071 q 508 1039 476 1071 q 540 953 540 1007 q 501 857 540 892 l 788 0 l 642 0 m 415 1007 q 357 951 357 1007 q 417 890 357 890 q 476 949 476 890 q 415 1007 476 1007 m 418 740 l 407 740 l 263 336 l 404 333 l 546 336 l 418 740 z "},"ǻ":{"ha":721,"x_min":29,"x_max":679,"o":"m 232 1132 q 528 1235 392 1182 l 542 1229 l 564 1140 l 557 1128 q 294 1067 464 1103 q 260 1060 282 1065 l 246 1067 l 232 1132 m 243 917 q 276 1006 243 974 q 368 1039 308 1039 q 458 1007 426 1039 q 490 921 490 975 q 456 828 490 861 q 364 796 421 796 q 276 828 308 796 q 243 917 243 860 m 426 917 q 365 975 426 975 q 307 919 307 975 q 367 858 307 858 q 426 917 426 858 m 543 0 l 526 86 l 501 163 l 344 164 l 207 163 l 181 93 l 160 0 l 29 0 l 288 696 l 443 696 l 679 0 l 543 0 m 367 571 l 358 571 l 246 267 l 354 265 l 467 267 l 367 571 z "},"Ǽ":{"ha":1131,"x_min":-24,"x_max":1113,"o":"m 1101 0 l 594 0 l 588 100 l 554 339 l 239 261 l 160 107 l 122 0 l -24 0 l 429 892 l 988 892 l 996 879 l 985 769 l 763 776 l 635 776 l 675 481 l 961 546 l 972 536 l 982 435 l 689 371 l 724 114 l 875 114 l 1103 122 l 1113 110 l 1101 0 m 497 751 l 488 751 l 306 393 l 539 449 l 497 751 m 892 1126 l 886 1113 q 604 999 794 1072 l 589 1004 l 565 1065 q 840 1214 746 1158 l 854 1211 l 892 1126 z "},"ǽ":{"ha":978,"x_min":-1,"x_max":949,"o":"m 939 0 l 511 0 l 506 83 l 482 247 l 207 181 l 157 90 l 126 0 l -1 0 l 374 696 l 846 696 l 854 685 l 843 586 l 660 594 l 554 594 l 586 376 l 824 431 l 833 424 l 842 324 l 601 275 l 626 104 l 750 104 l 940 111 l 949 101 l 939 0 m 433 574 l 424 574 l 274 303 l 467 347 l 433 574 m 764 963 l 761 949 q 510 776 651 868 l 496 778 l 460 833 q 697 1039 606 951 l 711 1038 l 764 963 z "},"Ǿ":{"ha":888,"x_min":47,"x_max":840,"o":"m 683 840 q 840 464 840 731 q 734 112 840 236 q 431 -12 628 -12 q 290 8 353 -12 l 215 -151 l 133 -118 l 126 -106 l 201 54 q 47 438 47 168 q 153 782 47 661 q 457 903 260 903 q 592 885 526 903 l 651 1013 l 732 981 l 742 965 l 683 840 m 194 456 q 261 181 194 267 l 538 771 q 443 785 497 785 q 255 705 315 785 q 194 456 194 625 m 442 103 q 630 185 568 103 q 692 438 692 267 q 622 713 692 631 l 343 119 q 442 103 385 103 m 642 1128 l 636 1114 q 354 1000 544 1074 l 339 1006 l 315 1067 q 590 1215 496 1160 l 604 1213 l 642 1128 z "},"ǿ":{"ha":775,"x_min":56,"x_max":721,"o":"m 599 650 q 721 364 721 563 q 631 86 721 183 q 376 -11 542 -11 q 264 4 317 -11 l 186 -144 l 111 -107 l 107 -93 l 179 44 q 56 340 56 133 q 145 610 56 515 q 400 706 235 706 q 517 689 465 706 l 574 799 l 643 763 l 650 749 l 599 650 m 194 357 q 239 160 194 221 l 463 586 q 388 596 432 596 q 241 540 288 596 q 194 357 194 483 m 386 97 q 535 153 488 97 q 582 338 582 210 q 538 533 582 472 l 317 106 q 386 97 346 97 m 554 964 l 551 950 q 300 778 442 869 l 286 779 l 250 835 q 488 1040 396 953 l 501 1039 l 554 964 z "},"Ș":{"ha":671,"x_min":53,"x_max":617,"o":"m 382 901 q 592 857 486 901 l 569 726 l 547 718 q 364 786 456 786 q 257 749 297 786 q 217 661 217 711 q 257 581 217 613 q 382 510 297 550 q 503 444 457 474 q 583 367 550 415 q 617 253 617 319 q 578 120 617 181 q 467 24 539 60 q 303 -11 396 -11 q 53 49 175 -11 l 72 190 l 89 199 q 203 126 140 150 q 318 101 265 101 q 433 140 390 101 q 475 231 475 179 q 433 316 475 283 q 306 389 392 349 q 186 452 232 424 q 108 528 140 481 q 75 642 75 575 q 114 774 75 714 q 223 867 153 833 q 382 901 293 901 m 361 -68 q 415 -162 415 -107 q 281 -354 415 -258 l 238 -315 l 238 -306 q 308 -189 308 -247 q 268 -121 308 -150 l 268 -110 q 361 -68 310 -82 z "},"ș":{"ha":601,"x_min":61,"x_max":535,"o":"m 338 704 q 515 669 426 704 l 494 543 l 474 539 q 322 603 393 603 q 241 576 271 603 q 211 515 211 550 q 242 458 211 481 q 340 407 274 435 q 441 358 403 381 q 507 297 479 335 q 535 204 535 260 q 505 99 535 147 q 415 20 475 50 q 272 -10 356 -10 q 61 35 164 -10 l 79 169 l 94 178 q 189 115 135 138 q 289 92 243 92 q 371 117 339 92 q 403 181 403 143 q 371 241 403 218 q 272 292 339 264 q 172 341 211 318 q 106 402 133 364 q 79 496 79 440 q 110 601 79 554 q 201 676 142 649 q 338 704 260 704 m 314 -68 q 368 -162 368 -107 q 233 -354 368 -258 l 190 -315 l 190 -306 q 261 -189 261 -247 q 221 -121 261 -150 l 221 -110 q 314 -68 263 -82 z "},"Ț":{"ha":688,"x_min":26,"x_max":663,"o":"m 654 771 l 493 779 l 418 779 l 413 281 l 418 0 l 274 0 l 283 268 l 275 779 l 200 779 l 36 771 l 26 783 l 38 892 l 654 892 l 663 879 l 654 771 m 375 -68 q 429 -162 429 -107 q 294 -354 429 -258 l 251 -315 l 251 -306 q 322 -189 322 -247 q 282 -121 322 -150 l 282 -110 q 375 -68 324 -82 z "},"ț":{"ha":613,"x_min":39,"x_max":572,"o":"m 565 578 l 431 588 l 372 588 l 368 221 l 374 0 l 240 0 l 246 208 l 243 588 l 185 588 l 49 578 l 39 589 l 49 696 l 567 696 l 572 685 l 565 578 m 339 -68 q 393 -162 393 -107 q 258 -354 393 -258 l 215 -315 l 215 -306 q 286 -189 286 -247 q 246 -121 286 -150 l 246 -110 q 339 -68 288 -82 z "},"ȷ":{"ha":417,"x_min":29,"x_max":297,"o":"m 292 229 l 292 131 q 249 -13 292 42 q 100 -115 207 -68 l 51 -47 l 51 -35 q 142 36 115 -1 q 168 129 168 74 l 168 215 l 165 596 l 38 594 l 29 603 l 38 696 l 297 696 l 292 229 z "},"ˆ":{"ha":540,"x_min":71,"x_max":467,"o":"m 71 782 q 251 972 150 857 l 288 972 q 467 782 388 857 l 429 726 l 415 726 q 269 865 319 810 q 124 726 221 814 l 108 726 l 71 782 z "},"ˇ":{"ha":540,"x_min":72,"x_max":468,"o":"m 468 917 q 288 726 389 842 l 251 726 q 72 917 151 842 l 110 972 l 124 972 q 269 833 219 889 q 415 972 318 885 l 431 972 l 468 917 z "},"ˉ":{"ha":540,"x_min":67,"x_max":475,"o":"m 468 804 l 76 804 l 67 815 l 74 896 l 465 896 l 475 886 l 468 804 z "},"˘":{"ha":540,"x_min":81,"x_max":460,"o":"m 460 899 q 393 778 442 822 q 267 733 344 733 q 144 778 190 733 q 81 899 99 822 l 117 949 l 138 949 q 271 833 167 833 q 404 949 375 833 l 425 949 l 460 899 z "},"˙":{"ha":346,"x_min":93,"x_max":247,"o":"m 174 938 q 228 917 208 938 q 247 861 247 897 q 226 801 247 824 q 169 779 206 779 q 113 800 133 779 q 93 857 93 821 q 115 915 93 893 q 174 938 136 938 z "},"˚":{"ha":540,"x_min":146,"x_max":393,"o":"m 271 983 q 361 951 329 983 q 393 865 393 919 q 358 773 393 806 q 267 740 324 740 q 178 772 211 740 q 146 861 146 804 q 178 951 146 918 q 271 983 211 983 m 268 919 q 210 864 210 919 q 269 803 210 803 q 329 861 329 803 q 268 919 329 919 z "},"˛":{"ha":540,"x_min":144,"x_max":401,"o":"m 254 -65 q 231 -132 231 -101 q 244 -171 231 -156 q 285 -186 258 -186 q 378 -137 329 -186 l 386 -137 l 401 -203 q 263 -274 329 -274 q 177 -242 210 -274 q 144 -158 144 -210 q 182 -50 144 -107 l 269 75 l 346 75 l 254 -65 z "},"˜":{"ha":540,"x_min":40,"x_max":499,"o":"m 499 890 l 408 783 l 394 776 q 282 804 369 781 q 179 828 200 828 q 118 782 160 828 l 97 760 l 83 760 l 40 804 l 40 817 l 131 924 l 146 929 q 260 903 183 924 q 361 879 342 879 q 389 891 375 879 q 419 921 403 903 q 443 947 436 939 l 457 947 l 499 903 l 499 890 z "},"˝":{"ha":540,"x_min":39,"x_max":501,"o":"m 39 761 q 219 985 122 857 l 232 986 l 297 939 l 297 926 q 97 724 215 840 l 83 721 l 39 761 m 242 761 q 424 985 324 854 l 435 986 l 500 939 l 501 926 q 300 724 436 857 l 286 721 l 242 761 z "},"̃":{"ha":0,"x_min":40,"x_max":499,"o":"m 499 890 l 408 782 l 393 776 q 281 804 368 781 q 179 828 199 828 q 118 782 160 828 l 97 760 l 83 760 l 40 804 l 40 817 l 132 924 l 147 929 q 264 901 172 925 q 361 879 347 879 q 389 891 375 879 q 419 921 403 903 q 443 947 436 939 l 457 947 l 499 903 l 499 890 z "},"̣":{"ha":0,"x_min":89,"x_max":243,"o":"m 169 -158 q 224 -178 204 -158 q 243 -235 243 -199 q 222 -294 243 -272 q 165 -317 201 -317 q 109 -296 129 -317 q 89 -239 89 -275 q 110 -181 89 -203 q 169 -158 132 -158 z "},"̦":{"ha":0,"x_min":67,"x_max":246,"o":"m 191 -97 q 246 -193 246 -137 q 111 -383 246 -287 l 69 -345 l 68 -335 q 138 -218 138 -278 q 98 -151 138 -179 l 98 -139 q 191 -97 145 -109 z "},"Δ":{"ha":815,"x_min":15,"x_max":789,"o":"m 15 0 l 332 892 l 500 892 l 789 0 l 15 0 m 185 115 l 615 115 l 418 751 l 408 751 l 185 115 z "},"Ω":{"ha":1039,"x_min":44,"x_max":993,"o":"m 529 903 q 744 851 657 903 q 876 711 832 799 q 919 517 919 624 q 874 302 919 408 q 742 115 829 196 l 744 108 l 871 108 l 985 121 l 993 111 l 976 -7 l 829 0 l 640 0 l 589 -3 l 581 3 l 581 107 q 722 284 672 178 q 771 501 771 390 q 707 707 771 628 q 518 786 643 786 q 331 708 393 786 q 268 504 268 631 q 317 286 268 393 q 456 107 367 179 l 456 3 l 449 -3 l 396 0 l 182 0 l 54 -4 l 44 6 l 63 118 l 185 108 l 293 108 l 294 115 q 164 294 208 193 q 119 501 119 396 q 167 703 119 611 q 306 849 214 794 q 529 903 399 903 z "},"μ":{"ha":715,"x_min":92,"x_max":688,"o":"m 672 21 q 583 -8 632 -8 q 517 13 542 -8 q 479 83 492 35 l 468 83 q 303 -8 390 11 q 225 6 257 -8 l 225 -257 l 92 -257 l 97 268 l 92 631 l 225 643 l 225 211 q 252 135 226 163 q 324 108 278 108 q 472 179 397 108 l 472 631 l 607 643 l 597 156 q 633 94 596 94 q 676 108 654 94 l 688 99 l 672 21 z "},"π":{"ha":897,"x_min":3,"x_max":842,"o":"m 694 156 q 731 94 694 94 q 779 108 757 94 l 792 100 l 775 21 q 686 -8 724 -8 q 568 138 568 -8 l 568 582 l 353 582 l 353 281 l 357 -128 l 221 -128 l 225 268 l 222 582 l 181 582 q 145 567 164 582 q 89 514 126 551 l 61 485 l 44 485 l 3 539 l 3 554 l 119 686 l 143 696 l 832 697 l 842 685 l 831 581 l 697 582 l 694 156 z "},"Ẁ":{"ha":1246,"x_min":28,"x_max":1236,"o":"m 503 1215 q 778 1067 597 1160 l 754 1006 l 739 1000 q 457 1114 549 1074 l 451 1128 l 489 1213 l 503 1215 m 778 0 l 621 479 l 610 479 l 447 0 l 297 0 l 28 892 l 169 892 l 183 796 l 376 153 l 388 153 l 563 669 l 492 892 l 638 892 l 660 782 l 854 153 l 864 153 l 1081 788 l 1101 892 l 1236 892 l 926 0 l 778 0 z "},"ẁ":{"ha":1071,"x_min":42,"x_max":1047,"o":"m 422 1039 q 660 833 514 951 l 624 778 l 610 776 q 358 949 468 868 l 356 963 l 408 1038 l 422 1039 m 654 0 l 535 344 l 525 344 l 400 0 l 256 0 l 42 696 l 175 696 l 188 613 l 333 143 l 343 143 l 478 525 l 426 696 l 564 696 l 579 600 l 728 143 l 738 143 l 901 606 l 919 696 l 1047 696 l 799 0 l 654 0 z "},"Ẃ":{"ha":1246,"x_min":28,"x_max":1236,"o":"m 778 0 l 621 479 l 611 479 l 449 0 l 297 0 l 28 892 l 169 892 l 185 796 l 376 153 l 388 153 l 563 669 l 492 892 l 638 892 l 660 782 l 854 153 l 865 153 l 1081 788 l 1103 892 l 1236 892 l 928 0 l 778 0 m 813 1126 l 807 1113 q 525 999 715 1072 l 510 1004 l 486 1065 q 761 1214 667 1158 l 775 1211 l 813 1126 z "},"ẃ":{"ha":1071,"x_min":42,"x_max":1047,"o":"m 656 0 l 535 344 l 525 344 l 400 0 l 257 0 l 42 696 l 176 696 l 189 613 l 333 143 l 343 143 l 479 525 l 426 696 l 564 696 l 581 600 l 728 143 l 739 143 l 901 606 l 921 696 l 1047 696 l 799 0 l 656 0 m 697 963 l 694 949 q 443 776 585 868 l 429 778 l 393 833 q 631 1039 539 951 l 644 1038 l 697 963 z "},"Ẅ":{"ha":1246,"x_min":28,"x_max":1236,"o":"m 503 1175 q 554 1156 536 1175 q 572 1104 572 1138 q 553 1048 572 1068 q 499 1028 533 1028 q 428 1100 428 1028 q 448 1155 428 1135 q 503 1175 468 1175 m 731 1175 q 782 1156 764 1175 q 800 1104 800 1138 q 781 1048 800 1068 q 726 1028 761 1028 q 656 1100 656 1028 q 676 1155 656 1135 q 731 1175 696 1175 m 778 0 l 621 479 l 610 479 l 447 0 l 297 0 l 28 892 l 169 892 l 183 796 l 376 153 l 388 153 l 563 669 l 492 892 l 638 892 l 660 782 l 854 153 l 864 153 l 1081 788 l 1101 892 l 1236 892 l 926 0 l 778 0 z "},"ẅ":{"ha":1071,"x_min":42,"x_max":1047,"o":"m 397 979 q 449 960 431 979 q 467 908 467 942 q 447 852 467 872 q 393 832 428 832 q 322 904 322 832 q 342 959 322 939 q 397 979 363 979 m 625 979 q 676 960 658 979 q 694 908 694 942 q 675 852 694 872 q 621 832 656 832 q 550 904 550 832 q 570 959 550 939 q 625 979 590 979 m 654 0 l 535 344 l 525 344 l 400 0 l 256 0 l 42 696 l 175 696 l 188 613 l 333 143 l 343 143 l 478 525 l 426 696 l 564 696 l 579 600 l 728 143 l 738 143 l 901 606 l 919 696 l 1047 696 l 799 0 l 654 0 z "},"ẞ":{"ha":899,"x_min":93,"x_max":863,"o":"m 456 901 q 797 811 606 901 l 803 786 l 585 514 q 741 441 682 476 q 831 358 800 406 q 863 242 863 310 q 824 106 863 163 q 721 19 786 49 q 575 -11 656 -11 q 338 49 450 -11 l 357 190 l 374 199 q 480 127 424 153 q 586 101 536 101 q 683 137 646 101 q 721 226 721 172 q 651 340 721 292 q 415 440 582 388 l 408 467 l 624 743 q 449 785 532 785 q 291 733 346 785 q 235 583 236 681 l 232 281 l 238 0 l 93 0 l 103 264 l 99 583 q 140 750 97 678 q 263 862 182 822 q 456 901 344 901 z "},"Ạ":{"ha":815,"x_min":15,"x_max":788,"o":"m 642 0 l 621 100 l 582 224 l 393 228 l 221 224 l 181 107 l 158 0 l 15 0 l 332 892 l 501 892 l 788 0 l 642 0 m 418 751 l 407 751 l 263 340 l 404 338 l 546 340 l 418 751 m 406 -86 q 460 -106 440 -86 q 479 -162 479 -126 q 458 -222 479 -200 q 401 -244 438 -244 q 345 -224 365 -244 q 325 -167 325 -203 q 347 -108 325 -131 q 406 -86 368 -86 z "},"ạ":{"ha":721,"x_min":29,"x_max":679,"o":"m 543 0 l 526 86 l 501 163 l 344 164 l 207 163 l 181 93 l 160 0 l 29 0 l 288 696 l 443 696 l 679 0 l 543 0 m 367 571 l 358 571 l 246 267 l 354 265 l 467 267 l 367 571 m 360 -86 q 414 -106 394 -86 q 433 -162 433 -126 q 413 -222 433 -200 q 356 -244 392 -244 q 299 -224 319 -244 q 279 -167 279 -203 q 301 -108 279 -131 q 360 -86 322 -86 z "},"Ả":{"ha":815,"x_min":15,"x_max":789,"o":"m 642 0 l 621 100 l 582 224 l 393 228 l 222 224 l 181 107 l 158 0 l 15 0 l 333 892 l 501 892 l 789 0 l 642 0 m 418 751 l 408 751 l 263 340 l 403 338 l 546 340 l 418 751 m 400 1257 q 470 1232 442 1257 q 499 1169 499 1207 q 481 1119 499 1143 q 424 1061 464 1094 l 453 1010 l 397 979 l 347 1061 q 418 1156 418 1114 q 379 1185 418 1185 q 296 1151 338 1185 l 269 1193 q 400 1257 333 1257 z "},"ả":{"ha":721,"x_min":29,"x_max":679,"o":"m 544 0 l 526 86 l 501 163 l 346 164 l 207 163 l 181 93 l 161 0 l 29 0 l 289 696 l 444 696 l 679 0 l 544 0 m 368 571 l 358 571 l 246 267 l 356 265 l 467 267 l 368 571 m 358 1061 q 428 1036 400 1061 q 457 974 457 1011 q 440 923 457 947 q 382 865 422 899 l 411 814 l 356 783 l 306 865 q 376 960 376 918 q 338 989 376 989 q 254 956 296 989 l 228 997 q 358 1061 292 1061 z "},"Ấ":{"ha":815,"x_min":15,"x_max":789,"o":"m 642 0 l 621 100 l 582 224 l 393 228 l 222 224 l 181 107 l 158 0 l 15 0 l 333 892 l 501 892 l 789 0 l 642 0 m 418 751 l 408 751 l 263 340 l 403 338 l 546 340 l 418 751 m 667 1297 l 546 1146 l 533 1146 l 485 1185 l 582 1339 l 594 1343 l 664 1310 l 667 1297 m 219 1047 q 392 1181 311 1108 l 425 1181 q 597 1047 500 1114 l 571 988 l 556 988 l 531 1003 q 408 1079 424 1069 q 263 988 369 1053 l 247 988 l 219 1047 z "},"ấ":{"ha":721,"x_min":29,"x_max":679,"o":"m 544 0 l 526 86 l 501 163 l 346 164 l 207 163 l 181 93 l 161 0 l 29 0 l 289 696 l 444 696 l 679 0 l 544 0 m 368 571 l 358 571 l 246 267 l 356 265 l 467 267 l 368 571 m 625 1101 l 504 950 l 492 950 l 443 989 l 540 1143 l 553 1147 l 622 1114 l 625 1101 m 178 851 q 350 985 269 913 l 383 985 q 556 851 458 918 l 529 792 l 514 792 l 489 807 q 367 883 382 874 q 221 792 328 857 l 206 792 l 178 851 z "},"Ầ":{"ha":815,"x_min":15,"x_max":789,"o":"m 642 0 l 621 100 l 582 224 l 393 228 l 222 224 l 181 107 l 158 0 l 15 0 l 333 892 l 501 892 l 789 0 l 642 0 m 418 751 l 408 751 l 263 340 l 403 338 l 546 340 l 418 751 m 615 1185 l 567 1146 l 554 1146 l 433 1297 l 436 1310 l 507 1343 l 518 1339 l 615 1185 m 219 1047 q 392 1181 311 1108 l 425 1181 q 597 1047 500 1114 l 571 988 l 556 988 l 531 1003 q 408 1079 424 1069 q 263 988 369 1053 l 247 988 l 219 1047 z "},"ầ":{"ha":721,"x_min":29,"x_max":679,"o":"m 544 0 l 526 86 l 501 163 l 346 164 l 207 163 l 181 93 l 161 0 l 29 0 l 289 696 l 444 696 l 679 0 l 544 0 m 368 571 l 358 571 l 246 267 l 356 265 l 467 267 l 368 571 m 574 989 l 525 950 l 513 950 l 392 1101 l 394 1114 l 465 1147 l 476 1143 l 574 989 m 178 851 q 350 985 269 913 l 383 985 q 556 851 458 918 l 529 792 l 514 792 l 489 807 q 367 883 382 874 q 221 792 328 857 l 206 792 l 178 851 z "},"Ẩ":{"ha":815,"x_min":15,"x_max":788,"o":"m 525 1332 q 446 1300 485 1332 l 421 1339 q 544 1400 479 1400 q 611 1376 585 1400 q 638 1317 638 1353 q 622 1269 638 1292 q 567 1214 606 1246 l 594 1165 l 542 1135 l 494 1214 q 561 1303 561 1265 q 525 1332 561 1332 m 219 1047 q 392 1181 311 1108 l 425 1181 q 597 1047 500 1114 l 571 988 l 556 988 l 531 1003 q 408 1079 424 1069 q 263 988 369 1053 l 247 988 l 219 1047 m 642 0 l 621 100 l 582 224 l 393 228 l 221 224 l 181 107 l 158 0 l 15 0 l 332 892 l 501 892 l 788 0 l 642 0 m 418 751 l 407 751 l 263 340 l 404 338 l 546 340 l 418 751 z "},"ẩ":{"ha":721,"x_min":29,"x_max":679,"o":"m 483 1136 q 404 1104 443 1136 l 379 1143 q 503 1204 438 1204 q 569 1181 543 1204 q 596 1121 596 1157 q 580 1073 596 1096 q 525 1018 564 1050 l 553 969 l 500 939 l 453 1018 q 519 1107 519 1069 q 483 1136 519 1136 m 178 851 q 350 985 269 913 l 383 985 q 556 851 458 918 l 529 792 l 514 792 l 489 807 q 367 883 382 874 q 221 792 328 857 l 206 792 l 178 851 m 543 0 l 526 86 l 501 163 l 344 164 l 207 163 l 181 93 l 160 0 l 29 0 l 288 696 l 443 696 l 679 0 l 543 0 m 367 571 l 358 571 l 246 267 l 354 265 l 467 267 l 367 571 z "},"Ẫ":{"ha":815,"x_min":15,"x_max":788,"o":"m 200 1238 l 200 1250 l 285 1353 l 299 1358 q 408 1331 340 1353 q 499 1310 482 1310 q 556 1353 517 1310 l 576 1375 l 589 1375 l 628 1333 l 628 1321 l 544 1218 l 529 1213 q 422 1239 507 1215 q 329 1261 344 1261 q 304 1250 317 1261 q 276 1222 292 1239 q 253 1196 261 1206 l 240 1196 l 200 1238 m 425 1181 q 597 1047 500 1114 l 571 988 l 556 988 l 531 1003 q 408 1079 424 1069 q 263 988 369 1053 l 247 988 l 219 1047 q 392 1181 311 1108 l 425 1181 m 642 0 l 621 100 l 582 224 l 393 228 l 221 224 l 181 107 l 158 0 l 15 0 l 332 892 l 501 892 l 788 0 l 642 0 m 418 751 l 407 751 l 263 340 l 404 338 l 546 340 l 418 751 z "},"ẫ":{"ha":721,"x_min":29,"x_max":679,"o":"m 158 1042 l 158 1054 l 243 1157 l 257 1163 q 367 1135 299 1157 q 457 1114 440 1114 q 514 1157 475 1114 l 535 1179 l 547 1179 l 586 1138 l 586 1125 l 503 1022 l 488 1017 q 381 1043 465 1019 q 288 1065 303 1065 q 263 1054 275 1065 q 235 1026 250 1043 q 211 1000 219 1010 l 199 1000 l 158 1042 m 383 985 q 556 851 458 918 l 529 792 l 514 792 l 489 807 q 367 883 382 874 q 221 792 328 857 l 206 792 l 178 851 q 350 985 269 913 l 383 985 m 543 0 l 526 86 l 501 163 l 344 164 l 207 163 l 181 93 l 160 0 l 29 0 l 288 696 l 443 696 l 679 0 l 543 0 m 367 571 l 358 571 l 246 267 l 354 265 l 467 267 l 367 571 z "},"Ậ":{"ha":815,"x_min":15,"x_max":788,"o":"m 218 1074 q 390 1207 310 1135 l 424 1207 q 596 1074 499 1140 l 569 1014 l 554 1014 l 529 1029 q 407 1106 422 1096 q 261 1014 368 1079 l 246 1014 l 218 1074 m 642 0 l 621 100 l 582 224 l 393 228 l 221 224 l 181 107 l 158 0 l 15 0 l 332 892 l 501 892 l 788 0 l 642 0 m 418 751 l 407 751 l 263 340 l 404 338 l 546 340 l 418 751 m 406 -86 q 460 -106 440 -86 q 479 -162 479 -126 q 458 -222 479 -200 q 401 -244 438 -244 q 345 -224 365 -244 q 325 -167 325 -203 q 347 -108 325 -131 q 406 -86 368 -86 z "},"ậ":{"ha":721,"x_min":29,"x_max":679,"o":"m 171 839 q 351 1029 250 914 l 388 1029 q 567 839 488 914 l 529 783 l 515 783 q 369 922 419 867 q 224 783 321 871 l 208 783 l 171 839 m 543 0 l 526 86 l 501 163 l 344 164 l 207 163 l 181 93 l 160 0 l 29 0 l 288 696 l 443 696 l 679 0 l 543 0 m 367 571 l 358 571 l 246 267 l 354 265 l 467 267 l 367 571 m 360 -86 q 414 -106 394 -86 q 433 -162 433 -126 q 413 -222 433 -200 q 356 -244 392 -244 q 299 -224 319 -244 q 279 -167 279 -203 q 301 -108 279 -131 q 360 -86 322 -86 z "},"Ắ":{"ha":815,"x_min":15,"x_max":789,"o":"m 642 0 l 621 100 l 582 224 l 393 228 l 222 224 l 181 107 l 158 0 l 15 0 l 333 892 l 501 892 l 789 0 l 642 0 m 418 751 l 408 751 l 263 340 l 403 338 l 546 340 l 418 751 m 551 1290 q 407 1149 490 1226 l 394 1146 l 349 1185 q 472 1344 422 1276 l 485 1347 l 550 1303 l 551 1290 m 599 1111 q 526 1012 576 1047 q 407 976 476 976 q 290 1011 338 976 q 219 1111 242 1046 l 256 1157 l 276 1157 q 411 1076 310 1076 q 543 1157 508 1076 l 564 1157 l 599 1111 z "},"ắ":{"ha":721,"x_min":29,"x_max":679,"o":"m 544 0 l 526 86 l 501 163 l 346 164 l 207 163 l 181 93 l 161 0 l 29 0 l 289 696 l 444 696 l 679 0 l 544 0 m 368 571 l 358 571 l 246 267 l 356 265 l 467 267 l 368 571 m 510 1094 q 365 953 449 1031 l 353 950 l 307 989 q 431 1149 381 1081 l 443 1151 l 508 1107 l 510 1094 m 557 915 q 485 816 535 851 q 365 781 435 781 q 248 815 296 781 q 178 915 200 850 l 214 961 l 235 961 q 369 881 268 881 q 501 961 467 881 l 522 961 l 557 915 z "},"Ằ":{"ha":815,"x_min":15,"x_max":789,"o":"m 642 0 l 621 100 l 582 224 l 393 228 l 222 224 l 181 107 l 158 0 l 15 0 l 333 892 l 501 892 l 789 0 l 642 0 m 418 751 l 408 751 l 263 340 l 403 338 l 546 340 l 418 751 m 346 1344 q 469 1185 411 1254 l 424 1146 l 410 1149 q 267 1290 314 1243 l 267 1303 l 333 1347 l 346 1344 m 599 1111 q 526 1012 576 1047 q 407 976 476 976 q 290 1011 338 976 q 219 1111 242 1046 l 256 1157 l 276 1157 q 411 1076 310 1076 q 543 1157 508 1076 l 564 1157 l 599 1111 z "},"ằ":{"ha":721,"x_min":29,"x_max":679,"o":"m 544 0 l 526 86 l 501 163 l 346 164 l 207 163 l 181 93 l 161 0 l 29 0 l 289 696 l 444 696 l 679 0 l 544 0 m 368 571 l 358 571 l 246 267 l 356 265 l 467 267 l 368 571 m 304 1149 q 428 989 369 1058 l 382 950 l 368 953 q 225 1094 272 1047 l 225 1107 l 292 1151 l 304 1149 m 557 915 q 485 816 535 851 q 365 781 435 781 q 248 815 296 781 q 178 915 200 850 l 214 961 l 235 961 q 369 881 268 881 q 501 961 467 881 l 522 961 l 557 915 z "},"Ẳ":{"ha":815,"x_min":15,"x_max":788,"o":"m 386 1347 q 303 1314 344 1347 l 276 1356 q 407 1419 340 1419 q 477 1394 449 1419 q 506 1332 506 1369 q 488 1281 506 1306 q 431 1224 471 1257 l 460 1172 l 404 1142 l 354 1224 q 425 1318 425 1276 q 386 1347 425 1347 m 407 976 q 290 1011 338 976 q 219 1111 242 1046 l 256 1157 l 276 1157 q 411 1076 310 1076 q 543 1157 508 1076 l 564 1157 l 599 1111 q 526 1012 576 1047 q 407 976 476 976 m 642 0 l 621 100 l 582 224 l 393 228 l 221 224 l 181 107 l 158 0 l 15 0 l 332 892 l 501 892 l 788 0 l 642 0 m 418 751 l 407 751 l 263 340 l 404 338 l 546 340 l 418 751 z "},"ẳ":{"ha":721,"x_min":29,"x_max":679,"o":"m 344 1151 q 261 1118 303 1151 l 235 1160 q 365 1224 299 1224 q 435 1199 407 1224 q 464 1136 464 1174 q 447 1085 464 1110 q 389 1028 429 1061 l 418 976 l 363 946 l 313 1028 q 383 1122 383 1081 q 344 1151 383 1151 m 365 781 q 248 815 296 781 q 178 915 200 850 l 214 961 l 235 961 q 369 881 268 881 q 501 961 467 881 l 522 961 l 557 915 q 485 816 535 851 q 365 781 435 781 m 543 0 l 526 86 l 501 163 l 344 164 l 207 163 l 181 93 l 160 0 l 29 0 l 288 696 l 443 696 l 679 0 l 543 0 m 367 571 l 358 571 l 246 267 l 354 265 l 467 267 l 367 571 z "},"Ẵ":{"ha":815,"x_min":15,"x_max":788,"o":"m 200 1238 l 200 1250 l 285 1353 l 299 1358 q 408 1331 340 1353 q 499 1310 482 1310 q 556 1353 517 1310 l 576 1375 l 589 1375 l 628 1333 l 628 1321 l 544 1218 l 529 1213 q 422 1239 507 1215 q 329 1261 344 1261 q 304 1250 317 1261 q 276 1222 292 1239 q 253 1196 261 1206 l 240 1196 l 200 1238 m 415 1074 q 542 1153 508 1074 l 563 1153 l 597 1107 q 526 1011 575 1044 q 411 978 478 978 q 297 1011 343 978 q 231 1107 250 1044 l 264 1153 l 285 1153 q 415 1074 318 1074 m 642 0 l 621 100 l 582 224 l 393 228 l 221 224 l 181 107 l 158 0 l 15 0 l 332 892 l 501 892 l 788 0 l 642 0 m 418 751 l 407 751 l 263 340 l 404 338 l 546 340 l 418 751 z "},"ẵ":{"ha":721,"x_min":29,"x_max":679,"o":"m 158 1042 l 158 1054 l 243 1157 l 257 1163 q 367 1135 299 1157 q 457 1114 440 1114 q 514 1157 475 1114 l 535 1179 l 547 1179 l 586 1138 l 586 1125 l 503 1022 l 488 1017 q 381 1043 465 1019 q 288 1065 303 1065 q 263 1054 275 1065 q 235 1026 250 1043 q 211 1000 219 1010 l 199 1000 l 158 1042 m 374 878 q 500 957 467 878 l 521 957 l 556 911 q 485 815 533 849 q 369 782 436 782 q 255 815 301 782 q 189 911 208 849 l 222 957 l 243 957 q 374 878 276 878 m 543 0 l 526 86 l 501 163 l 344 164 l 207 163 l 181 93 l 160 0 l 29 0 l 288 696 l 443 696 l 679 0 l 543 0 m 367 571 l 358 571 l 246 267 l 354 265 l 467 267 l 367 571 z "},"Ặ":{"ha":815,"x_min":15,"x_max":788,"o":"m 406 1003 q 290 1038 338 1003 q 219 1138 242 1072 l 256 1183 l 276 1183 q 411 1103 310 1103 q 542 1183 507 1103 l 563 1183 l 599 1138 q 525 1038 575 1072 q 406 1003 475 1003 m 642 0 l 621 100 l 582 224 l 393 228 l 221 224 l 181 107 l 158 0 l 15 0 l 332 892 l 501 892 l 788 0 l 642 0 m 418 751 l 407 751 l 263 340 l 404 338 l 546 340 l 418 751 m 406 -86 q 460 -106 440 -86 q 479 -162 479 -126 q 458 -222 479 -200 q 401 -244 438 -244 q 345 -224 365 -244 q 325 -167 325 -203 q 347 -108 325 -131 q 406 -86 368 -86 z "},"ặ":{"ha":721,"x_min":29,"x_max":679,"o":"m 365 789 q 243 833 289 789 q 179 954 197 878 l 215 1004 l 236 1004 q 369 889 265 889 q 503 1004 474 889 l 524 1004 l 558 954 q 492 833 540 878 q 365 789 443 789 m 543 0 l 526 86 l 501 163 l 344 164 l 207 163 l 181 93 l 160 0 l 29 0 l 288 696 l 443 696 l 679 0 l 543 0 m 367 571 l 358 571 l 246 267 l 354 265 l 467 267 l 367 571 m 360 -86 q 414 -106 394 -86 q 433 -162 433 -126 q 413 -222 433 -200 q 356 -244 392 -244 q 299 -224 319 -244 q 279 -167 279 -203 q 301 -108 279 -131 q 360 -86 322 -86 z "},"Ẹ":{"ha":685,"x_min":119,"x_max":657,"o":"m 656 110 l 646 0 l 119 0 l 129 268 l 119 892 l 649 892 l 657 879 l 646 769 l 435 775 l 265 774 l 261 514 l 422 511 l 569 515 l 579 504 l 568 394 l 411 399 l 260 396 l 258 281 l 261 117 l 432 115 l 647 122 l 656 110 m 400 -86 q 454 -106 435 -86 q 474 -162 474 -126 q 453 -222 474 -200 q 396 -244 432 -244 q 340 -224 360 -244 q 319 -167 319 -203 q 341 -108 319 -131 q 400 -86 363 -86 z "},"ẹ":{"ha":617,"x_min":115,"x_max":574,"o":"m 572 101 l 563 0 l 115 0 l 121 208 l 115 696 l 565 696 l 574 685 l 564 583 l 388 590 l 249 589 l 246 408 l 379 407 l 500 411 l 508 400 l 499 297 l 368 301 l 244 300 l 243 221 l 246 107 l 376 106 l 564 111 l 572 101 m 347 -86 q 401 -106 382 -86 q 421 -162 421 -126 q 400 -222 421 -200 q 343 -244 379 -244 q 287 -224 307 -244 q 267 -167 267 -203 q 288 -108 267 -131 q 347 -86 310 -86 z "},"Ẻ":{"ha":685,"x_min":119,"x_max":657,"o":"m 656 110 l 646 0 l 119 0 l 129 268 l 119 892 l 649 892 l 657 879 l 646 769 l 435 775 l 265 774 l 261 514 l 422 511 l 569 515 l 579 504 l 568 394 l 411 399 l 260 396 l 258 281 l 263 117 l 432 115 l 647 122 l 656 110 m 376 1257 q 447 1232 418 1257 q 475 1169 475 1207 q 458 1119 475 1143 q 400 1061 440 1094 l 429 1010 l 374 979 l 324 1061 q 394 1156 394 1114 q 356 1185 394 1185 q 272 1151 314 1185 l 246 1193 q 376 1257 310 1257 z "},"ẻ":{"ha":617,"x_min":115,"x_max":574,"o":"m 572 101 l 561 0 l 115 0 l 121 208 l 115 696 l 565 696 l 574 685 l 564 583 l 388 590 l 249 589 l 246 408 l 379 407 l 500 411 l 507 400 l 499 297 l 368 301 l 244 300 l 243 221 l 246 107 l 375 106 l 563 111 l 572 101 m 331 1061 q 401 1036 372 1061 q 429 974 429 1011 q 412 923 429 947 q 354 865 394 899 l 383 814 l 328 783 l 278 865 q 349 960 349 918 q 310 989 349 989 q 226 956 268 989 l 200 997 q 331 1061 264 1061 z "},"Ẽ":{"ha":685,"x_min":119,"x_max":657,"o":"m 656 110 l 646 0 l 119 0 l 129 268 l 119 892 l 649 892 l 657 879 l 646 769 l 435 775 l 265 774 l 261 514 l 422 511 l 569 515 l 579 504 l 568 394 l 411 399 l 260 396 l 258 281 l 263 117 l 432 115 l 647 122 l 656 110 m 614 1142 l 524 1035 l 510 1028 q 397 1056 485 1032 q 294 1079 315 1079 q 233 1033 275 1079 l 213 1011 l 199 1011 l 156 1056 l 156 1068 l 246 1175 l 261 1181 q 375 1154 299 1175 q 476 1131 457 1131 q 504 1142 490 1131 q 535 1172 518 1154 q 558 1199 551 1190 l 572 1199 l 614 1154 l 614 1142 z "},"ẽ":{"ha":617,"x_min":110,"x_max":574,"o":"m 572 101 l 561 0 l 115 0 l 121 208 l 115 696 l 565 696 l 574 685 l 564 583 l 388 590 l 249 589 l 246 408 l 379 407 l 500 411 l 507 400 l 499 297 l 368 301 l 244 300 l 243 221 l 246 107 l 375 106 l 563 111 l 572 101 m 568 946 l 478 839 l 464 832 q 351 860 439 836 q 249 883 269 883 q 188 838 229 883 l 167 815 l 153 815 l 110 860 l 110 872 l 200 979 l 215 985 q 329 958 253 979 q 431 935 411 935 q 458 947 444 935 q 489 976 472 958 q 513 1003 506 994 l 526 1003 l 568 958 l 568 946 z "},"Ế":{"ha":685,"x_min":119,"x_max":657,"o":"m 656 110 l 646 0 l 119 0 l 129 268 l 119 892 l 649 892 l 657 879 l 646 769 l 435 775 l 265 774 l 261 514 l 422 511 l 569 515 l 579 504 l 568 394 l 411 399 l 260 396 l 258 281 l 263 117 l 432 115 l 647 122 l 656 110 m 643 1297 l 522 1146 l 510 1146 l 461 1185 l 558 1339 l 571 1343 l 640 1310 l 643 1297 m 196 1047 q 368 1181 288 1108 l 401 1181 q 574 1047 476 1114 l 547 988 l 532 988 l 507 1003 q 385 1079 400 1069 q 239 988 346 1053 l 224 988 l 196 1047 z "},"ế":{"ha":617,"x_min":115,"x_max":597,"o":"m 572 101 l 561 0 l 115 0 l 121 208 l 115 696 l 565 696 l 574 685 l 564 583 l 388 590 l 249 589 l 246 408 l 379 407 l 500 411 l 507 400 l 499 297 l 368 301 l 244 300 l 243 221 l 246 107 l 375 106 l 563 111 l 572 101 m 597 1101 l 476 950 l 464 950 l 415 989 l 513 1143 l 525 1147 l 594 1114 l 597 1101 m 150 851 q 322 985 242 913 l 356 985 q 528 851 431 918 l 501 792 l 486 792 l 461 807 q 339 883 354 874 q 193 792 300 857 l 178 792 l 150 851 z "},"Ề":{"ha":685,"x_min":119,"x_max":657,"o":"m 656 110 l 646 0 l 119 0 l 129 268 l 119 892 l 649 892 l 657 879 l 646 769 l 435 775 l 265 774 l 261 514 l 422 511 l 569 515 l 579 504 l 568 394 l 411 399 l 260 396 l 258 281 l 263 117 l 432 115 l 647 122 l 656 110 m 592 1185 l 543 1146 l 531 1146 l 410 1297 l 413 1310 l 483 1343 l 494 1339 l 592 1185 m 196 1047 q 368 1181 288 1108 l 401 1181 q 574 1047 476 1114 l 547 988 l 532 988 l 507 1003 q 385 1079 400 1069 q 239 988 346 1053 l 224 988 l 196 1047 z "},"ề":{"ha":617,"x_min":115,"x_max":574,"o":"m 572 101 l 561 0 l 115 0 l 121 208 l 115 696 l 565 696 l 574 685 l 564 583 l 388 590 l 249 589 l 246 408 l 379 407 l 500 411 l 507 400 l 499 297 l 368 301 l 244 300 l 243 221 l 246 107 l 375 106 l 563 111 l 572 101 m 546 989 l 497 950 l 485 950 l 364 1101 l 367 1114 l 438 1147 l 449 1143 l 546 989 m 150 851 q 322 985 242 913 l 356 985 q 528 851 431 918 l 501 792 l 486 792 l 461 807 q 339 883 354 874 q 193 792 300 857 l 178 792 l 150 851 z "},"Ể":{"ha":685,"x_min":119,"x_max":657,"o":"m 501 1332 q 422 1300 461 1332 l 397 1339 q 521 1400 456 1400 q 588 1376 561 1400 q 614 1317 614 1353 q 598 1269 614 1292 q 543 1214 582 1246 l 571 1165 l 518 1135 l 471 1214 q 538 1303 538 1265 q 501 1332 538 1332 m 196 1047 q 368 1181 288 1108 l 401 1181 q 574 1047 476 1114 l 547 988 l 532 988 l 507 1003 q 385 1079 400 1069 q 239 988 346 1053 l 224 988 l 196 1047 m 656 110 l 646 0 l 119 0 l 129 268 l 119 892 l 649 892 l 657 879 l 646 769 l 435 775 l 265 774 l 261 514 l 422 511 l 569 515 l 579 504 l 568 394 l 411 399 l 260 396 l 258 281 l 261 117 l 432 115 l 647 122 l 656 110 z "},"ể":{"ha":617,"x_min":115,"x_max":574,"o":"m 456 1136 q 376 1104 415 1136 l 351 1143 q 475 1204 410 1204 q 542 1181 515 1204 q 568 1121 568 1157 q 552 1073 568 1096 q 497 1018 536 1050 l 525 969 l 472 939 l 425 1018 q 492 1107 492 1069 q 456 1136 492 1136 m 150 851 q 322 985 242 913 l 356 985 q 528 851 431 918 l 501 792 l 486 792 l 461 807 q 339 883 354 874 q 193 792 300 857 l 178 792 l 150 851 m 572 101 l 563 0 l 115 0 l 121 208 l 115 696 l 565 696 l 574 685 l 564 583 l 388 590 l 249 589 l 246 408 l 379 407 l 500 411 l 508 400 l 499 297 l 368 301 l 244 300 l 243 221 l 246 107 l 376 106 l 564 111 l 572 101 z "},"Ễ":{"ha":685,"x_min":119,"x_max":657,"o":"m 656 110 l 646 0 l 119 0 l 129 268 l 119 892 l 649 892 l 657 879 l 646 769 l 435 775 l 265 774 l 261 514 l 422 511 l 569 515 l 579 504 l 568 394 l 411 399 l 260 396 l 258 281 l 263 117 l 432 115 l 647 122 l 656 110 m 592 1185 l 543 1146 l 531 1146 l 410 1297 l 413 1310 l 483 1343 l 494 1339 l 592 1185 m 196 1047 q 368 1181 288 1108 l 401 1181 q 574 1047 476 1114 l 547 988 l 532 988 l 507 1003 q 385 1079 400 1069 q 239 988 346 1053 l 224 988 l 196 1047 z "},"ễ":{"ha":617,"x_min":115,"x_max":574,"o":"m 131 1042 l 131 1054 l 215 1157 l 229 1163 q 339 1135 271 1157 q 429 1114 411 1114 q 486 1157 447 1114 l 507 1179 l 519 1179 l 558 1138 l 558 1125 l 475 1022 l 460 1017 q 353 1043 438 1019 q 260 1065 275 1065 q 235 1054 247 1065 q 207 1026 222 1043 q 183 1000 192 1010 l 171 1000 l 131 1042 m 356 985 q 528 851 431 918 l 501 792 l 486 792 l 461 807 q 339 883 354 874 q 193 792 300 857 l 178 792 l 150 851 q 322 985 242 913 l 356 985 m 572 101 l 563 0 l 115 0 l 121 208 l 115 696 l 565 696 l 574 685 l 564 583 l 388 590 l 249 589 l 246 408 l 379 407 l 500 411 l 508 400 l 499 297 l 368 301 l 244 300 l 243 221 l 246 107 l 376 106 l 564 111 l 572 101 z "},"Ệ":{"ha":685,"x_min":119,"x_max":657,"o":"m 197 1075 q 369 1208 289 1136 l 403 1208 q 575 1075 478 1142 l 549 1015 l 533 1015 l 508 1031 q 386 1107 401 1097 q 240 1015 347 1081 l 225 1015 l 197 1075 m 656 110 l 646 0 l 119 0 l 129 268 l 119 892 l 649 892 l 657 879 l 646 769 l 435 775 l 265 774 l 261 514 l 422 511 l 569 515 l 579 504 l 568 394 l 411 399 l 260 396 l 258 281 l 261 117 l 432 115 l 647 122 l 656 110 m 400 -86 q 454 -106 435 -86 q 474 -162 474 -126 q 453 -222 474 -200 q 396 -244 432 -244 q 340 -224 360 -244 q 319 -167 319 -203 q 341 -108 319 -131 q 400 -86 363 -86 z "},"ệ":{"ha":617,"x_min":115,"x_max":574,"o":"m 143 839 q 324 1029 222 914 l 360 1029 q 539 839 460 914 l 501 783 l 488 783 q 342 922 392 867 q 196 783 293 871 l 181 783 l 143 839 m 572 101 l 563 0 l 115 0 l 121 208 l 115 696 l 565 696 l 574 685 l 564 583 l 388 590 l 249 589 l 246 408 l 379 407 l 500 411 l 508 400 l 499 297 l 368 301 l 244 300 l 243 221 l 246 107 l 376 106 l 564 111 l 572 101 m 347 -86 q 401 -106 382 -86 q 421 -162 421 -126 q 400 -222 421 -200 q 343 -244 379 -244 q 287 -224 307 -244 q 267 -167 267 -203 q 288 -108 267 -131 q 347 -86 310 -86 z "},"Ỉ":{"ha":388,"x_min":53,"x_max":282,"o":"m 265 0 l 119 0 l 129 268 l 119 892 l 267 892 l 258 281 l 265 0 m 183 1257 q 253 1232 225 1257 q 282 1169 282 1207 q 265 1119 282 1143 q 207 1061 247 1094 l 236 1010 l 181 979 l 131 1061 q 201 1156 201 1114 q 163 1185 201 1185 q 79 1151 121 1185 l 53 1193 q 183 1257 117 1257 z "},"ỉ":{"ha":371,"x_min":47,"x_max":276,"o":"m 249 0 l 115 0 l 121 208 l 115 696 l 250 696 l 243 221 l 249 0 m 178 1061 q 248 1036 219 1061 q 276 974 276 1011 q 259 923 276 947 q 201 865 242 899 l 231 814 l 175 783 l 125 865 q 196 960 196 918 q 157 989 196 989 q 74 956 115 989 l 47 997 q 178 1061 111 1061 z "},"Ị":{"ha":388,"x_min":107,"x_max":267,"o":"m 264 0 l 119 0 l 129 268 l 119 892 l 267 892 l 258 281 l 264 0 m 188 -86 q 242 -106 222 -86 q 261 -162 261 -126 q 240 -222 261 -200 q 183 -244 219 -244 q 127 -224 147 -244 q 107 -167 107 -203 q 128 -108 107 -131 q 188 -86 150 -86 z "},"ị":{"ha":371,"x_min":103,"x_max":257,"o":"m 249 0 l 115 0 l 121 208 l 115 696 l 250 696 l 243 221 l 249 0 m 183 -86 q 238 -106 218 -86 q 257 -162 257 -126 q 236 -222 257 -200 q 179 -244 215 -244 q 123 -224 143 -244 q 103 -167 103 -203 q 124 -108 103 -131 q 183 -86 146 -86 z "},"Ọ":{"ha":888,"x_min":47,"x_max":840,"o":"m 457 903 q 741 789 642 903 q 840 464 840 675 q 734 112 840 236 q 431 -12 628 -12 q 147 105 247 -12 q 47 438 47 222 q 153 782 47 661 q 457 903 260 903 m 443 785 q 255 705 315 785 q 194 456 194 625 q 255 188 194 274 q 442 103 315 103 q 630 185 568 103 q 692 438 692 267 q 631 701 692 618 q 443 785 571 785 m 447 -86 q 501 -106 482 -86 q 521 -162 521 -126 q 500 -222 521 -200 q 443 -244 479 -244 q 387 -224 407 -244 q 367 -167 367 -203 q 388 -108 367 -131 q 447 -86 410 -86 z "},"ọ":{"ha":775,"x_min":56,"x_max":721,"o":"m 400 706 q 637 616 553 706 q 721 364 721 526 q 631 86 721 183 q 376 -11 542 -11 q 139 81 222 -11 q 56 340 56 172 q 145 610 56 515 q 400 706 235 706 m 388 596 q 241 540 288 596 q 194 357 194 483 q 240 158 194 218 q 386 97 286 97 q 535 153 488 97 q 582 338 582 210 q 536 536 582 476 q 388 596 490 596 m 393 -86 q 447 -106 428 -86 q 467 -162 467 -126 q 446 -222 467 -200 q 389 -244 425 -244 q 333 -224 353 -244 q 313 -167 313 -203 q 334 -108 313 -131 q 393 -86 356 -86 z "},"Ỏ":{"ha":888,"x_min":47,"x_max":840,"o":"m 457 903 q 741 789 642 903 q 840 464 840 675 q 733 112 840 236 q 431 -12 626 -12 q 147 105 247 -12 q 47 438 47 222 q 153 782 47 661 q 457 903 260 903 m 444 785 q 256 705 317 785 q 194 456 194 625 q 255 188 194 274 q 442 103 315 103 q 630 184 568 103 q 692 438 692 265 q 631 701 692 618 q 444 785 571 785 m 436 1257 q 506 1232 478 1257 q 535 1169 535 1207 q 517 1119 535 1143 q 460 1061 500 1094 l 489 1010 l 433 979 l 383 1061 q 454 1156 454 1114 q 415 1185 454 1185 q 332 1151 374 1185 l 306 1193 q 436 1257 369 1257 z "},"ỏ":{"ha":775,"x_min":56,"x_max":721,"o":"m 400 706 q 637 616 553 706 q 721 364 721 526 q 631 86 721 183 q 376 -11 542 -11 q 139 81 222 -11 q 56 340 56 172 q 145 610 56 515 q 400 706 235 706 m 388 596 q 241 540 288 596 q 194 357 194 483 q 240 157 194 217 q 386 97 286 97 q 535 153 488 97 q 582 338 582 210 q 536 536 582 476 q 388 596 490 596 m 381 1061 q 451 1036 422 1061 q 479 974 479 1011 q 462 923 479 947 q 404 865 444 899 l 433 814 l 378 783 l 328 865 q 399 960 399 918 q 360 989 399 989 q 276 956 318 989 l 250 997 q 381 1061 314 1061 z "},"Ố":{"ha":888,"x_min":47,"x_max":840,"o":"m 457 903 q 741 789 642 903 q 840 464 840 675 q 733 112 840 236 q 431 -12 626 -12 q 147 105 247 -12 q 47 438 47 222 q 153 782 47 661 q 457 903 260 903 m 444 785 q 256 705 317 785 q 194 456 194 625 q 255 188 194 274 q 442 103 315 103 q 630 184 568 103 q 692 438 692 265 q 631 701 692 618 q 444 785 571 785 m 701 1297 l 581 1146 l 568 1146 l 519 1185 l 617 1339 l 629 1343 l 699 1310 l 701 1297 m 254 1047 q 426 1181 346 1108 l 460 1181 q 632 1047 535 1114 l 606 988 l 590 988 l 565 1003 q 443 1079 458 1069 q 297 988 404 1053 l 282 988 l 254 1047 z "},"ố":{"ha":775,"x_min":56,"x_max":721,"o":"m 400 706 q 637 616 553 706 q 721 364 721 526 q 631 86 721 183 q 376 -11 542 -11 q 139 81 222 -11 q 56 340 56 172 q 145 610 56 515 q 400 706 235 706 m 388 596 q 241 540 288 596 q 194 357 194 483 q 240 157 194 217 q 386 97 286 97 q 535 153 488 97 q 582 338 582 210 q 536 536 582 476 q 388 596 490 596 m 647 1101 l 526 950 l 514 950 l 465 989 l 563 1143 l 575 1147 l 644 1114 l 647 1101 m 200 851 q 372 985 292 913 l 406 985 q 578 851 481 918 l 551 792 l 536 792 l 511 807 q 389 883 404 874 q 243 792 350 857 l 228 792 l 200 851 z "},"Ồ":{"ha":888,"x_min":47,"x_max":840,"o":"m 457 903 q 741 789 642 903 q 840 464 840 675 q 733 112 840 236 q 431 -12 626 -12 q 147 105 247 -12 q 47 438 47 222 q 153 782 47 661 q 457 903 260 903 m 444 785 q 256 705 317 785 q 194 456 194 625 q 255 188 194 274 q 442 103 315 103 q 630 184 568 103 q 692 438 692 265 q 631 701 692 618 q 444 785 571 785 m 650 1185 l 601 1146 l 589 1146 l 468 1297 l 471 1310 l 542 1343 l 553 1339 l 650 1185 m 254 1047 q 426 1181 346 1108 l 460 1181 q 632 1047 535 1114 l 606 988 l 590 988 l 565 1003 q 443 1079 458 1069 q 297 988 404 1053 l 282 988 l 254 1047 z "},"ồ":{"ha":775,"x_min":56,"x_max":721,"o":"m 400 706 q 637 616 553 706 q 721 364 721 526 q 631 86 721 183 q 376 -11 542 -11 q 139 81 222 -11 q 56 340 56 172 q 145 610 56 515 q 400 706 235 706 m 388 596 q 241 540 288 596 q 194 357 194 483 q 240 157 194 217 q 386 97 286 97 q 535 153 488 97 q 582 338 582 210 q 536 536 582 476 q 388 596 490 596 m 596 989 l 547 950 l 535 950 l 414 1101 l 417 1114 l 488 1147 l 499 1143 l 596 989 m 200 851 q 372 985 292 913 l 406 985 q 578 851 481 918 l 551 792 l 536 792 l 511 807 q 389 883 404 874 q 243 792 350 857 l 228 792 l 200 851 z "},"Ổ":{"ha":888,"x_min":47,"x_max":840,"o":"m 579 1400 q 646 1376 619 1400 q 672 1317 672 1353 q 656 1269 672 1292 q 601 1214 640 1246 l 629 1165 l 576 1135 l 529 1214 q 596 1303 596 1265 q 560 1332 596 1332 q 481 1300 519 1332 l 456 1339 q 579 1400 514 1400 m 254 1047 q 426 1181 346 1108 l 460 1181 q 632 1047 535 1114 l 606 988 l 590 988 l 565 1003 q 443 1079 458 1069 q 297 988 404 1053 l 282 988 l 254 1047 m 457 903 q 741 789 642 903 q 840 464 840 675 q 734 112 840 236 q 431 -12 628 -12 q 147 105 247 -12 q 47 438 47 222 q 153 782 47 661 q 457 903 260 903 m 443 785 q 255 705 315 785 q 194 456 194 625 q 255 188 194 274 q 442 103 315 103 q 630 185 568 103 q 692 438 692 267 q 631 701 692 618 q 443 785 571 785 z "},"ổ":{"ha":775,"x_min":56,"x_max":721,"o":"m 525 1204 q 592 1181 565 1204 q 618 1121 618 1157 q 602 1073 618 1096 q 547 1018 586 1050 l 575 969 l 522 939 l 475 1018 q 542 1107 542 1069 q 506 1136 542 1136 q 426 1104 465 1136 l 401 1143 q 525 1204 460 1204 m 200 851 q 372 985 292 913 l 406 985 q 578 851 481 918 l 551 792 l 536 792 l 511 807 q 389 883 404 874 q 243 792 350 857 l 228 792 l 200 851 m 400 706 q 637 616 553 706 q 721 364 721 526 q 631 86 721 183 q 376 -11 542 -11 q 139 81 222 -11 q 56 340 56 172 q 145 610 56 515 q 400 706 235 706 m 388 596 q 241 540 288 596 q 194 357 194 483 q 240 158 194 218 q 386 97 286 97 q 535 153 488 97 q 582 338 582 210 q 536 536 582 476 q 388 596 490 596 z "},"Ỗ":{"ha":888,"x_min":47,"x_max":840,"o":"m 663 1321 l 579 1218 l 564 1213 q 457 1239 542 1215 q 364 1261 379 1261 q 339 1250 351 1261 q 311 1222 326 1239 q 288 1196 296 1206 l 275 1196 l 235 1238 l 235 1250 l 319 1353 l 333 1358 q 443 1331 375 1353 q 533 1310 515 1310 q 590 1353 551 1310 l 611 1375 l 624 1375 l 663 1333 l 663 1321 m 254 1047 q 426 1181 346 1108 l 460 1181 q 632 1047 535 1114 l 606 988 l 590 988 l 565 1003 q 443 1079 458 1069 q 297 988 404 1053 l 282 988 l 254 1047 m 457 903 q 741 789 642 903 q 840 464 840 675 q 734 112 840 236 q 431 -12 628 -12 q 147 105 247 -12 q 47 438 47 222 q 153 782 47 661 q 457 903 260 903 m 443 785 q 255 705 315 785 q 194 456 194 625 q 255 188 194 274 q 442 103 315 103 q 630 185 568 103 q 692 438 692 267 q 631 701 692 618 q 443 785 571 785 z "},"ỗ":{"ha":775,"x_min":56,"x_max":721,"o":"m 608 1125 l 525 1022 l 510 1017 q 403 1043 488 1019 q 310 1065 325 1065 q 285 1054 297 1065 q 257 1026 272 1043 q 233 1000 242 1010 l 221 1000 l 181 1042 l 181 1054 l 265 1157 l 279 1163 q 389 1135 321 1157 q 479 1114 463 1114 q 536 1157 497 1114 l 557 1179 l 569 1179 l 608 1138 l 608 1125 m 200 851 q 372 985 292 913 l 406 985 q 578 851 481 918 l 551 792 l 536 792 l 511 807 q 389 883 404 874 q 243 792 350 857 l 228 792 l 200 851 m 400 706 q 637 616 553 706 q 721 364 721 526 q 631 86 721 183 q 376 -11 542 -11 q 139 81 222 -11 q 56 340 56 172 q 145 610 56 515 q 400 706 235 706 m 388 596 q 241 540 288 596 q 194 357 194 483 q 240 158 194 218 q 386 97 286 97 q 535 153 488 97 q 582 338 582 210 q 536 536 582 476 q 388 596 490 596 z "},"Ộ":{"ha":888,"x_min":47,"x_max":840,"o":"m 267 1067 q 439 1200 358 1128 l 472 1200 q 644 1067 547 1133 l 618 1007 l 603 1007 l 578 1022 q 456 1099 471 1089 q 310 1007 417 1072 l 294 1007 l 267 1067 m 457 903 q 741 789 642 903 q 840 464 840 675 q 734 112 840 236 q 431 -12 628 -12 q 147 105 247 -12 q 47 438 47 222 q 153 782 47 661 q 457 903 260 903 m 443 785 q 255 705 315 785 q 194 456 194 625 q 255 188 194 274 q 442 103 315 103 q 630 185 568 103 q 692 438 692 267 q 631 701 692 618 q 443 785 571 785 m 447 -86 q 501 -106 482 -86 q 521 -162 521 -126 q 500 -222 521 -200 q 443 -244 479 -244 q 387 -224 407 -244 q 367 -167 367 -203 q 388 -108 367 -131 q 447 -86 410 -86 z "},"ộ":{"ha":775,"x_min":56,"x_max":721,"o":"m 193 839 q 374 1029 272 914 l 410 1029 q 589 839 510 914 l 551 783 l 538 783 q 392 922 442 867 q 246 783 343 871 l 231 783 l 193 839 m 400 706 q 637 616 553 706 q 721 364 721 526 q 631 86 721 183 q 376 -11 542 -11 q 139 81 222 -11 q 56 340 56 172 q 145 610 56 515 q 400 706 235 706 m 388 596 q 241 540 288 596 q 194 357 194 483 q 240 158 194 218 q 386 97 286 97 q 535 153 488 97 q 582 338 582 210 q 536 536 582 476 q 388 596 490 596 m 393 -86 q 447 -106 428 -86 q 467 -162 467 -126 q 446 -222 467 -200 q 389 -244 425 -244 q 333 -224 353 -244 q 313 -167 313 -203 q 334 -108 313 -131 q 393 -86 356 -86 z "},"Ớ":{"ha":894,"x_min":47,"x_max":893,"o":"m 810 1068 q 867 1033 842 1068 q 893 944 893 997 q 847 837 893 878 q 731 789 801 796 q 840 458 840 678 q 733 112 840 236 q 433 -12 626 -12 q 147 105 247 -12 q 47 436 47 222 q 153 781 47 660 q 447 903 260 903 q 611 874 526 903 q 689 857 667 857 q 756 878 729 857 q 782 935 782 899 q 738 1029 782 988 l 740 1040 q 810 1068 775 1068 m 443 785 q 256 704 317 785 q 194 453 194 624 q 255 188 194 272 q 443 103 315 103 q 631 185 569 103 q 692 439 692 267 q 631 701 692 618 q 443 785 571 785 m 643 1126 l 638 1113 q 356 999 546 1072 l 340 1004 l 317 1065 q 592 1214 497 1158 l 606 1211 l 643 1126 z "},"ớ":{"ha":783,"x_min":56,"x_max":768,"o":"m 631 813 q 693 838 669 838 q 745 808 722 838 q 768 733 768 778 q 733 646 768 681 q 642 600 699 611 q 721 358 721 513 q 631 87 721 185 q 379 -11 542 -11 q 140 81 224 -11 q 56 340 56 172 q 145 610 56 514 q 394 706 235 706 q 531 686 453 706 q 596 674 574 674 q 647 688 628 674 q 665 729 665 701 q 628 801 665 768 l 631 813 m 390 92 q 535 151 489 92 q 582 343 582 210 q 535 537 582 478 q 386 596 489 596 q 240 538 286 596 q 194 349 194 481 q 242 152 194 213 q 390 92 289 92 m 579 931 l 574 917 q 292 803 482 876 l 276 808 l 253 869 q 528 1018 433 963 l 542 1015 l 579 931 z "},"Ờ":{"ha":894,"x_min":47,"x_max":893,"o":"m 333 1215 q 608 1067 428 1160 l 585 1006 l 569 1000 q 288 1114 379 1074 l 282 1128 l 319 1213 l 333 1215 m 810 1068 q 867 1033 842 1068 q 893 944 893 997 q 847 837 893 878 q 731 789 801 796 q 840 458 840 678 q 734 112 840 236 q 433 -12 628 -12 q 147 105 247 -12 q 47 436 47 222 q 153 781 47 660 q 447 903 260 903 q 611 874 526 903 q 689 857 667 857 q 756 878 729 857 q 782 935 782 899 q 738 1029 782 988 l 740 1040 q 810 1068 775 1068 m 443 785 q 255 704 315 785 q 194 453 194 624 q 255 188 194 272 q 442 103 315 103 q 630 185 568 103 q 692 439 692 267 q 631 701 692 618 q 443 785 571 785 z "},"ờ":{"ha":783,"x_min":56,"x_max":768,"o":"m 269 1019 q 544 871 364 964 l 521 810 l 506 804 q 224 918 315 878 l 218 932 l 256 1017 l 269 1019 m 631 813 q 693 838 669 838 q 745 808 722 838 q 768 733 768 778 q 733 646 768 681 q 642 600 699 611 q 721 358 721 513 q 631 87 721 185 q 379 -11 542 -11 q 140 81 224 -11 q 56 340 56 172 q 145 610 56 514 q 394 706 235 706 q 531 686 453 706 q 596 674 574 674 q 647 688 628 674 q 665 729 665 701 q 628 801 665 768 l 631 813 m 390 92 q 535 151 489 92 q 582 343 582 210 q 535 537 582 478 q 386 596 489 596 q 240 538 286 596 q 194 349 194 481 q 242 152 194 213 q 390 92 289 92 z "},"Ở":{"ha":894,"x_min":47,"x_max":893,"o":"m 810 1068 q 867 1033 842 1068 q 893 944 893 997 q 847 837 893 878 q 731 789 801 796 q 840 458 840 678 q 733 112 840 236 q 433 -12 626 -12 q 147 105 247 -12 q 47 436 47 222 q 153 781 47 660 q 447 903 260 903 q 611 874 526 903 q 689 857 667 857 q 756 878 729 857 q 782 935 782 899 q 738 1029 782 988 l 740 1040 q 810 1068 775 1068 m 443 785 q 256 704 317 785 q 194 453 194 624 q 255 188 194 272 q 443 103 315 103 q 631 185 569 103 q 692 439 692 267 q 631 701 692 618 q 443 785 571 785 m 436 1257 q 506 1232 478 1257 q 535 1169 535 1207 q 517 1119 535 1143 q 460 1061 500 1094 l 489 1010 l 433 979 l 383 1061 q 454 1156 454 1114 q 415 1185 454 1185 q 332 1151 374 1185 l 306 1193 q 436 1257 369 1257 z "},"ở":{"ha":783,"x_min":56,"x_max":768,"o":"m 631 813 q 693 838 669 838 q 745 808 722 838 q 768 733 768 778 q 733 646 768 681 q 642 600 699 611 q 721 358 721 513 q 631 87 721 185 q 379 -11 542 -11 q 140 81 224 -11 q 56 340 56 172 q 145 610 56 514 q 394 706 235 706 q 531 686 453 706 q 596 674 574 674 q 647 688 628 674 q 665 729 665 701 q 628 801 665 768 l 631 813 m 390 92 q 535 151 489 92 q 582 343 582 210 q 535 537 582 478 q 386 596 489 596 q 240 538 286 596 q 194 349 194 481 q 242 152 194 213 q 390 92 289 92 m 372 1061 q 442 1036 414 1061 q 471 974 471 1011 q 453 923 471 947 q 396 865 436 899 l 425 814 l 369 783 l 319 865 q 390 960 390 918 q 351 989 390 989 q 268 956 310 989 l 242 997 q 372 1061 306 1061 z "},"Ỡ":{"ha":894,"x_min":47,"x_max":893,"o":"m 810 1068 q 867 1033 842 1068 q 893 944 893 997 q 847 837 893 878 q 731 789 801 796 q 840 458 840 678 q 733 112 840 236 q 433 -12 626 -12 q 147 105 247 -12 q 47 436 47 222 q 153 781 47 660 q 447 903 260 903 q 611 874 526 903 q 689 857 667 857 q 756 878 729 857 q 782 935 782 899 q 738 1029 782 988 l 740 1040 q 810 1068 775 1068 m 443 785 q 256 704 317 785 q 194 453 194 624 q 255 188 194 272 q 443 103 315 103 q 631 185 569 103 q 692 439 692 267 q 631 701 692 618 q 443 785 571 785 m 672 1142 l 582 1035 l 568 1028 q 456 1056 543 1032 q 353 1079 374 1079 q 292 1033 333 1079 l 271 1011 l 257 1011 l 214 1056 l 214 1068 l 304 1175 l 319 1181 q 433 1154 357 1175 q 535 1131 515 1131 q 563 1142 549 1131 q 593 1172 576 1154 q 617 1199 610 1190 l 631 1199 l 672 1154 l 672 1142 z "},"ỡ":{"ha":783,"x_min":56,"x_max":768,"o":"m 631 813 q 693 838 669 838 q 745 808 722 838 q 768 733 768 778 q 733 646 768 681 q 642 600 699 611 q 721 358 721 513 q 631 87 721 185 q 379 -11 542 -11 q 140 81 224 -11 q 56 340 56 172 q 145 610 56 514 q 394 706 235 706 q 531 686 453 706 q 596 674 574 674 q 647 688 628 674 q 665 729 665 701 q 628 801 665 768 l 631 813 m 390 92 q 535 151 489 92 q 582 343 582 210 q 535 537 582 478 q 386 596 489 596 q 240 538 286 596 q 194 349 194 481 q 242 152 194 213 q 390 92 289 92 m 610 946 l 519 839 l 506 832 q 393 860 481 836 q 290 883 311 883 q 229 838 271 883 l 208 815 l 194 815 l 151 860 l 151 872 l 242 979 l 257 985 q 371 958 294 979 q 472 935 453 935 q 500 947 486 935 q 531 976 514 958 q 554 1003 547 994 l 568 1003 l 610 958 l 610 946 z "},"Ợ":{"ha":894,"x_min":47,"x_max":893,"o":"m 810 1068 q 867 1033 842 1068 q 893 944 893 997 q 847 837 893 878 q 731 789 801 796 q 840 458 840 678 q 734 112 840 236 q 433 -12 628 -12 q 147 105 247 -12 q 47 436 47 222 q 153 781 47 660 q 447 903 260 903 q 611 874 526 903 q 689 857 667 857 q 756 878 729 857 q 782 935 782 899 q 738 1029 782 988 l 740 1040 q 810 1068 775 1068 m 443 785 q 255 704 315 785 q 194 453 194 624 q 255 188 194 272 q 442 103 315 103 q 630 185 568 103 q 692 439 692 267 q 631 701 692 618 q 443 785 571 785 m 447 -86 q 501 -106 482 -86 q 521 -162 521 -126 q 500 -222 521 -200 q 443 -244 479 -244 q 387 -224 407 -244 q 367 -167 367 -203 q 388 -108 367 -131 q 447 -86 410 -86 z "},"ợ":{"ha":783,"x_min":56,"x_max":768,"o":"m 631 813 q 693 838 669 838 q 745 808 722 838 q 768 733 768 778 q 733 646 768 681 q 642 600 699 611 q 721 358 721 513 q 631 87 721 185 q 379 -11 542 -11 q 140 81 224 -11 q 56 340 56 172 q 145 610 56 514 q 394 706 235 706 q 531 686 453 706 q 596 674 574 674 q 647 688 628 674 q 665 729 665 701 q 628 801 665 768 l 631 813 m 390 92 q 535 151 489 92 q 582 343 582 210 q 535 537 582 478 q 386 596 489 596 q 240 538 286 596 q 194 349 194 481 q 242 152 194 213 q 390 92 289 92 m 393 -86 q 447 -106 428 -86 q 467 -162 467 -126 q 446 -222 467 -200 q 389 -244 425 -244 q 333 -224 353 -244 q 313 -167 313 -203 q 334 -108 313 -131 q 393 -86 356 -86 z "},"Ụ":{"ha":876,"x_min":99,"x_max":785,"o":"m 779 333 q 690 79 782 169 q 429 -11 599 -11 q 182 76 268 -11 q 99 322 96 163 l 100 446 l 99 892 l 240 892 l 235 342 q 439 111 233 111 q 647 328 649 111 l 640 892 l 785 892 l 781 439 l 779 333 m 440 -86 q 494 -106 475 -86 q 514 -162 514 -126 q 493 -222 514 -200 q 436 -244 472 -244 q 380 -224 400 -244 q 360 -167 360 -203 q 381 -108 360 -131 q 440 -86 403 -86 z "},"ụ":{"ha":767,"x_min":96,"x_max":675,"o":"m 671 239 q 596 56 672 121 q 379 -10 519 -10 q 167 55 240 -10 q 97 239 94 119 l 99 346 l 96 696 l 231 696 l 222 260 q 383 101 221 101 q 546 260 549 101 l 540 696 l 675 696 l 671 342 l 671 239 m 388 -86 q 442 -106 422 -86 q 461 -162 461 -126 q 440 -222 461 -200 q 383 -244 419 -244 q 327 -224 347 -244 q 307 -167 307 -203 q 328 -108 307 -131 q 388 -86 350 -86 z "},"Ủ":{"ha":876,"x_min":99,"x_max":785,"o":"m 779 333 q 690 79 782 169 q 431 -11 599 -11 q 182 76 268 -11 q 99 322 96 163 l 101 446 l 99 892 l 240 892 l 235 342 q 440 111 233 111 q 647 328 649 111 l 640 892 l 785 892 l 781 439 l 779 333 m 432 1257 q 502 1232 474 1257 q 531 1169 531 1207 q 513 1119 531 1143 q 456 1061 496 1094 l 485 1010 l 429 979 l 379 1061 q 450 1156 450 1114 q 411 1185 450 1185 q 328 1151 369 1185 l 301 1193 q 432 1257 365 1257 z "},"ủ":{"ha":767,"x_min":93,"x_max":674,"o":"m 668 239 q 593 56 669 121 q 376 -10 517 -10 q 165 55 238 -10 q 96 239 93 119 l 97 346 l 93 696 l 228 696 l 221 260 q 382 101 219 101 q 544 260 547 101 l 539 696 l 674 696 l 669 342 l 668 239 m 376 1061 q 447 1036 418 1061 q 475 974 475 1011 q 458 923 475 947 q 400 865 440 899 l 429 814 l 374 783 l 324 865 q 394 960 394 918 q 356 989 394 989 q 272 956 314 989 l 246 997 q 376 1061 310 1061 z "},"Ứ":{"ha":890,"x_min":99,"x_max":907,"o":"m 907 972 q 874 885 907 924 q 785 829 842 847 l 781 439 l 779 333 q 690 79 782 169 q 429 -11 599 -11 q 182 76 268 -11 q 99 322 96 163 l 100 446 l 99 892 l 240 892 l 235 342 q 439 111 233 111 q 647 328 649 111 l 640 892 l 707 892 q 796 961 796 892 q 750 1044 796 1004 l 754 1057 q 822 1085 793 1085 q 881 1052 854 1085 q 907 972 907 1019 m 640 1126 l 635 1113 q 353 999 543 1072 l 338 1004 l 314 1065 q 589 1214 494 1158 l 603 1211 l 640 1126 z "},"ứ":{"ha":781,"x_min":92,"x_max":778,"o":"m 667 239 q 592 55 668 119 q 375 -10 515 -10 q 163 55 236 -10 q 93 239 90 119 l 94 346 l 92 696 l 226 696 l 218 260 q 381 101 217 101 q 542 260 544 101 l 536 696 l 603 696 q 674 750 674 696 q 638 815 674 786 l 642 826 q 706 850 678 850 q 756 824 733 850 q 778 761 778 799 q 749 687 778 719 q 671 639 721 654 l 667 342 l 667 239 m 571 931 l 565 917 q 283 803 474 876 l 268 808 l 244 869 q 519 1018 425 963 l 533 1015 l 571 931 z "},"Ừ":{"ha":890,"x_min":99,"x_max":907,"o":"m 569 1000 q 288 1114 379 1074 l 282 1128 l 319 1213 l 333 1215 q 608 1067 428 1160 l 585 1006 l 569 1000 m 907 972 q 874 885 907 924 q 785 829 842 847 l 781 439 l 779 333 q 690 79 782 169 q 429 -11 599 -11 q 182 76 268 -11 q 99 322 96 163 l 100 446 l 99 892 l 240 892 l 235 342 q 439 111 233 111 q 647 328 649 111 l 640 892 l 707 892 q 796 961 796 892 q 750 1044 796 1004 l 754 1057 q 822 1085 793 1085 q 881 1052 854 1085 q 907 972 907 1019 z "},"ừ":{"ha":781,"x_min":92,"x_max":778,"o":"m 499 804 q 217 918 308 878 l 211 932 l 249 1017 l 263 1019 q 538 871 357 964 l 514 810 l 499 804 m 667 239 q 592 55 668 119 q 375 -10 515 -10 q 163 55 236 -10 q 93 239 90 119 l 94 346 l 92 696 l 226 696 l 218 260 q 381 101 217 101 q 542 260 544 101 l 536 696 l 603 696 q 674 750 674 696 q 638 815 674 786 l 642 826 q 706 850 678 850 q 756 824 733 850 q 778 761 778 799 q 749 687 778 719 q 671 639 721 654 l 667 342 l 667 239 z "},"Ử":{"ha":890,"x_min":99,"x_max":907,"o":"m 907 972 q 874 885 907 924 q 785 829 842 847 l 781 439 l 779 333 q 690 79 782 169 q 429 -11 599 -11 q 182 76 268 -11 q 99 322 96 163 l 100 446 l 99 892 l 240 892 l 235 342 q 439 111 233 111 q 647 328 649 111 l 640 892 l 707 892 q 796 961 796 892 q 750 1044 796 1004 l 754 1057 q 822 1085 793 1085 q 881 1052 854 1085 q 907 972 907 1019 m 432 1257 q 502 1232 474 1257 q 531 1169 531 1207 q 513 1119 531 1143 q 456 1061 496 1094 l 485 1010 l 429 979 l 379 1061 q 450 1156 450 1114 q 411 1185 450 1185 q 328 1151 369 1185 l 301 1193 q 432 1257 365 1257 z "},"ử":{"ha":781,"x_min":92,"x_max":778,"o":"m 667 239 q 592 55 668 119 q 375 -10 515 -10 q 163 55 236 -10 q 93 239 90 119 l 94 346 l 92 696 l 226 696 l 218 260 q 381 101 217 101 q 542 260 544 101 l 536 696 l 603 696 q 674 750 674 696 q 638 815 674 786 l 642 826 q 706 850 678 850 q 756 824 733 850 q 778 761 778 799 q 749 687 778 719 q 671 639 721 654 l 667 342 l 667 239 m 363 1061 q 433 1036 404 1061 q 461 974 461 1011 q 444 923 461 947 q 386 865 426 899 l 415 814 l 360 783 l 310 865 q 381 960 381 918 q 342 989 381 989 q 258 956 300 989 l 232 997 q 363 1061 296 1061 z "},"Ữ":{"ha":890,"x_min":99,"x_max":907,"o":"m 907 972 q 874 885 907 924 q 785 829 842 847 l 781 439 l 779 333 q 690 79 782 169 q 429 -11 599 -11 q 182 76 268 -11 q 99 322 96 163 l 100 446 l 99 892 l 240 892 l 235 342 q 439 111 233 111 q 647 328 649 111 l 640 892 l 707 892 q 796 961 796 892 q 750 1044 796 1004 l 754 1057 q 822 1085 793 1085 q 881 1052 854 1085 q 907 972 907 1019 m 669 1142 l 579 1035 l 565 1028 q 453 1056 540 1032 q 350 1079 371 1079 q 289 1033 331 1079 l 268 1011 l 254 1011 l 211 1056 l 211 1068 l 301 1175 l 317 1181 q 431 1154 354 1175 q 532 1131 513 1131 q 560 1142 546 1131 q 590 1172 574 1154 q 614 1199 607 1190 l 628 1199 l 669 1154 l 669 1142 z "},"ữ":{"ha":781,"x_min":92,"x_max":778,"o":"m 667 239 q 592 55 668 119 q 375 -10 515 -10 q 163 55 236 -10 q 93 239 90 119 l 94 346 l 92 696 l 226 696 l 218 260 q 381 101 217 101 q 542 260 544 101 l 536 696 l 603 696 q 674 750 674 696 q 638 815 674 786 l 642 826 q 706 850 678 850 q 756 824 733 850 q 778 761 778 799 q 749 687 778 719 q 671 639 721 654 l 667 342 l 667 239 m 600 946 l 510 839 l 496 832 q 383 860 471 836 q 281 883 301 883 q 219 838 261 883 l 199 815 l 185 815 l 142 860 l 142 872 l 232 979 l 247 985 q 361 958 285 979 q 463 935 443 935 q 490 947 476 935 q 521 976 504 958 q 544 1003 538 994 l 558 1003 l 600 958 l 600 946 z "},"Ự":{"ha":890,"x_min":99,"x_max":907,"o":"m 907 972 q 874 885 907 924 q 785 829 842 847 l 781 439 l 779 333 q 690 79 782 169 q 429 -11 599 -11 q 182 76 268 -11 q 99 322 96 163 l 100 446 l 99 892 l 240 892 l 235 342 q 439 111 233 111 q 647 328 649 111 l 640 892 l 707 892 q 796 961 796 892 q 750 1044 796 1004 l 754 1057 q 822 1085 793 1085 q 881 1052 854 1085 q 907 972 907 1019 m 443 -86 q 497 -106 478 -86 q 517 -162 517 -126 q 496 -222 517 -200 q 439 -244 475 -244 q 383 -224 403 -244 q 363 -167 363 -203 q 384 -108 363 -131 q 443 -86 406 -86 z "},"ự":{"ha":781,"x_min":92,"x_max":778,"o":"m 667 239 q 592 55 668 119 q 375 -10 515 -10 q 163 55 236 -10 q 93 239 90 119 l 94 346 l 92 696 l 226 696 l 218 260 q 381 101 217 101 q 542 260 544 101 l 536 696 l 603 696 q 674 750 674 696 q 638 815 674 786 l 642 826 q 706 850 678 850 q 756 824 733 850 q 778 761 778 799 q 749 687 778 719 q 671 639 721 654 l 667 342 l 667 239 m 389 -86 q 443 -106 424 -86 q 463 -162 463 -126 q 442 -222 463 -200 q 385 -244 421 -244 q 328 -224 349 -244 q 308 -167 308 -203 q 330 -108 308 -131 q 389 -86 351 -86 z "},"Ỳ":{"ha":751,"x_min":15,"x_max":743,"o":"m 494 1000 q 213 1114 304 1074 l 207 1128 l 244 1213 l 258 1215 q 533 1067 353 1160 l 510 1006 l 494 1000 m 436 0 l 292 0 l 301 256 l 300 311 l 15 892 l 168 892 l 186 836 l 364 463 l 375 463 l 569 833 l 592 892 l 743 892 l 432 313 l 431 256 l 436 0 z "},"ỳ":{"ha":671,"x_min":28,"x_max":646,"o":"m 443 776 q 192 949 301 868 l 189 963 l 242 1038 l 256 1039 q 493 833 347 951 l 457 778 l 443 776 m 392 0 l 258 0 l 264 194 l 263 233 l 28 696 l 169 696 l 186 651 l 324 375 l 333 375 l 486 646 l 507 696 l 646 696 l 388 238 l 386 194 l 392 0 z "},"Ỵ":{"ha":751,"x_min":15,"x_max":743,"o":"m 15 892 l 168 892 l 186 836 l 364 463 l 375 463 l 569 833 l 592 892 l 743 892 l 432 313 l 431 256 l 436 0 l 292 0 l 301 256 l 300 311 l 15 892 m 367 -86 q 421 -106 401 -86 q 440 -162 440 -126 q 419 -222 440 -200 q 363 -244 399 -244 q 306 -224 326 -244 q 286 -167 286 -203 q 308 -108 286 -131 q 367 -86 329 -86 z "},"ỵ":{"ha":671,"x_min":28,"x_max":646,"o":"m 28 696 l 169 696 l 186 651 l 324 375 l 333 375 l 486 646 l 507 696 l 646 696 l 388 238 l 386 194 l 392 0 l 258 0 l 264 194 l 263 233 l 28 696 m 326 -86 q 381 -106 361 -86 q 400 -162 400 -126 q 379 -222 400 -200 q 322 -244 358 -244 q 266 -224 286 -244 q 246 -167 246 -203 q 267 -108 246 -131 q 326 -86 289 -86 z "},"Ỷ":{"ha":751,"x_min":15,"x_max":742,"o":"m 436 0 l 292 0 l 300 256 l 299 313 l 15 892 l 168 892 l 186 836 l 363 463 l 375 463 l 569 833 l 592 892 l 742 892 l 431 311 l 429 256 l 436 0 m 360 1257 q 430 1232 401 1257 q 458 1169 458 1207 q 441 1119 458 1143 q 383 1061 424 1094 l 413 1010 l 357 979 l 307 1061 q 378 1156 378 1114 q 339 1185 378 1185 q 256 1151 297 1185 l 229 1193 q 360 1257 293 1257 z "},"ỷ":{"ha":671,"x_min":28,"x_max":646,"o":"m 392 0 l 258 0 l 264 194 l 263 233 l 28 696 l 169 696 l 186 651 l 324 375 l 333 375 l 486 646 l 507 696 l 646 696 l 388 238 l 386 194 l 392 0 m 332 1061 q 402 1036 374 1061 q 431 974 431 1011 q 413 923 431 947 q 356 865 396 899 l 385 814 l 329 783 l 279 865 q 350 960 350 918 q 311 989 350 989 q 228 956 269 989 l 201 997 q 332 1061 265 1061 z "},"Ỹ":{"ha":751,"x_min":15,"x_max":742,"o":"m 436 0 l 292 0 l 300 256 l 299 313 l 15 892 l 168 892 l 186 836 l 363 463 l 375 463 l 569 833 l 592 892 l 742 892 l 431 311 l 429 256 l 436 0 m 597 1142 l 507 1035 l 493 1028 q 381 1056 468 1032 q 278 1079 299 1079 q 217 1033 258 1079 l 196 1011 l 182 1011 l 139 1056 l 139 1068 l 229 1175 l 244 1181 q 358 1154 282 1175 q 460 1131 440 1131 q 488 1142 474 1131 q 518 1172 501 1154 q 542 1199 535 1190 l 556 1199 l 597 1154 l 597 1142 z "},"ỹ":{"ha":671,"x_min":28,"x_max":646,"o":"m 392 0 l 258 0 l 264 194 l 263 233 l 28 696 l 169 696 l 186 651 l 324 375 l 333 375 l 486 646 l 507 696 l 646 696 l 388 238 l 386 194 l 392 0 m 569 946 l 479 839 l 465 832 q 353 860 440 836 q 250 883 271 883 q 189 838 231 883 l 168 815 l 154 815 l 111 860 l 111 872 l 201 979 l 217 985 q 331 958 254 979 q 432 935 413 935 q 460 947 446 935 q 490 976 474 958 q 514 1003 507 994 l 528 1003 l 569 958 l 569 946 z "},"–":{"ha":657,"x_min":-21,"x_max":678,"o":"m 671 307 l -11 307 l -21 318 l -12 406 l 668 406 l 678 394 l 671 307 z "},"—":{"ha":1267,"x_min":-22,"x_max":1292,"o":"m 1283 307 l -14 307 l -22 318 l -15 406 l 1281 406 l 1292 394 l 1283 307 z "},"‘":{"ha":254,"x_min":46,"x_max":211,"o":"m 122 579 q 46 693 46 614 q 158 897 46 789 l 210 863 l 211 851 q 154 735 154 790 q 208 649 154 675 l 208 636 q 122 579 169 601 z "},"’":{"ha":254,"x_min":47,"x_max":213,"o":"m 136 896 q 213 782 213 861 q 100 578 213 686 l 49 613 l 47 624 q 104 740 104 685 q 50 826 104 800 l 50 839 q 136 896 89 874 z "},"‚":{"ha":318,"x_min":46,"x_max":240,"o":"m 181 147 q 240 43 240 104 q 93 -165 240 -60 l 47 -124 l 46 -112 q 122 15 122 -50 q 79 89 122 58 l 79 101 q 181 147 131 135 z "},"“":{"ha":446,"x_min":39,"x_max":407,"o":"m 318 579 q 242 693 242 614 q 354 897 242 789 l 406 863 l 407 851 q 350 735 350 790 q 404 649 350 675 l 404 636 q 318 579 365 601 m 115 579 q 39 693 39 614 q 151 897 39 789 l 203 863 l 204 851 q 147 735 147 790 q 201 649 147 675 l 201 636 q 115 579 163 601 z "},"”":{"ha":450,"x_min":44,"x_max":406,"o":"m 329 896 q 406 782 406 861 q 293 578 406 686 l 242 613 l 240 624 q 297 740 297 685 q 243 826 297 800 l 243 839 q 329 896 282 874 m 133 896 q 210 782 210 861 q 97 578 210 686 l 46 613 l 44 624 q 101 740 101 685 q 47 826 101 800 l 47 839 q 133 896 86 874 z "},"„":{"ha":519,"x_min":46,"x_max":440,"o":"m 381 147 q 440 43 440 104 q 293 -165 440 -60 l 247 -124 l 246 -112 q 322 15 322 -50 q 279 89 322 58 l 279 101 q 381 147 331 135 m 181 147 q 240 43 240 104 q 93 -165 240 -60 l 47 -124 l 46 -112 q 122 15 122 -50 q 79 89 122 58 l 79 101 q 181 147 131 135 z "},"†":{"ha":681,"x_min":57,"x_max":625,"o":"m 388 468 l 388 400 l 388 -125 l 299 -131 l 289 -119 l 289 468 l 67 468 l 57 479 l 65 565 l 289 565 l 289 813 l 381 819 l 389 813 l 388 565 l 614 565 l 625 556 l 617 468 l 388 468 z "},"‡":{"ha":681,"x_min":57,"x_max":625,"o":"m 625 194 l 617 107 l 388 107 l 388 -125 l 299 -131 l 289 -119 l 289 107 l 67 107 l 57 118 l 65 204 l 289 204 l 289 479 l 67 479 l 57 490 l 65 575 l 289 575 l 289 813 l 381 819 l 389 813 l 388 575 l 614 575 l 625 565 l 617 479 l 388 479 l 388 400 l 388 204 l 614 204 l 625 194 z "},"•":{"ha":367,"x_min":90,"x_max":272,"o":"m 186 469 q 250 445 227 469 q 273 379 273 422 q 248 309 273 335 q 181 283 224 283 q 115 308 139 283 q 92 375 92 332 q 117 443 92 417 q 186 469 142 469 z "},"․":{"ha":318,"x_min":81,"x_max":235,"o":"m 161 150 q 215 130 196 150 q 235 74 235 110 q 214 14 235 36 q 157 -8 193 -8 q 101 13 121 -8 q 81 69 81 33 q 102 128 81 106 q 161 150 124 150 z "},"‥":{"ha":578,"x_min":75,"x_max":488,"o":"m 414 150 q 468 130 449 150 q 488 74 488 110 q 467 14 488 36 q 410 -8 446 -8 q 353 13 374 -8 q 333 69 333 33 q 355 128 333 106 q 414 150 376 150 m 156 150 q 210 130 190 150 q 229 74 229 110 q 208 14 229 36 q 151 -8 188 -8 q 95 13 115 -8 q 75 69 75 33 q 97 128 75 106 q 156 150 118 150 z "},"…":{"ha":836,"x_min":75,"x_max":746,"o":"m 414 150 q 468 130 449 150 q 488 74 488 110 q 467 14 488 36 q 410 -8 446 -8 q 353 13 374 -8 q 333 69 333 33 q 355 128 333 106 q 414 150 376 150 m 672 150 q 726 130 707 150 q 746 74 746 110 q 725 14 746 36 q 668 -8 704 -8 q 612 13 632 -8 q 592 69 592 33 q 613 128 592 106 q 672 150 635 150 m 156 150 q 210 130 190 150 q 229 74 229 110 q 208 14 229 36 q 151 -8 188 -8 q 95 13 115 -8 q 75 69 75 33 q 97 128 75 106 q 156 150 118 150 z "},"‰":{"ha":1682,"x_min":50,"x_max":1631,"o":"m 917 889 l 265 -126 l 203 -90 l 196 -72 l 847 946 l 907 910 l 917 889 m 268 900 q 417 838 365 900 q 468 660 468 775 q 413 469 468 535 q 253 403 358 403 q 103 465 156 403 q 50 644 50 528 q 106 834 50 768 q 268 900 163 900 m 258 801 q 144 653 144 801 q 260 494 144 494 q 375 646 375 494 q 258 801 375 801 m 910 490 q 1058 428 1007 490 q 1110 250 1110 365 q 1055 59 1110 125 q 894 -7 1000 -7 q 744 56 797 -7 q 692 235 692 118 q 748 424 692 358 q 910 490 804 490 m 1429 490 q 1578 428 1526 490 q 1631 250 1631 365 q 1575 59 1631 125 q 1414 -7 1519 -7 q 1265 56 1317 -7 q 1213 235 1213 118 q 1268 424 1213 358 q 1429 490 1324 490 m 900 392 q 788 243 788 392 q 901 85 788 85 q 1017 236 1017 85 q 900 392 1017 392 m 1419 392 q 1307 243 1307 392 q 1421 85 1307 85 q 1536 236 1536 85 q 1419 392 1536 392 z "},"′":{"ha":253,"x_min":76,"x_max":196,"o":"m 157 603 l 88 593 l 76 603 l 78 881 l 186 889 l 196 878 l 157 603 z "},"″":{"ha":438,"x_min":76,"x_max":381,"o":"m 342 603 l 272 593 l 261 603 l 263 881 l 371 889 l 381 878 l 342 603 m 157 603 l 88 593 l 76 603 l 78 881 l 186 889 l 196 878 l 157 603 z "},"‹":{"ha":326,"x_min":31,"x_max":296,"o":"m 31 325 l 226 568 l 293 531 l 296 515 l 135 314 l 296 113 l 293 97 l 226 60 l 31 299 l 31 325 z "},"›":{"ha":333,"x_min":36,"x_max":301,"o":"m 301 306 l 106 63 l 39 100 l 36 115 l 197 317 l 36 518 l 39 533 l 106 571 l 301 332 l 301 306 z "},"⁄":{"ha":122,"x_min":-324,"x_max":396,"o":"m 396 889 l -254 -126 l -317 -90 l -324 -72 l 328 946 l 388 910 l 396 889 z "},"⁰":{"ha":519,"x_min":50,"x_max":468,"o":"m 268 982 q 417 914 365 982 q 468 719 468 846 q 413 510 468 582 q 253 439 358 439 q 102 507 154 439 q 50 701 50 575 q 106 910 50 838 q 268 982 163 982 m 258 874 q 144 711 144 874 q 260 539 144 539 q 375 704 375 539 q 258 874 375 874 z "},"⁴":{"ha":497,"x_min":33,"x_max":453,"o":"m 371 575 l 376 453 l 369 444 l 275 440 l 268 446 l 271 576 l 121 576 l 42 572 l 33 583 l 33 657 l 260 975 l 371 975 l 368 664 l 446 664 l 453 654 l 447 572 l 371 575 m 272 664 l 272 844 l 264 844 l 138 664 l 272 664 z "},"⁵":{"ha":432,"x_min":36,"x_max":382,"o":"m 371 883 l 361 876 l 285 883 l 171 883 l 168 781 l 226 767 q 379 621 379 736 q 315 488 379 538 q 144 438 250 438 q 44 447 99 438 l 36 529 l 46 539 q 146 525 88 525 q 233 547 201 525 q 264 610 264 569 q 172 686 264 667 l 83 701 l 76 711 l 79 963 l 92 976 l 144 975 l 285 975 l 375 978 l 382 972 l 371 883 z "},"⁶":{"ha":475,"x_min":46,"x_max":431,"o":"m 276 769 q 390 726 349 769 q 431 615 431 682 q 381 488 431 538 q 236 438 331 438 q 97 491 147 438 q 46 639 46 544 q 116 839 46 750 q 315 982 186 928 l 322 982 l 397 932 l 397 921 q 249 844 303 885 q 174 750 196 804 l 182 742 q 276 769 225 769 m 239 511 q 322 604 322 511 q 242 689 322 689 q 156 663 200 689 l 156 640 q 174 543 156 575 q 239 511 193 511 z "},"⁷":{"ha":422,"x_min":29,"x_max":388,"o":"m 342 975 l 386 976 l 388 892 l 236 567 l 183 435 l 86 460 l 79 478 l 268 879 l 119 879 l 35 871 l 29 883 l 38 976 l 139 975 l 342 975 z "},"⁸":{"ha":485,"x_min":53,"x_max":426,"o":"m 254 982 q 369 947 328 982 q 411 851 411 911 q 325 728 411 774 l 325 721 q 400 670 374 697 q 426 594 426 643 q 373 479 426 521 q 231 438 319 438 q 99 474 146 438 q 53 572 53 511 q 160 701 53 660 l 160 707 q 71 833 71 753 q 121 942 71 903 q 254 982 171 982 m 246 903 q 191 885 211 903 q 171 836 171 868 q 192 789 171 807 q 253 754 213 771 q 300 790 283 771 q 317 839 317 810 q 297 885 317 868 q 246 903 278 903 m 232 672 q 174 640 194 658 q 153 588 153 621 q 175 534 153 554 q 239 514 197 514 q 306 534 282 514 q 329 585 329 554 q 305 635 329 617 q 232 672 281 653 z "},"⁹":{"ha":476,"x_min":49,"x_max":433,"o":"m 243 983 q 383 929 332 983 q 433 779 433 875 q 363 581 433 669 q 163 438 292 492 l 157 438 l 82 488 l 82 500 q 230 574 176 535 q 306 668 283 614 l 297 676 q 203 649 251 649 q 90 694 131 649 q 49 806 49 739 q 99 933 49 882 q 243 983 150 983 m 238 731 q 325 758 281 731 l 325 779 q 306 876 325 844 q 240 908 286 908 q 156 817 156 908 q 238 731 156 731 z "},"₣":{"ha":553,"x_min":26,"x_max":551,"o":"m 232 390 l 353 390 l 482 392 l 489 382 l 481 297 l 344 299 l 231 299 l 229 219 l 229 193 l 389 193 l 394 186 l 390 131 l 231 131 l 233 0 l 117 0 l 119 131 l 33 131 l 26 136 l 32 193 l 121 193 l 121 208 l 117 694 l 543 694 l 551 683 l 542 600 l 364 603 l 235 603 l 232 390 z "},"€":{"ha":664,"x_min":18,"x_max":626,"o":"m 433 89 q 522 102 475 89 q 604 139 568 115 l 617 131 l 607 39 q 428 -8 522 -8 q 125 222 174 -8 l 24 222 l 18 231 l 24 299 l 115 299 q 114 336 114 311 q 115 379 114 365 l 24 379 l 18 388 l 24 456 l 125 456 q 233 638 153 575 q 443 701 314 701 q 626 656 539 701 l 604 560 l 594 557 q 436 604 522 604 q 249 456 285 604 l 485 456 l 493 449 l 486 379 l 238 379 l 238 347 q 239 299 238 314 l 485 299 l 493 290 l 486 222 l 253 222 q 433 89 294 89 z "},"ℓ":{"ha":531,"x_min":111,"x_max":507,"o":"m 497 0 l 111 0 l 117 208 l 111 696 l 247 696 l 240 221 l 242 111 l 499 111 l 507 100 l 497 0 z "},"™":{"ha":813,"x_min":36,"x_max":740,"o":"m 299 883 l 293 829 l 228 832 l 204 832 l 201 667 l 204 563 l 131 563 l 135 660 l 132 832 l 108 832 l 40 829 l 36 836 l 40 890 l 293 890 l 299 883 m 674 563 l 668 661 l 656 779 l 650 779 l 571 596 l 513 596 l 440 779 l 436 779 l 422 669 l 414 563 l 350 563 l 386 890 l 474 890 l 489 842 l 543 693 l 547 693 l 607 840 l 624 890 l 708 890 l 740 563 l 674 563 z "},"Ω":{"ha":1039,"x_min":44,"x_max":993,"o":"m 529 903 q 744 851 657 903 q 876 711 832 799 q 919 517 919 624 q 874 302 919 408 q 742 115 829 196 l 744 108 l 871 108 l 985 121 l 993 111 l 976 -7 l 829 0 l 640 0 l 589 -3 l 581 3 l 581 107 q 722 284 672 178 q 771 501 771 390 q 707 707 771 628 q 518 786 643 786 q 331 708 393 786 q 268 504 268 631 q 317 286 268 393 q 456 107 367 179 l 456 3 l 449 -3 l 396 0 l 182 0 l 54 -4 l 44 6 l 63 118 l 185 108 l 293 108 l 294 115 q 164 294 208 193 q 119 501 119 396 q 167 703 119 611 q 306 849 214 794 q 529 903 399 903 z "},"℮":{"ha":1094,"x_min":53,"x_max":1071,"o":"m 563 901 q 817 840 700 901 q 1003 673 935 778 q 1071 443 1071 568 l 1071 435 l 244 435 q 235 426 235 435 l 235 175 q 249 144 235 161 q 390 49 308 83 q 564 14 472 14 q 753 53 664 14 q 906 160 843 92 l 963 160 q 787 33 892 79 q 563 -14 682 -14 q 308 47 425 -14 q 122 214 190 108 q 53 443 53 319 q 122 673 53 568 q 308 840 190 778 q 563 901 425 901 m 564 874 q 250 744 376 874 q 235 711 235 732 l 235 469 q 244 461 235 461 l 881 461 q 890 469 890 461 l 890 717 q 875 749 890 733 q 735 841 815 808 q 564 874 654 874 z "},"⅛":{"ha":1008,"x_min":17,"x_max":950,"o":"m 797 889 l 147 -126 l 85 -90 l 78 -72 l 729 946 l 789 910 l 797 889 m 249 553 l 253 364 l 132 364 l 135 539 l 135 769 l 26 742 l 17 747 l 17 842 l 236 901 l 253 888 l 249 553 m 778 538 q 893 502 851 538 q 935 407 935 467 q 849 283 935 329 l 849 276 q 924 226 897 253 q 950 150 950 199 q 897 35 950 76 q 754 -7 843 -7 q 623 30 669 -7 q 576 128 576 67 q 683 257 576 215 l 683 263 q 594 389 594 308 q 644 498 594 458 q 778 538 694 538 m 769 458 q 715 441 735 458 q 694 392 694 424 q 715 344 694 363 q 776 310 736 326 q 824 346 807 326 q 840 394 840 365 q 821 441 840 424 q 769 458 801 458 m 756 228 q 697 195 718 214 q 676 143 676 176 q 699 90 676 110 q 763 69 721 69 q 829 90 806 69 q 853 140 853 110 q 828 190 853 172 q 756 228 804 208 z "},"⅜":{"ha":1061,"x_min":36,"x_max":1003,"o":"m 850 889 l 200 -126 l 138 -90 l 131 -72 l 782 946 l 842 910 l 850 889 m 203 901 q 319 867 275 901 q 363 776 363 833 q 342 706 363 740 q 278 650 321 671 l 278 644 q 381 519 381 617 q 317 402 381 447 q 150 357 253 357 q 50 368 99 357 l 43 451 l 51 460 q 151 446 103 446 q 234 466 204 446 q 264 522 264 486 q 179 590 264 588 l 114 590 l 108 597 l 110 676 l 151 676 q 214 700 186 678 q 242 754 242 722 q 176 808 242 808 q 68 768 129 808 l 56 768 l 36 847 q 203 901 114 901 m 831 538 q 946 502 904 538 q 988 407 988 467 q 901 283 988 329 l 901 276 q 976 226 950 253 q 1003 150 1003 199 q 949 35 1003 76 q 807 -7 896 -7 q 676 30 722 -7 q 629 128 629 67 q 736 257 629 215 l 736 263 q 647 389 647 308 q 697 498 647 458 q 831 538 747 538 m 822 458 q 767 441 788 458 q 747 392 747 424 q 768 344 747 363 q 829 310 789 326 q 876 346 860 326 q 893 394 893 365 q 874 441 893 424 q 822 458 854 458 m 808 228 q 750 195 771 214 q 729 143 729 176 q 751 90 729 110 q 815 69 774 69 q 882 90 858 69 q 906 140 906 110 q 881 190 906 172 q 808 228 857 208 z "}}}
